<?xml version="1.0" encoding="UTF-8"?>
<svg width="300px" height="32px" viewBox="0 0 300 32" version="1.1" xmlns="http://www.w3.org/2000/svg" xmlns:xlink="http://www.w3.org/1999/xlink">
    <!-- Generator: Sketch 61 (89581) - https://sketch.com -->
    <title>footer-logo</title>
    <desc>Created with Sketch.</desc>
    <g id="Symbols" stroke="none" stroke-width="1" fill="none" fill-rule="evenodd">
        <g id="Footer" transform="translate(-50.000000, -49.000000)">
            <g id="footer-logo">
                <g transform="translate(50.000000, 49.000000)">
                    <path d="M0.353565605,24.3090036 L0.353565605,2.58606422 L16.981548,2.58606422 L16.981548,7.05478318 L5.71944361,7.05478318 L5.71944361,11.3373055 L13.5810788,11.3373055 L13.5810788,15.6818934 L5.71944361,15.6818934 L5.71944361,24.3090036 L0.353565605,24.3090036 Z M25.3735317,24.5572658 C23.7512814,24.5572658 22.4202242,24.1072951 21.3803201,23.2073403 C20.3404161,22.3073854 19.8204719,21.1436682 19.8204719,19.7161536 C19.8204719,18.2472618 20.3716127,17.1042328 21.473911,16.2870324 C22.5762093,15.4698321 24.1152442,15.061238 26.0910619,15.061238 C26.6734081,15.061238 27.2661445,15.1181308 27.8692889,15.2319182 C28.4724332,15.3457056 29.1275629,15.5370725 29.8346977,15.8060245 L29.8346977,14.5026481 C29.8346977,13.7371693 29.5695261,13.1578967 29.0391751,12.764813 C28.508824,12.3717292 27.7133094,12.1751903 26.6526072,12.1751903 C26.0494629,12.1751903 25.3787348,12.2631156 24.640403,12.4389689 C23.9020711,12.6148221 23.0649609,12.8992863 22.1290473,13.2923701 L20.3820172,9.785667 C21.6922963,9.20638572 22.9557608,8.77193127 24.1724485,8.48229063 C25.3891362,8.19264999 26.5902074,8.04783184 27.775698,8.04783184 C30.0010926,8.04783184 31.7325069,8.57538367 32.9699927,9.63050314 C34.2074785,10.6856226 34.8262121,12.1648366 34.8262121,14.0681893 L34.8262121,24.3090036 L29.8346977,24.3090036 L29.8346977,22.912529 C29.1275629,23.4918102 28.4204388,23.9107485 27.713304,24.1693562 C27.0061693,24.4279639 26.226253,24.5572658 25.3735317,24.5572658 Z M24.4688197,19.6230553 C24.4688197,20.1402707 24.6871962,20.5385206 25.1239559,20.8178169 C25.5607156,21.0971133 26.1638509,21.2367594 26.9333799,21.2367594 C27.4533319,21.2367594 27.9576778,21.1695224 28.4464327,21.0350463 C28.9351876,20.9005703 29.397938,20.6988593 29.8346977,20.4299073 L29.8346977,18.3817445 C29.3771399,18.2783014 28.9143895,18.1955481 28.4464327,18.1334823 C27.9784759,18.0714164 27.5157256,18.040384 27.0581678,18.040384 C26.2262446,18.040384 25.5867132,18.174858 25.1395544,18.44381 C24.6923957,18.712762 24.4688197,19.1058399 24.4688197,19.6230553 Z M38.6322419,24.3090036 L38.6322419,8.29609401 L43.6861502,8.29609401 L43.6861502,10.8407812 C44.2684965,9.93048204 44.9652217,9.23742376 45.7763469,8.76158557 C46.587472,8.28574737 47.4817761,8.04783184 48.4592859,8.04783184 C49.4991899,8.04783184 50.4142917,8.31677983 51.2046188,8.85468388 C51.9949459,9.39258793 52.5876823,10.1166787 52.9828458,11.0269778 C53.6067883,10.0753014 54.3659068,9.34086654 55.2602243,8.82365111 C56.1545418,8.30643568 57.1528347,8.04783184 58.2551329,8.04783184 C59.7317967,8.04783184 60.9432667,8.57538367 61.8895794,9.63050314 C62.8358921,10.6856226 63.3090413,12.0303626 63.3090413,13.6647633 L63.3090413,24.3090036 L58.2551329,24.3090036 L58.2551329,14.657812 C58.2551329,13.8509559 58.0315569,13.2044463 57.5843982,12.7182638 C57.1372395,12.2320813 56.5601014,11.9889937 55.8529666,11.9889937 C55.3954088,11.9889937 54.974254,12.0872632 54.5894895,12.283805 C54.204725,12.4803469 53.8459635,12.7958436 53.5131942,13.2303045 L53.5131942,24.3090036 L48.4592859,24.3090036 L48.4592859,14.657812 C48.4592859,13.8509559 48.2357099,13.2044463 47.7885511,12.7182638 C47.3413924,12.2320813 46.7642543,11.9889937 46.0571196,11.9889937 C45.5995618,11.9889937 45.1732075,12.0924352 44.778044,12.2993214 C44.3828805,12.5062076 44.0189195,12.8165322 43.6861502,13.2303045 L43.6861502,24.3090036 L38.6322419,24.3090036 Z M69.6420252,5.81347236 C68.8516982,5.81347236 68.1809701,5.53935229 67.629821,4.99110394 C67.0786718,4.44285558 66.8031014,3.78600184 66.8031014,3.02052301 C66.8031014,2.25504417 67.0838713,1.59301835 67.6454195,1.03442569 C68.2069676,0.475833023 68.8724962,0.196540881 69.6420252,0.196540881 C70.4115542,0.196540881 71.0822823,0.475833023 71.6542295,1.03442569 C72.2261767,1.59301835 72.512146,2.25504417 72.512146,3.02052301 C72.512146,3.78600184 72.2365756,4.44285558 71.6854264,4.99110394 C71.1342773,5.53935229 70.4531504,5.81347236 69.6420252,5.81347236 Z M72.1689794,8.29609401 L72.1689794,24.3090036 L67.115071,24.3090036 L67.115071,8.29609401 L72.1689794,8.29609401 Z M81.1537054,1.34475339 L81.1537054,24.3090036 L76.099797,24.3090036 L76.099797,2.12057266 L81.1537054,1.34475339 Z M88.8593558,25.208954 L89.1089315,24.6193313 L83.1815081,8.29609401 L88.7657649,8.29609401 L91.9790523,18.6300066 L95.6602942,8.29609401 L101.119763,8.29609401 L93.8820672,26.1709699 C93.1333362,27.9915682 92.2338327,29.2794153 91.1835297,30.0345498 C90.1332266,30.7896843 88.6825822,31.1672459 86.831553,31.1672459 C86.5403799,31.1672459 86.2024162,31.1465576 85.8176517,31.1051804 C85.4328872,31.0638032 85.0741257,31.0017382 84.7413564,30.9189838 L84.7413564,26.698527 C85.2613084,26.7605928 85.6044716,26.7967974 85.7708562,26.8071417 C85.9372409,26.817486 86.0932241,26.8226581 86.2388107,26.8226581 C86.9251474,26.8226581 87.4814877,26.6881841 87.9078483,26.419232 C88.334209,26.15028 88.651375,25.746858 88.8593558,25.208954 Z M101.930884,21.3298577 L104.676217,17.3886958 C106.173679,18.4438153 107.463141,19.1885943 108.544641,19.6230553 C109.626141,20.0575162 110.697226,20.2747435 111.757928,20.2747435 C112.901823,20.2747435 113.806526,20.0626883 114.472064,19.6385717 C115.137603,19.214455 115.470367,18.671387 115.470367,18.0093512 C115.470367,17.3680041 115.25719,16.8818289 114.830829,16.550811 C114.404469,16.2197931 113.660948,15.9508451 112.600246,15.743959 L107.951898,14.9371069 C106.225658,14.606089 104.8998,13.9337191 103.974285,12.9199768 C103.048771,11.9062346 102.58602,10.6442479 102.58602,9.13397881 C102.58602,7.04442848 103.355538,5.37901978 104.894596,4.13770275 C106.433654,2.89638572 108.555026,2.27573651 111.258777,2.27573651 C112.943421,2.27573651 114.576046,2.52916827 116.1567,3.03603939 C117.737354,3.54291051 119.089209,4.24114087 120.212306,5.13075141 L117.49817,9.00984773 C116.437468,8.20299166 115.371582,7.60303076 114.300481,7.20994704 C113.22938,6.81686331 112.121899,6.6203244 110.978004,6.6203244 C109.917302,6.6203244 109.09579,6.81686331 108.513444,7.20994704 C107.931098,7.60303076 107.639929,8.08920597 107.639929,8.66848726 C107.639929,9.2063913 107.832308,9.63050159 108.217073,9.94083085 C108.601837,10.2511601 109.23097,10.4787315 110.104489,10.6235518 L114.472064,11.3683383 C116.510276,11.7200448 118.05971,12.4182751 119.120412,13.4630503 C120.181114,14.5078255 120.711457,15.8577375 120.711457,17.5128269 C120.711457,19.6023772 119.869148,21.3091625 118.184503,22.633234 C116.499858,23.9573055 114.232902,24.6193313 111.383565,24.6193313 C109.657324,24.6193313 108.009101,24.3348671 106.438846,23.7659302 C104.868591,23.1969932 103.365952,22.3849771 101.930884,21.3298577 Z M128.666683,8.29609401 L128.666683,17.636958 C128.666683,18.5265685 128.911057,19.2454872 129.399812,19.7937355 C129.888567,20.3419839 130.538497,20.6161039 131.349622,20.6161039 C131.890372,20.6161039 132.384319,20.5074903 132.831478,20.2902598 C133.278637,20.0730294 133.678994,19.7368444 134.032561,19.2816948 L134.032561,8.29609401 L139.08647,8.29609401 L139.08647,24.3090036 L134.032561,24.3090036 L134.032561,21.7022509 C133.408619,22.6332387 132.665099,23.3418132 131.801978,23.8279957 C130.938858,24.3141782 129.98736,24.5572658 128.947456,24.5572658 C127.3876,24.5572658 126.108537,24.0452302 125.110229,23.0211437 C124.111921,21.9970571 123.612775,20.6885217 123.612775,19.0954982 L123.612775,8.29609401 L128.666683,8.29609401 Z M143.017287,30.9810493 L143.017287,8.29609401 L148.008802,8.29609401 L148.008802,10.5304535 C148.528754,9.82704051 149.21508,9.26328415 150.067801,8.83916749 C150.920523,8.41505084 151.825226,8.2029957 152.781937,8.2029957 C153.759447,8.2029957 154.684948,8.41505084 155.558467,8.83916749 C156.431987,9.26328415 157.185906,9.84255674 157.820247,10.5770026 C158.454589,11.3114486 158.958935,12.1751854 159.3333,13.168239 C159.707666,14.1612926 159.894845,15.2163963 159.894845,16.3335816 C159.894845,17.4507669 159.702466,18.5006985 159.317702,19.4834078 C158.932937,20.4661171 158.402594,21.3195098 157.726656,22.0436114 C157.050719,22.767713 156.255204,23.3418135 155.340089,23.7659302 C154.424973,24.1900468 153.447478,24.402102 152.407574,24.402102 C151.534054,24.402102 150.722941,24.2417676 149.974211,23.921094 C149.22548,23.6004204 148.591148,23.1401056 148.071196,22.5401357 L148.071196,30.9810493 L143.017287,30.9810493 Z M151.097301,12.361387 C150.473359,12.361387 149.911819,12.4700006 149.412665,12.687231 C148.913511,12.9044615 148.466359,13.2303024 148.071196,13.6647633 L148.071196,19.0023999 C148.466359,19.3954836 148.92391,19.7058082 149.443862,19.933383 C149.963814,20.1609578 150.514955,20.2747435 151.097301,20.2747435 C152.1996,20.2747435 153.114701,19.8971819 153.842634,19.1420473 C154.570567,18.3869128 154.934528,17.4404228 154.934528,16.3025488 C154.934528,15.1853635 154.565368,14.2492176 153.827036,13.4940831 C153.088704,12.7389486 152.178801,12.361387 151.097301,12.361387 Z M163.108133,30.9810493 L163.108133,8.29609401 L168.099647,8.29609401 L168.099647,10.5304535 C168.619599,9.82704051 169.305926,9.26328415 170.158647,8.83916749 C171.011368,8.41505084 171.916071,8.2029957 172.872783,8.2029957 C173.850293,8.2029957 174.775793,8.41505084 175.649313,8.83916749 C176.522832,9.26328415 177.276751,9.84255674 177.911093,10.5770026 C178.545434,11.3114486 179.04978,12.1751854 179.424146,13.168239 C179.798511,14.1612926 179.985691,15.2163963 179.985691,16.3335816 C179.985691,17.4507669 179.793312,18.5006985 179.408547,19.4834078 C179.023783,20.4661171 178.49344,21.3195098 177.817502,22.0436114 C177.141564,22.767713 176.34605,23.3418135 175.430934,23.7659302 C174.515819,24.1900468 173.538323,24.402102 172.498419,24.402102 C171.6249,24.402102 170.813787,24.2417676 170.065056,23.921094 C169.316325,23.6004204 168.681993,23.1401056 168.162041,22.5401357 L168.162041,30.9810493 L163.108133,30.9810493 Z M171.188147,12.361387 C170.564204,12.361387 170.002665,12.4700006 169.503511,12.687231 C169.004357,12.9044615 168.557205,13.2303024 168.162041,13.6647633 L168.162041,19.0023999 C168.557205,19.3954836 169.014756,19.7058082 169.534708,19.933383 C170.05466,20.1609578 170.605801,20.2747435 171.188147,20.2747435 C172.290445,20.2747435 173.205547,19.8971819 173.93348,19.1420473 C174.661413,18.3869128 175.025374,17.4404228 175.025374,16.3025488 C175.025374,15.1853635 174.656213,14.2492176 173.917881,13.4940831 C173.179549,12.7389486 172.269647,12.361387 171.188147,12.361387 Z M182.481448,16.3335816 C182.481448,15.1543304 182.694625,14.0578502 183.120986,13.0441079 C183.547347,12.0303657 184.134884,11.1562847 184.883615,10.4218388 C185.632345,9.68739289 186.52145,9.10812029 187.550955,8.68400364 C188.58046,8.25988699 189.687941,8.04783184 190.873432,8.04783184 C192.058922,8.04783184 193.171603,8.25988699 194.211507,8.68400364 C195.251411,9.10812029 196.145715,9.68739289 196.894446,10.4218388 C197.643177,11.1562847 198.230714,12.0303657 198.657075,13.0441079 C199.083435,14.0578502 199.296612,15.1543304 199.296612,16.3335816 C199.296612,17.5128328 199.078236,18.609313 198.641476,19.6230553 C198.204716,20.6367975 197.61198,21.5108785 196.863249,22.2453244 C196.114518,22.9797703 195.225414,23.5590429 194.195909,23.9831595 C193.166404,24.4072762 192.058922,24.6193313 190.873432,24.6193313 C189.687941,24.6193313 188.58046,24.4072762 187.550955,23.9831595 C186.52145,23.5590429 185.632345,22.9745982 184.883615,22.229808 C184.134884,21.4850178 183.547347,20.6057648 183.120986,19.5920225 C182.694625,18.5782803 182.481448,17.4921442 182.481448,16.3335816 Z M190.873432,20.3678418 C191.892538,20.3678418 192.729648,19.9902802 193.384788,19.2351456 C194.039927,18.4800111 194.367492,17.5128328 194.367492,16.3335816 C194.367492,15.1543304 194.039927,14.1768079 193.384788,13.4009848 C192.729648,12.6251616 191.892538,12.2372559 190.873432,12.2372559 C189.854326,12.2372559 189.022415,12.6251616 188.377675,13.4009848 C187.732934,14.1768079 187.410569,15.1543304 187.410569,16.3335816 C187.410569,17.5128328 187.732934,18.4800111 188.377675,19.2351456 C189.022415,19.9902802 189.854326,20.3678418 190.873432,20.3678418 Z M202.5099,24.3090036 L202.5099,8.29609401 L207.563808,8.29609401 L207.563808,11.9269282 C208.08376,10.6028567 208.702494,9.61499002 209.420028,8.96329858 C210.137561,8.31160714 210.974672,7.9857663 211.931383,7.9857663 C212.284951,8.00645492 212.576119,8.04265946 212.804898,8.094381 C213.033677,8.14610254 213.304048,8.244372 213.616019,8.38919232 L213.616019,12.7027474 C213.304048,12.5579271 212.940087,12.4389693 212.524126,12.3458706 C212.108164,12.2527718 211.68181,12.2062231 211.24505,12.2062231 C210.496319,12.2062231 209.794394,12.3872458 209.139255,12.7492966 C208.484115,13.1113474 207.958972,13.5923505 207.563808,14.1923204 L207.563808,24.3090036 L202.5099,24.3090036 Z M218.420352,19.3747931 L218.420352,12.1751903 L215.300656,12.1751903 L215.300656,8.29609401 L218.420352,8.29609401 L218.420352,3.85840781 L223.47426,2.83432638 L223.47426,8.29609401 L227.779442,8.29609401 L227.779442,12.1751903 L223.47426,12.1751903 L223.47426,18.3817445 C223.47426,19.0851574 223.635443,19.5816768 223.957813,19.8713174 C224.280184,20.1609581 224.826125,20.3057762 225.595654,20.3057762 C225.886827,20.3057762 226.177996,20.2850879 226.469169,20.2437107 C226.760342,20.2023335 227.1555,20.1092361 227.654654,19.9644158 L227.654654,24.0297087 C227.197096,24.174529 226.635556,24.2934868 225.970018,24.3865856 C225.304479,24.4796843 224.711743,24.526233 224.191791,24.526233 C222.299165,24.526233 220.864119,24.0917786 219.886609,23.2228567 C218.9091,22.3539347 218.420352,21.0712597 218.420352,19.3747931 Z" id="FamilySupport" fill="#15152A"></path>
                    <g id="NYC-logo" transform="translate(266.997188, 13.309004) scale(-1, 1) rotate(-180.000000) translate(-266.997188, -13.309004) translate(234.497188, 2.309004)" fill="#53B948" fill-rule="nonzero">
                        <path d="M64.091505,20.8458805 C64.2180053,20.8458805 64.3297962,20.8576795 64.3297962,21.0071335 C64.3297962,21.1320063 64.2072184,21.146755 64.1062143,21.146755 L63.9022449,21.146755 L63.9022449,20.8458805 L64.091505,20.8458805 Z M63.9022449,20.2618301 L63.7345585,20.2618301 L63.7345585,21.2903095 L64.1238655,21.2903095 C64.3719629,21.2903095 64.4974826,21.2037835 64.4974826,20.9943513 C64.4974826,20.808517 64.3837304,20.7308403 64.2297727,20.7141251 L64.5180757,20.2618301 L64.3268543,20.2618301 L64.0611057,20.7013428 L63.9022449,20.7013428 L63.9022449,20.2618301 Z M64.0866019,21.5616864 C63.6845468,21.5616864 63.3727089,21.2460632 63.3727089,20.7937683 C63.3727089,20.3709708 63.6443413,20.0248669 64.0866019,20.0248669 C64.4827733,20.0248669 64.7955917,20.3385236 64.7955917,20.7937683 C64.7955917,21.2460632 64.4827733,21.5616864 64.0866019,21.5616864 L64.0866019,21.5616864 Z M64.0866019,19.8636139 C63.5531434,19.8636139 63.1736426,20.2637966 63.1736426,20.7937683 C63.1736426,21.3522542 63.5953102,21.7229394 64.0866019,21.7229394 C64.5720099,21.7229394 64.9936774,21.3522542 64.9936774,20.7937683 C64.9936774,20.2342991 64.5720099,19.8636139 64.0866019,19.8636139 L64.0866019,19.8636139 Z M63.6394382,12.2365447 L64.9936774,13.5767142 L64.9936774,17.6503185 L60.9319403,21.7229394 L47.3915091,21.7229394 L43.3287914,17.6503185 L43.3287914,20.3650714 L41.9755328,21.7229394 L36.5585758,21.7229394 L35.2053172,20.3650714 L35.2053172,17.6503185 L32.4968387,14.9345823 L29.7883602,17.6503185 L29.7883602,20.3650714 L28.4351016,21.7229394 L23.0181446,21.7229394 L21.664886,20.3650714 L20.3106468,21.7229394 L14.8946704,21.7229394 L13.5404312,20.3650714 L13.5404312,14.9345823 L6.77021559,21.7229394 L1.35423924,21.7229394 L0,20.3650714 L0,1.35786807 L1.35423924,0 L6.77021559,0 L8.12445483,1.35786807 L8.12445483,6.78835712 L14.8946704,0 L20.3106468,0 L21.664886,1.35786807 L21.664886,12.2198294 L28.4351016,5.43147229 L28.4351016,1.35786807 L29.7883602,0 L35.2053172,0 L36.5585758,1.35786807 L36.5585758,5.43147229 L43.3287914,12.2198294 L43.3287914,4.07360422 L47.3915091,0 L60.9319403,0 L64.9936774,4.07360422 L64.9936774,8.14622519 L63.6394382,9.50605976 L56.8692226,9.50605976 L56.8692226,8.14622519 L51.4532462,8.14622519 L51.4532462,13.5767142 L56.8692226,13.5767142 L56.8692226,12.2365447 L63.6394382,12.2365447 Z" id="Shape"></path>
                    </g>
                </g>
            </g>
        </g>
    </g>
</svg>