<?xml version="1.0" encoding="UTF-8"?>
<svg width="350px" height="38px" viewBox="0 0 350 38" version="1.1" xmlns="http://www.w3.org/2000/svg" xmlns:xlink="http://www.w3.org/1999/xlink">
    <!-- Generator: Sketch 61 (89581) - https://sketch.com -->
    <title>header-logo</title>
    <desc>Created with Sketch.</desc>
    <g id="Symbols" stroke="none" stroke-width="1" fill="none" fill-rule="evenodd">
        <g id="Header-Build" transform="translate(-50.000000, -40.000000)">
            <g id="Header">
                <g id="header-logo" transform="translate(50.000000, 40.000000)">
                    <g id="NYC-logo" transform="translate(312.277778, 15.777778) scale(-1, 1) rotate(-180.000000) translate(-312.277778, -15.777778) translate(273.777778, 2.777778)" fill="#53B948" fill-rule="nonzero">
                        <path d="M74.9696055,24.8593565 C75.1175764,24.8593565 75.2483413,24.8734272 75.2483413,25.0516557 C75.2483413,25.2005703 75.1049587,25.2181586 74.9868114,25.2181586 L74.7482228,25.2181586 L74.7482228,24.8593565 L74.9696055,24.8593565 Z M74.7482228,24.1628584 L74.5520754,24.1628584 L74.5520754,25.3893518 L75.0074585,25.3893518 C75.2976649,25.3893518 75.4444887,25.2861669 75.4444887,25.0364125 C75.4444887,24.8147994 75.3114297,24.7221675 75.1313411,24.702234 L75.468577,24.1628584 L75.2449001,24.1628584 L74.9340466,24.6869908 L74.7482228,24.6869908 L74.7482228,24.1628584 Z M74.9638702,25.7129772 C74.4935753,25.7129772 74.1288099,25.3365868 74.1288099,24.7972111 C74.1288099,24.2930121 74.4465458,23.8802724 74.9638702,23.8802724 C75.4272828,23.8802724 75.7931952,24.2543177 75.7931952,24.7972111 C75.7931952,25.3365868 75.4272828,25.7129772 74.9638702,25.7129772 L74.9638702,25.7129772 Z M74.9638702,23.6879732 C74.3398691,23.6879732 73.8959565,24.1652035 73.8959565,24.7972111 C73.8959565,25.4632228 74.3891927,25.9052763 74.9638702,25.9052763 C75.5316654,25.9052763 76.0249015,25.4632228 76.0249015,24.7972111 C76.0249015,24.1300268 75.5316654,23.6879732 74.9638702,23.6879732 L74.9638702,23.6879732 Z M74.4408105,14.5924575 L76.0249015,16.1906511 L76.0249015,21.04855 L71.2737753,25.9052763 L55.4351586,25.9052763 L50.6828853,21.04855 L50.6828853,24.2859767 L49.0999413,25.9052763 L42.763577,25.9052763 L41.1806329,24.2859767 L41.1806329,21.04855 L38.0124508,17.8099508 L34.8442686,21.04855 L34.8442686,24.2859767 L33.2613246,25.9052763 L26.9249602,25.9052763 L25.3420162,24.2859767 L23.7579251,25.9052763 L17.4227078,25.9052763 L15.8386167,24.2859767 L15.8386167,17.8099508 L7.91930837,25.9052763 L1.58409109,25.9052763 L0,24.2859767 L0,1.61929963 L1.58409109,0 L7.91930837,0 L9.50339946,1.61929963 L9.50339946,8.09532557 L17.4227078,0 L23.7579251,0 L25.3420162,1.61929963 L25.3420162,14.5725241 L33.2613246,6.4771985 L33.2613246,1.61929963 L34.8442686,0 L41.1806329,0 L42.763577,1.61929963 L42.763577,6.4771985 L50.6828853,14.5725241 L50.6828853,4.85789888 L55.4351586,0 L71.2737753,0 L76.0249015,4.85789888 L76.0249015,9.7146252 L74.4408105,11.3362699 L66.5215021,11.3362699 L66.5215021,9.7146252 L60.1862848,9.7146252 L60.1862848,16.1906511 L66.5215021,16.1906511 L66.5215021,14.5924575 L74.4408105,14.5924575 Z" id="Shape"></path>
                    </g>
                    <path d="M0,29.2383656 L0,3.59819639 L19.3801514,3.59819639 L19.3801514,8.87274549 L6.25400757,8.87274549 L6.25400757,13.9275217 L15.4168559,13.9275217 L15.4168559,19.0555556 L6.25400757,19.0555556 L6.25400757,29.2383656 L0,29.2383656 Z M29.1611283,29.5313961 C27.2703724,29.5313961 25.7190062,29.0002836 24.5069831,27.9380428 C23.2949601,26.8758019 22.6889577,25.5022351 22.6889577,23.8173013 C22.6889577,22.0835288 23.3313203,20.734381 24.6160647,19.7698174 C25.9008091,18.8052538 27.6945763,18.3229793 29.99742,18.3229793 C30.6761529,18.3229793 31.3669957,18.3901314 32.069969,18.5244378 C32.7729424,18.6587441 33.5365055,18.8846195 34.3606811,19.2020708 L34.3606811,17.6636607 C34.3606811,16.7601454 34.0516199,16.0764144 33.4334881,15.6124471 C32.8153564,15.1484798 31.8881727,14.9164997 30.6519092,14.9164997 C29.9489358,14.9164997 29.1671927,15.0202803 28.3066563,15.2278446 C27.44612,15.4354089 26.4704561,15.7711697 25.3796354,16.2351369 L23.3434469,12.0960811 C24.8705959,11.4123398 26.3431818,10.8995415 27.7612487,10.5576709 C29.1793157,10.2158003 30.5791813,10.0448675 31.9608875,10.0448675 C34.5546168,10.0448675 36.5726049,10.6675511 38.0149123,11.912937 C39.4572197,13.1583229 40.1783626,14.9042788 40.1783626,17.1508573 L40.1783626,29.2383656 L34.3606811,29.2383656 L34.3606811,27.590069 C33.5365055,28.2738103 32.7123422,28.7682943 31.8881665,29.073536 C31.0639908,29.3787776 30.1549872,29.5313961 29.1611283,29.5313961 Z M28.1066735,23.7074148 C28.1066735,24.3178981 28.3611946,24.7879632 28.8702442,25.1176241 C29.3792939,25.4472851 30.0822567,25.6121131 30.9791538,25.6121131 C31.5851653,25.6121131 32.1729876,25.5327515 32.7426385,25.3740258 C33.3122893,25.2153002 33.8516314,24.9772153 34.3606811,24.659764 L34.3606811,22.2422623 C33.827391,22.1201656 33.2880488,22.0224898 32.7426385,21.9492318 C32.1972281,21.8759738 31.6578859,21.8393454 31.1245958,21.8393454 C30.1549774,21.8393454 29.4095944,21.9980686 28.8884245,22.3155199 C28.3672546,22.6329712 28.1066735,23.0969316 28.1066735,23.7074148 Z M44.6143447,29.2383656 L44.6143447,10.337898 L50.5047472,10.337898 L50.5047472,13.3414607 C51.1834801,12.2670101 51.9955233,11.4489748 52.9409013,10.8873302 C53.8862792,10.3256856 54.9286034,10.0448675 56.0679051,10.0448675 C57.2799281,10.0448675 58.3464924,10.3623141 59.2676299,10.9972167 C60.1887674,11.6321193 60.8796101,12.486783 61.3401789,13.5612336 C62.0673927,12.4379444 62.9521562,11.5710711 63.994496,10.9605878 C65.0368359,10.3501046 66.2003605,10.0448675 67.4851049,10.0448675 C69.2061776,10.0448675 70.6181633,10.6675511 71.7211042,11.912937 C72.8240452,13.1583229 73.3755074,14.7455556 73.3755074,16.6746827 L73.3755074,29.2383656 L67.4851049,29.2383656 L67.4851049,17.8468047 C67.4851049,16.8944508 67.2245239,16.1313582 66.703354,15.5575039 C66.1821841,14.9836496 65.5095214,14.6967268 64.6853457,14.6967268 C64.1520556,14.6967268 63.6611936,14.8127169 63.2127451,15.0447005 C62.7642966,15.2766842 62.3461549,15.6490734 61.9583075,16.1618793 L61.9583075,29.2383656 L56.0679051,29.2383656 L56.0679051,17.8468047 C56.0679051,16.8944508 55.807324,16.1313582 55.2861541,15.5575039 C54.7649842,14.9836496 54.0923215,14.6967268 53.2681459,14.6967268 C52.7348557,14.6967268 52.2379337,14.8188216 51.777365,15.0630149 C51.3167962,15.3072082 50.8925945,15.6734927 50.5047472,16.1618793 L50.5047472,29.2383656 L44.6143447,29.2383656 Z M80.7566907,7.40759296 C79.8355532,7.40759296 79.0538101,7.08404168 78.4114379,6.43692941 C77.7690657,5.78981715 77.4478844,5.01451502 77.4478844,4.11099978 C77.4478844,3.20748453 77.7751257,2.42607767 78.4296182,1.76675573 C79.0841106,1.1074338 79.8597937,0.777777778 80.7566907,0.777777778 C81.6535878,0.777777778 82.4353309,1.1074338 83.1019436,1.76675573 C83.7685563,2.42607767 84.1018576,3.20748453 84.1018576,4.11099978 C84.1018576,5.01451502 83.7806763,5.78981715 83.1383041,6.43692941 C82.4959319,7.08404168 81.7020687,7.40759296 80.7566907,7.40759296 Z M83.701892,10.337898 L83.701892,29.2383656 L77.8114895,29.2383656 L77.8114895,10.337898 L83.701892,10.337898 Z M94.1737186,2.13304387 L94.1737186,29.2383656 L88.2833161,29.2383656 L88.2833161,3.0487642 L94.1737186,2.13304387 Z M103.154764,30.3006012 L103.445648,29.6046538 L96.5371517,10.337898 L103.045683,10.337898 L106.790815,22.5352928 L111.081355,10.337898 L117.444444,10.337898 L109.008806,31.4360944 C108.13615,33.5849955 107.087766,35.1050761 105.863622,35.9963817 C104.639479,36.8876872 102.948732,37.3333333 100.791331,37.3333333 C100.451965,37.3333333 100.058063,37.3089144 99.6096147,37.2600757 C99.1611662,37.211237 98.7430245,37.1379802 98.3551772,37.0403028 L98.3551772,32.0587842 C98.9611887,32.1320422 99.3611503,32.1747754 99.555074,32.1869851 C99.7489976,32.1991947 99.9307984,32.2052995 100.100482,32.2052995 C100.900417,32.2052995 101.548839,32.0465762 102.045769,31.7291249 C102.542698,31.4116736 102.91236,30.9355038 103.154764,30.3006012 Z" id="Family" fill="#15152A"></path>
                    <path d="M119,25.310991 L122.189776,20.7191592 C123.929662,21.9484746 125.427875,22.8162137 126.68446,23.3224024 C127.941044,23.8285911 129.185528,24.0816817 130.417947,24.0816817 C131.747027,24.0816817 132.798193,23.8346171 133.571476,23.3404805 C134.344759,22.8463439 134.731394,22.2136175 134.731394,21.4422823 C134.731394,20.6950513 134.483706,20.1286105 133.988321,19.7429429 C133.492937,19.3572753 132.629048,19.0439251 131.396629,18.8028829 L125.995758,17.8628228 C123.990056,17.4771552 122.449555,16.6937797 121.374208,15.5126727 C120.298862,14.3315657 119.761196,12.86123 119.761196,11.1016216 C119.761196,8.66709493 120.655291,6.72673396 122.443508,5.28048048 C124.231725,3.834227 126.696527,3.11111111 129.837988,3.11111111 C131.79536,3.11111111 133.692291,3.40638343 135.528838,3.99693694 C137.365385,4.58749044 138.936092,5.40099582 140.241007,6.43747748 L137.087479,10.956997 C135.855059,10.0169322 134.616617,9.31792021 133.372115,8.85993994 C132.127613,8.40195967 130.840841,8.17297297 129.511761,8.17297297 C128.279342,8.17297297 127.324835,8.40195967 126.648212,8.85993994 C125.97159,9.31792021 125.633284,9.88436099 125.633284,10.5592793 C125.633284,11.1859891 125.856807,11.6801183 126.303862,12.0416817 C126.750916,12.4032451 127.481899,12.6683875 128.496832,12.8371171 L133.571476,13.7048649 C135.939655,14.1146367 137.739927,14.9281421 138.972346,16.1454054 C140.204766,17.3626687 140.820966,18.9354458 140.820966,20.8637838 C140.820966,23.2983105 139.842295,25.2868792 137.884923,26.8295495 C135.92755,28.3722199 133.293595,29.1435435 129.982978,29.1435435 C127.977276,29.1435435 126.062221,28.8121154 124.237757,28.1492492 C122.413293,27.4863831 120.667391,26.5403064 119,25.310991 Z M150.064067,10.1254054 L150.064067,21.0084084 C150.064067,22.0448901 150.348002,22.8824993 150.915882,23.5212613 C151.483761,24.1600232 152.238909,24.4793994 153.181347,24.4793994 C153.80964,24.4793994 154.383552,24.3528541 154.903101,24.0997598 C155.422651,23.8466654 155.887822,23.4549776 156.298628,22.9246847 L156.298628,10.1254054 L162.170716,10.1254054 L162.170716,28.781982 L156.298628,28.781982 L156.298628,25.7448649 C155.573676,26.829555 154.709787,27.6551123 153.706935,28.2215616 C152.704084,28.7880108 151.598548,29.0712312 150.390294,29.0712312 C148.577912,29.0712312 147.091781,28.4746606 145.931857,27.2815015 C144.771933,26.0883424 144.191979,24.563773 144.191979,22.7077477 L144.191979,10.1254054 L150.064067,10.1254054 Z M166.737895,36.5555556 L166.737895,10.1254054 L172.537487,10.1254054 L172.537487,12.7286486 C173.141614,11.909105 173.93905,11.2522747 174.929819,10.7581381 C175.920587,10.2640015 176.971753,10.0169369 178.083347,10.0169369 C179.219106,10.0169369 180.294437,10.2640015 181.30937,10.7581381 C182.324304,11.2522747 183.200275,11.9271829 183.937311,12.7828829 C184.674346,13.6385829 185.26034,14.6449191 185.695312,15.8019219 C186.130284,16.9589247 186.347766,18.1882217 186.347766,19.4898498 C186.347766,20.791478 186.124242,22.014749 185.677188,23.1596997 C185.230134,24.3046504 184.613934,25.2989347 183.828568,26.1425826 C183.043203,26.9862304 182.118902,27.6551126 181.055638,28.1492492 C179.992374,28.6433859 178.856632,28.8904505 177.648378,28.8904505 C176.633444,28.8904505 175.69102,28.7036455 174.821076,28.33003 C173.951133,27.9564145 173.214109,27.4201036 172.609982,26.7210811 L172.609982,36.5555556 L166.737895,36.5555556 Z M176.125985,14.8618619 C175.401032,14.8618619 174.748584,14.9884071 174.168622,15.2415015 C173.58866,15.4945959 173.069119,15.8742317 172.609982,16.3804204 L172.609982,22.5992793 C173.069119,23.0572595 173.600742,23.4188175 174.20487,23.683964 C174.808997,23.9491104 175.449362,24.0816817 176.125985,24.0816817 C177.406734,24.0816817 178.469982,23.6417862 179.31576,22.761982 C180.161539,21.8821778 180.584421,20.779426 180.584421,19.4536937 C180.584421,18.1520656 180.155497,17.0613658 179.297637,16.1815616 C178.439776,15.3017574 177.382569,14.8618619 176.125985,14.8618619 Z M190.081254,36.5555556 L190.081254,10.1254054 L195.880846,10.1254054 L195.880846,12.7286486 C196.484973,11.909105 197.282409,11.2522747 198.273178,10.7581381 C199.263947,10.2640015 200.315112,10.0169369 201.426706,10.0169369 C202.562466,10.0169369 203.637796,10.2640015 204.65273,10.7581381 C205.667663,11.2522747 206.543635,11.9271829 207.28067,12.7828829 C208.017705,13.6385829 208.6037,14.6449191 209.038671,15.8019219 C209.473643,16.9589247 209.691125,18.1882217 209.691125,19.4898498 C209.691125,20.791478 209.467602,22.014749 209.020548,23.1596997 C208.573493,24.3046504 207.957293,25.2989347 207.171928,26.1425826 C206.386562,26.9862304 205.462261,27.6551126 204.398997,28.1492492 C203.335733,28.6433859 202.199991,28.8904505 200.991737,28.8904505 C199.976803,28.8904505 199.034379,28.7036455 198.164436,28.33003 C197.294492,27.9564145 196.557468,27.4201036 195.953341,26.7210811 L195.953341,36.5555556 L190.081254,36.5555556 Z M199.469344,14.8618619 C198.744391,14.8618619 198.091944,14.9884071 197.511981,15.2415015 C196.932019,15.4945959 196.412478,15.8742317 195.953341,16.3804204 L195.953341,22.5992793 C196.412478,23.0572595 196.944102,23.4188175 197.548229,23.683964 C198.152356,23.9491104 198.792721,24.0816817 199.469344,24.0816817 C200.750094,24.0816817 201.813342,23.6417862 202.65912,22.761982 C203.504898,21.8821778 203.927781,20.779426 203.927781,19.4536937 C203.927781,18.1520656 203.498857,17.0613658 202.640996,16.1815616 C201.783135,15.3017574 200.725929,14.8618619 199.469344,14.8618619 Z M212.590922,19.4898498 C212.590922,18.115909 212.83861,16.8384043 213.333994,15.6572973 C213.829379,14.4761903 214.512032,13.4578021 215.381975,12.6021021 C216.251919,11.7464021 217.284961,11.071494 218.481133,10.5773574 C219.677304,10.0832208 220.964076,9.83615616 222.341486,9.83615616 C223.718896,9.83615616 225.011709,10.0832208 226.219964,10.5773574 C227.428218,11.071494 228.467301,11.7464021 229.337245,12.6021021 C230.207188,13.4578021 230.889841,14.4761903 231.385226,15.6572973 C231.88061,16.8384043 232.128298,18.115909 232.128298,19.4898498 C232.128298,20.8637907 231.874569,22.1412954 231.367102,23.3224024 C230.859635,24.5035094 230.17094,25.5218976 229.300997,26.3775976 C228.431054,27.2332976 227.398012,27.9082057 226.20184,28.4023423 C225.005668,28.8964789 223.718896,29.1435435 222.341486,29.1435435 C220.964076,29.1435435 219.677304,28.8964789 218.481133,28.4023423 C217.284961,27.9082057 216.251919,27.2272716 215.381975,26.3595195 C214.512032,25.4917674 213.829379,24.4673533 213.333994,23.2862462 C212.83861,22.1051392 212.590922,20.8396864 212.590922,19.4898498 Z M222.341486,24.1901502 C223.525576,24.1901502 224.498206,23.7502546 225.259406,22.8704505 C226.020606,21.9906463 226.401201,20.8637907 226.401201,19.4898498 C226.401201,18.115909 226.020606,16.9770015 225.259406,16.0730931 C224.498206,15.1691847 223.525576,14.7172372 222.341486,14.7172372 C221.157397,14.7172372 220.190808,15.1691847 219.44169,16.0730931 C218.692572,16.9770015 218.318019,18.115909 218.318019,19.4898498 C218.318019,20.8637907 218.692572,21.9906463 219.44169,22.8704505 C220.190808,23.7502546 221.157397,24.1901502 222.341486,24.1901502 Z M235.861786,28.781982 L235.861786,10.1254054 L241.733873,10.1254054 L241.733873,14.3556757 C242.338,12.8130053 243.056901,11.6620458 243.890597,10.9027628 C244.724292,10.1434797 245.696922,9.76384384 246.808516,9.76384384 C247.219323,9.78794807 247.557629,9.83012983 247.823445,9.89039039 C248.089261,9.95065095 248.403403,10.0651443 248.765879,10.2338739 L248.765879,15.2595796 C248.403403,15.09085 247.98052,14.9522528 247.497218,14.8437838 C247.013916,14.7353148 246.518539,14.6810811 246.011073,14.6810811 C245.141129,14.6810811 244.32557,14.8919899 243.56437,15.3138138 C242.803169,15.7356377 242.19301,16.2960526 241.733873,16.9950751 L241.733873,28.781982 L235.861786,28.781982 Z M254.347987,23.0331532 L254.347987,14.6449249 L250.723241,14.6449249 L250.723241,10.1254054 L254.347987,10.1254054 L254.347987,4.95507508 L260.220074,3.76192192 L260.220074,10.1254054 L265.222222,10.1254054 L265.222222,14.6449249 L260.220074,14.6449249 L260.220074,21.8761562 C260.220074,22.6956998 260.40735,23.2741925 260.781909,23.6116517 C261.156468,23.9491108 261.790792,24.1178378 262.684901,24.1178378 C263.023212,24.1178378 263.361518,24.093734 263.699829,24.0455255 C264.03814,23.9973171 264.49727,23.8888497 265.077232,23.7201201 L265.077232,28.4565766 C264.5456,28.6253061 263.893153,28.7639034 263.11987,28.8723724 C262.346587,28.9808414 261.657892,29.0350751 261.053765,29.0350751 C258.854742,29.0350751 257.187376,28.528894 256.051617,27.5165165 C254.915858,26.5041391 254.347987,25.0096996 254.347987,23.0331532 Z" id="Support" fill="#15152A"></path>
                </g>
            </g>
        </g>
    </g>
</svg>