<?xml version="1.0" encoding="UTF-8"?>
<svg width="495px" height="397px" viewBox="0 0 495 397" version="1.1" xmlns="http://www.w3.org/2000/svg" xmlns:xlink="http://www.w3.org/1999/xlink">
    <!-- Generator: Sketch 61 (89581) - https://sketch.com -->
    <title>ACS-Illustration-04</title>
    <desc>Created with Sketch.</desc>
    <g id="02-PAGES" stroke="none" stroke-width="1" fill="none" fill-rule="evenodd">
        <g id="17-ACS-PROD-Pages-ProgramInformation-B" transform="translate(-363.000000, -387.000000)">
            <g id="Body">
                <g id="ACS-Illustration-04" transform="translate(360.000000, 387.000000)">
                    <path d="M4.69193425,377.98243 C6.43556482,323.851728 136.513747,324.536607 218.505878,310.344451 C300.49801,296.152295 411.634827,266.288929 475.833465,298.665934 C540.032103,331.042939 431.383159,389.064257 327.351793,388.252811 C223.320428,387.441365 2.94830368,432.113132 4.69193425,377.98243 Z" id="Background-Shape" fill="#F2F2F2" transform="translate(249.868914, 344.476731) scale(-1, 1) rotate(5.000000) translate(-249.868914, -344.476731) "></path>
                    <g id="List" opacity="0.252232143" transform="translate(381.502681, 21.065543)">
                        <path d="M2.03661252,8.80705407 C2.03392832,13.9840521 1.75790251,19.2683674 2.76403225,24.3832567 C3.06868959,25.9317507 3.30892599,28.8977612 5.03173864,29.7013726 C6.76215654,30.5083641 8.43978506,29.6016606 8.86970533,27.9196538 C9.37120442,25.9625939 8.27112747,23.0337642 8.15973294,20.9791048 C8.00673322,18.17238 7.99644376,15.3622752 7.99510166,12.5521704 C7.99420693,10.5228616 8.69836354,7.25813749 6.17207867,6.2141187 C4.29358209,5.43754787 2.03661252,6.88125981 2.03661252,8.80705407" id="Fill-253" fill="#C1DEE2"></path>
                        <path d="M82.8664296,0.0347750172 C66.107767,1.73259948 49.1078652,2.08549698 32.2886856,2.97086557 C24.513903,3.38001001 15.1180097,2.85795503 7.79337446,5.89529008 C6.43381339,6.45942611 1.56219109,9.59883896 5.51693868,10.8771029 C6.74966264,11.2758312 8.00186812,9.93548734 9.01407791,9.48634507 C10.6998507,8.7393023 12.6513183,8.50806486 14.4490062,8.21641403 C29.7320476,5.73946521 45.7176671,6.17069179 61.1578041,5.01325465 C65.1142097,4.7166041 69.0722733,4.41120401 73.0203889,4.01914197 C75.8410636,3.73915718 81.7696617,1.68718528 84.3727238,2.73671162 C88.8207267,4.52994757 88.7166872,16.1818148 88.8045612,20.1890972 C88.8501563,22.2614846 86.8572387,29.700664 90.8190328,28.9465382 C93.9899603,28.342821 92.8417944,20.6144907 92.5947522,18.5004389 C91.9464737,12.9590731 90.8401723,-0.780597369 82.8664296,0.0347750172" id="Fill-255" fill="#C1DEE2"></path>
                        <path d="M88.5750099,29.0067788 C73.8758211,30.2285036 58.8380223,29.0298013 44.0785617,29.5102031 C36.3420144,29.7626826 28.6134196,30.163657 20.8760351,30.3988697 C17.529698,30.500936 14.1800124,30.5051567 10.832001,30.5270281 C9.2306144,30.5370045 1.94317522,31.4306593 6.45141756,34.3529759 C8.44750035,35.6468377 14.8086801,34.6046881 17.0990062,34.5793634 C20.5390994,34.5421437 23.9775183,34.4105321 27.4151002,34.2865945 C35.3780851,33.999965 43.3360474,33.6028277 51.3032178,33.4044509 C58.9242444,33.2145157 66.5490378,33.1738427 74.1696458,32.9839074 C77.9617427,32.8891317 81.8053217,32.7820773 85.5635157,32.2725137 C86.4115056,32.1574014 89.1660078,32.066079 89.7549129,31.1954466 C90.3115894,30.3723939 89.9206602,28.8874458 88.5750099,29.0067788" id="Fill-257" fill="#89C5CC"></path>
                        <path d="M16.6868739,17.389739 C16.6074729,17.5788872 16.6074729,17.5788872 16.6868739,17.389739 M23.0759285,15.4346459 C23.3090903,15.5340645 23.3090903,15.5340645 23.0759285,15.4346459 M22.7768091,15.3803026 C26.2200424,18.9138775 20.924958,23.1315876 17.6997626,19.6831083 C14.2762746,16.0231538 20.5603013,15.3920981 22.7768091,15.3803026 M19.1252006,10.0344436 C7.26545515,12.1593067 11.4644688,28.073453 22.5411266,25.7733434 C27.4039164,24.7639913 30.185054,19.8313938 28.5113301,15.0934208 C27.8572166,13.2423803 26.4321986,11.2106169 24.4471722,10.6271642 C23.4573896,10.336491 22.5818774,10.7939853 21.6391474,10.6869839 C20.740109,10.5850376 20.2410166,9.83181492 19.1252006,10.0344436" id="Fill-259" fill="#C1DEE2"></path>
                        <path d="M63.8398154,15.1146049 C56.7992304,15.1385794 49.7569911,15.4609025 42.7176469,15.6047492 C40.5582805,15.6487024 35.0086964,14.6071457 35,18.2761244 C34.9904983,22.1963908 41.1724653,20.7486005 43.2296744,20.6957679 C50.2123564,20.5159595 57.2128229,20.1860889 64.1677942,19.4695192 C65.9243216,19.2883789 72.0061991,19.6009347 72,17.0259013 C71.9933778,14.2976978 65.2584376,15.1146049 63.8398154,15.1146049" id="Fill-261" fill="#C1DEE2"></path>
                        <path d="M81.0770805,40.0179857 C63.6361625,40.5052692 46.2217567,40.6750019 28.7949234,41.6048797 C22.2766381,41.9525097 15.7670522,42.211191 9.23923916,42.211191 C7.98197855,42.211191 5.45047292,41.7041412 4.26736376,42.5287417 C1.05606747,44.765347 4.71268671,46.685261 6.80549745,46.8060077 C21.1216982,47.6336161 35.645026,45.5740485 49.9529417,45.1091096 C58.3291557,44.8371074 66.7074409,44.7567529 75.0786839,44.3128695 C77.3624657,44.1916932 79.6466617,44.0511802 81.9267152,43.8668376 C83.2378288,43.7611306 86.7055483,44.0511802 87.7652098,43.2523619 C92.3924259,39.7640311 82.6371607,39.974156 81.0770805,40.0179857" id="Fill-263" fill="#89C5CC"></path>
                        <path d="M1.10433141,48.0554378 C0.930516614,52.6243018 0.912520638,57.1135442 1.53930734,61.6573962 C1.7859839,63.4453394 1.89922688,65.4742318 4.09693068,65.928617 C6.0927284,66.3408987 7.10489236,64.9014564 7.5183609,63.305272 C8.52745238,59.4075641 7.63950455,53.7977828 7.62765354,49.7487521 C7.62238643,47.7469561 7.6201918,45.5062951 5.02613758,45.0535774 C3.04701906,44.7079945 1.17982673,46.0719838 1.10433141,48.0554378" id="Fill-265" fill="#89C5CC"></path>
                        <path d="M87.3269334,61.0054838 C62.4933738,62.2380998 37.6922444,63.3141605 12.8408299,64.3037398 C10.9026667,64.380992 -4.15335297,64.2264877 1.11018689,69.1719917 C2.73607231,70.6992595 6.92467673,69.6649013 9.02717759,69.5678234 C12.1867591,69.4215229 15.347798,69.3097466 18.5073795,69.1583187 C31.0345679,68.5577346 43.5941866,68.3957102 56.1119011,67.7216341 C63.0005976,67.3507555 69.8736256,66.770339 76.726248,66.014567 C79.9856709,65.6553104 84.0318008,65.6925691 87.0846175,64.48935 C88.6551164,63.8703075 90.3498706,60.8543978 87.3269334,61.0054838" id="Fill-267" fill="#89C5CC"></path>
                        <path d="M87.4122925,42.9787949 C86.73573,44.7144426 87.0836056,48.1385211 87.1346448,50.2837188 C87.204742,53.235961 87.2899813,56.1898774 87.4330476,59.1257108 C87.526119,61.0328137 87.4769073,64.0011297 87.871906,65.648371 C88.3343912,67.5775755 89.3528246,67.3642612 89.7710585,65.500357 C90.1409945,63.8521111 89.9538074,60.3838294 89.9441478,58.5570961 C89.9309638,56.0311475 89.8698734,53.5011805 89.8116549,50.9802551 C89.7629653,48.8732329 89.9483249,45.4967064 89.4983711,43.6934143 C89.0412378,41.8609881 88.0463006,41.3546598 87.4122925,42.9787949" id="Fill-269" fill="#89C5CC"></path>
                        <path d="M18.5028889,53.1552564 C18.2473617,53.3500009 18.2473617,53.3500009 18.5028889,53.1552564 M23.5903174,52.5242012 C28.3373232,53.4693337 20.6614212,58.9557428 18.235594,55.1901295 C17.8569263,54.6017524 17.6598173,53.8787116 18.2679552,53.3674036 C18.8231385,52.9004311 19.1719667,53.7270594 19.6964698,53.5049678 C20.5996407,53.1221084 22.6266269,52.4885671 23.5903174,52.5242012 M22.935529,48.0198018 C19.6947887,48.2737983 15.2386133,48.4718577 13.6344237,51.6880428 C11.4792537,56.0076421 15.1650651,60.2381562 19.4287547,60.8953154 C23.5318992,61.528028 29.6582474,59.2781071 29.9864821,54.5408429 C30.2512554,50.7213641 26.5814144,47.7268563 22.935529,48.0198018" id="Fill-271" fill="#89C5CC"></path>
                        <path d="M50.3440079,50.2379289 C47.0290041,50.2894892 40.5131923,49.3422186 37.6250736,50.9038162 C34.7672687,52.4490264 36.0416952,55.2005078 38.6486843,55.8588009 C40.3720046,56.2936661 43.1882837,55.5918065 44.9826131,55.521061 C47.3425238,55.4283324 49.7045108,55.4083477 52.0660825,55.3767721 C56.037609,55.3252118 60.0074746,55.3687782 63.9794164,55.3687782 C68.0360709,55.3687782 72.1620734,55.4758957 76.2116685,55.1877176 C81.3355358,54.8231983 81.1976701,51.1152534 76.186753,50.6516104 C67.673966,49.8642167 58.884202,50.108029 50.3440079,50.2379289" id="Fill-273" fill="#89C5CC"></path>
                        <path d="M41,93 C41,95.25 43.0144032,93 42.9999223,93 C43.0144032,93 41,90.75 41,93" id="Fill-275" fill="#89C5CC"></path>
                        <path d="M5.00041612,78.6038067 C5.11189936,84.0196238 5.18518515,89.4405135 5.42725035,94.8521034 C5.5040894,96.5632514 4.99108884,99.9048089 7.16168081,100.777291 C9.57744706,101.748266 10.3285154,99.3278037 10.6070014,97.6876718 C11.4882076,92.4916661 10.6243235,86.5588693 10.5394897,81.3011474 C10.5110637,79.535892 10.9108044,77.0782304 8.81260987,76.198139 C7.10127555,75.4799472 4.96577193,76.8131884 5.00041612,78.6038067" id="Fill-277" fill="#89C5CC"></path>
                        <path d="M92.2254813,78.4302508 C92.3588638,78.7453338 92.3588638,78.7453338 92.2254813,78.4302508 M92.4139566,78.3761539 C92.522071,78.4215788 92.9599136,78.6053428 92.4139566,78.3761539 M49.7149786,74.1000265 C41.6005987,74.227216 33.4812481,74.323847 25.3722532,74.6715534 C21.9113494,74.8202164 18.4106794,74.9399728 14.9617883,75.2666185 C12.5190655,75.4978722 6.45057473,75.5940902 4.86613943,77.5923693 C1.59661059,81.716943 8.53001661,80.5920593 10.023321,80.2571544 C12.7410935,79.647223 15.5152016,79.4518963 18.291795,79.305298 C24.3163772,78.9873242 30.3434448,78.8171876 36.3754832,78.6957795 C52.733069,78.3662431 69.1026674,78.4162104 85.4635671,78.3422918 C87.0475881,78.3352716 89.9103417,77.6976723 91.3734072,78.3389882 C92.8389581,78.9819559 92.7561118,80.5623267 92.9085489,82.3974894 C93.1111081,84.838867 91.5022332,89.4916074 92.727944,91.5452223 C94.6296806,94.730741 97.3946755,92.0258995 97.8176059,89.7034523 C98.401258,86.4943952 97.4758649,82.6411316 96.5695265,79.5737174 C95.2912082,75.2459709 93.5162265,75.0737695 89.3341457,74.7355611 C84.4482858,74.3403651 79.5798235,74.1008525 74.6778085,74.0554276 C66.3587983,73.9790313 58.0335746,73.9707723 49.7149786,74.1000265" id="Fill-279" fill="#89C5CC"></path>
                        <path d="M82.0010022,96.5197027 C64.2812828,98.5551294 46.0573353,97.3558136 28.2429428,97.427715 C23.9109183,97.4453822 19.5751402,97.4794841 15.2472863,97.6873819 C12.9613687,97.7966721 7.54289732,97.1733894 5.97682896,98.9175126 C2.67578208,102.594757 8.62225415,103.129704 10.7930626,102.977273 C15.1822246,102.668713 19.5818132,102.527786 23.9822359,102.494095 C39.4819335,102.375766 55.0692141,103.091082 70.5563998,102.334679 C77.0446356,102.017902 83.3881509,100.92007 89.7562728,99.6932263 C91.167194,99.4212335 100.825102,97.6052088 95.3177965,95.4284445 C92.0630435,94.1420252 85.4200776,96.1248612 82.0010022,96.5197027" id="Fill-281" fill="#89C5CC"></path>
                        <path d="M30.1319871,89.7396715 C30.0118731,89.8951318 30.0118731,89.8951318 30.1319871,89.7396715 M30.0163368,89.7128118 C29.975352,89.8243201 29.8487453,90.0998349 30.0163368,89.7128118 M28.9288181,88.3002388 C28.9539771,88.332796 29.0566421,88.4650594 28.9288181,88.3002388 M28.8870217,88.2896578 C29.3021454,88.788596 29.5817351,89.3453231 29.725385,89.9594322 C26.1532106,90.9337047 24.7767691,88.0239101 28.8870217,88.2896578 M28.6609963,88.1533247 C28.6622137,88.1541386 29.1645824,88.366981 28.6609963,88.1533247 M22.792859,83.8179342 C20.4810701,86.7171478 18.5726371,90.0957652 21.4549675,93.4072336 C24.0321434,96.3678987 29.2173352,96.7500382 32.4880072,94.7734127 C35.8572862,92.7365564 35.5663344,88.4487808 33.2159954,85.6500874 C31.7028024,83.8480496 30.4760975,83.8981062 28.2803648,83.603871 C26.7854324,83.4036446 24.0613603,82.2332153 22.792859,83.8179342" id="Fill-284" fill="#89C5CC"></path>
                        <path d="M47,88.476192 C47,92.2913161 64.0770382,90.649196 67.115012,90.6451741 C69.6598436,90.6415544 85.0477232,91.9957104 83.943386,88.0695832 C83.0358033,84.8436597 67.8785871,86.4471701 64.6505568,86.4423439 C61.8604099,86.4387242 47,84.5906855 47,88.476192" id="Fill-286" fill="#89C5CC"></path>
                    </g>
                    <path d="M37.2442535,128.552406 C37.5100425,122.853812 37.8754358,117.163181 38.0679863,111.461137 C38.1633295,108.635595 38.2381659,105.809787 38.310339,102.983713 C38.3263183,102.354429 38.3428303,101.72541 38.3569453,101.096126 C38.4038179,98.9582573 38.1494808,98.7833528 40.307485,98.5935855 C49.9347457,97.7464005 59.6000904,97.4655979 69.2390692,96.6990971 C80.8637422,95.7746781 92.5491365,95.1363698 104.206833,94.8502591 C109.387322,94.7228628 114.589649,94.4590465 119.770936,94.6196188 C120.919048,94.6551836 123.172396,94.3573949 123.624344,95.2470453 C123.819557,95.6313573 123.409955,96.9538896 123.358022,97.3973878 C123.195566,98.782822 123.044029,100.173034 122.95055,101.565368 C122.399264,109.777118 122.727905,118.195887 124.322905,126.28316 C120.581353,124.179795 115.854144,122.370503 111.493127,122.729601 C107.047154,123.0956 103.721329,125.65653 100.162739,128.013626 C98.1496141,129.346774 97.4715592,129.697379 95.4632278,128.4059 C93.7326698,127.292775 92.0953244,126.02014 90.4625065,124.771126 C87.9428375,122.843461 85.5648517,120.753367 83.1213507,118.732544 C78.628771,115.01682 72.43919,109.728018 66.2341622,111.285171 C61.8009723,112.397765 57.7073425,114.826787 53.8595276,117.204054 C48.1429337,120.73585 42.9680381,125.060952 37.2442535,128.552406 M114.725694,91.7615122 C92.7061941,91.7615122 70.8515697,93.897923 48.8941968,95.0536514 C46.6010741,95.1742445 44.315651,95.3519467 42.0304933,95.57268 C40.5075859,95.7198355 36.7834188,95.1019949 35.7854046,96.4043475 C35.1195309,97.2732024 35.6916832,97.4036236 35.7854046,98.2291819 C35.9035521,99.2696296 35.8334601,100.502389 35.8029276,101.603664 C35.7296497,104.257244 35.6526547,106.910559 35.5923862,109.564404 C35.3651183,119.594353 35.2230758,129.622441 35.6287597,139.649733 C35.7171712,141.836613 36.5134054,144.864456 36.07772,146.989445 C35.7625716,148.527937 34.7082715,149.464261 37.1394541,149.748478 C39.5318737,150.028445 42.4571517,149.316574 44.8516953,149.088669 C47.2600449,148.85917 49.668129,148.610281 52.0793991,148.411329 C62.5629283,147.546724 73.1481439,147.677411 83.659285,147.390006 C94.2652096,147.10021 104.874851,147.081617 115.484227,147.075773 C119.923386,147.073382 124.995761,147.323069 129.327127,146.100403 C130.851096,145.670093 131.09748,145.458125 130.721798,143.944867 C130.650378,143.657728 130.190267,143.551744 130.055127,143.032716 C129.871667,142.326423 129.965919,141.467927 129.922908,140.732681 C129.782724,138.331443 129.733873,135.925956 129.62077,133.523124 C129.431999,129.508489 128.740637,125.612322 128.229285,121.638061 C127.639078,117.04835 127.669345,112.388249 127.657398,107.768523 C127.650495,105.206052 127.716339,102.652081 127.921836,100.096782 C128.053789,98.4578838 128.860112,96.0109589 128.451242,94.4825606 C128.247604,93.7215489 127.914136,93.118052 127.122681,92.7905381 C126.621417,92.5828204 126.199803,92.7453821 125.704115,92.6927886 C125.116298,92.6303671 124.749377,92.5477581 124.045006,92.3881183 C121.0276,91.7036062 117.800714,91.7615122 114.725694,91.7615122" id="Fill-67" fill="#D6E9EB" opacity="0.74734933" transform="translate(83.124403, 120.786517) rotate(1.000000) translate(-83.124403, -120.786517) "></path>
                    <g id="family2b-01" transform="translate(57.843504, 0.000000)">
                        <g id="XMLID_192_">
                            <g id="Group" transform="translate(113.459025, 0.000000)">
                                <g id="Group-2" transform="translate(0.510983, 0.000000)" fill-rule="nonzero">
                                    <g id="Group-3" transform="translate(0.262202, 0.000000)">
                                        <path d="M95.3876645,60.8614232 L2.73110588,60.8614232 C1.42213331,60.8614232 0.393654857,59.839323 0.393654857,58.5384681 L0.393654857,2.32295508 C0.393654857,1.02210024 1.42213331,0 2.73110588,0 L95.3876645,0 C96.6966371,0 97.7251155,1.02210024 97.7251155,2.32295508 L97.7251155,58.5384681 C97.7251155,59.839323 96.6966371,60.8614232 95.3876645,60.8614232 Z" id="Path" fill="#DEECEF" opacity="0.909272693"></path>
                                        <path d="M39.2279245,30.4307116 L39.2279245,12.7612662 C29.7102339,12.7612662 22.0228683,20.6561248 22.0228683,30.4307116 C22.0228683,40.2052985 29.7102339,48.1001571 39.2279245,48.1001571 C48.7456152,48.1001571 56.4329807,40.2052985 56.4329807,30.4307116 C56.4329807,25.8253774 54.6941718,21.5959889 51.9486841,18.4944373 L39.2279245,30.4307116 Z" id="Path" fill="#FFFFFF"></path>
                                        <rect id="Rectangle" fill="#FFFFFF" x="73.1464638" y="11.7796303" width="7.86516854" height="6.87145101"></rect>
                                        <rect id="Rectangle" fill="#FFFFFF" x="73.1464638" y="41.2287061" width="7.86516854" height="5.88981515"></rect>
                                        <rect id="Rectangle" fill="#FFFFFF" x="73.1464638" y="26.5041682" width="7.86516854" height="5.88981515"></rect>
                                    </g>
                                </g>
                                <g transform="translate(153.468356, 17.302809)"></g>
                            </g>
                            <g id="XMLID_671_" transform="translate(0.000000, 35.787270)" fill-rule="nonzero">
                                <path d="M56.3513358,20.9490551 L53.0147436,20.3329064 L53.0147436,31.7932719 C53.0147436,34.2578666 54.9919834,36.3527721 57.5871107,36.3527721 L57.5871107,36.3527721 C60.0586605,36.3527721 62.1594779,34.3810963 62.1594779,31.7932719 L62.1594779,22.1813525 L56.3513358,20.9490551 Z" id="Path" fill="#F6CDB0"></path>
                                <g id="Group" transform="translate(48.195221, 135.552709)">
                                    <path d="M38.1854447,9.48868966 C37.5675572,12.9391223 36.7025148,18.1147712 35.5903173,25.8782445 L30.6472177,60.62903 C25.4569631,91.5596937 19.4016661,123.229736 13.9642565,154.03717 C13.7171015,155.515927 13.9642565,156.748224 14.7057214,157.610832 C17.0536937,160.938035 23.8504557,161.061265 21.8732159,162.909711 C18.6602011,163.525859 8.40326937,163.649089 4.0780572,162.540022 C2.47154982,162.170332 2.47154982,161.677413 1.73008487,160.321886 C1.73008487,160.321886 1.73008487,160.321886 1.73008487,160.321886 C1.23577491,159.459278 1.11219742,158.47344 1.11219742,157.487602 C1.11219742,157.117913 1.11219742,156.624994 1.11219742,156.255305 C2.34797233,129.884142 6.54960701,40.9122723 8.52684687,6.40794627 C8.65042436,3.57366234 10.9983967,1.23229736 13.840679,1.10906762 L31.0179502,0.369689208 L31.0179502,0.369689208 C33.1187675,0.246459472 35.0960074,1.35552709 36.0846273,3.20397313 C36.2082048,3.4504326 36.3317823,3.69689208 36.4553598,3.82012181 C37.0732472,4.55950023 37.4439797,5.29887864 37.6911347,6.28471653 C37.9382897,7.51701389 38.0618672,8.50285177 38.1854447,9.48868966 Z" id="Path" fill="#F6CDB0"></path>
                                    <path d="M1.3593524,154.1604 C1.3593524,155.023008 1.23577491,155.762386 1.23577491,156.501765 L1.3593524,153.544251 C1.48292989,153.667481 1.48292989,153.91394 1.3593524,154.1604 Z" id="Path" fill="#F6C215"></path>
                                </g>
                                <g id="Group" transform="translate(0.000000, 130.623520)">
                                    <path d="M44.7350517,26.124704 C44.1171642,36.845691 42.2635019,47.4434483 40.4098395,57.9179759 C34.6016974,91.5596937 28.7935554,125.078182 22.9854133,158.7199 C22.9854133,158.966359 22.8618358,159.212819 22.8618358,159.582508 C22.4911033,162.786481 23.1089908,165.620765 19.5252435,166.729833 L12.4813266,169.071198 C9.3918893,170.057035 6.17887454,171.042873 2.96585978,170.426725 C2.22439483,170.303495 1.23577491,169.810576 0.988619926,169.071198 C0.988619926,168.947968 0.865042436,168.824738 0.988619926,168.701508 C0.988619926,168.331819 1.11219742,168.08536 1.3593524,167.8389 C1.60650738,167.592441 1.85366236,167.345981 1.97723985,167.222752 C3.58374723,165.990454 4.94309963,165.251076 6.17887454,164.511697 C8.27969188,163.2794 9.63904428,161.923873 10.1333542,158.103751 C10.5040867,154.283629 10.8748192,150.463507 11.1219742,146.766615 C12.852059,122.613587 11.7398616,98.2140995 12.2341716,73.9378415 C12.6049041,54.7140027 14.4585664,35.7366234 15.3236089,16.6360143 C15.9414963,2.71105419 32.6244576,-5.54533811 41.2748819,7.27055442 C44.9822067,12.4462033 45.1057841,19.593528 44.7350517,26.124704 Z" id="Path" fill="#F6CDB0"></path>
                                    <path d="M6.30245203,164.388468 C7.66180443,164.388468 9.02115683,164.265238 10.3805092,163.895549 C12.4813266,163.40263 14.4585664,162.786481 16.3122288,162.047103 C18.2894686,161.307724 21.1317509,159.459278 22.8618358,159.582508 C22.4911033,162.786481 23.1089908,165.620765 19.5252435,166.729833 L12.4813266,169.071198 C9.3918893,170.057035 6.17887454,171.042873 2.96585978,170.426725 C2.22439483,170.303495 1.23577491,169.810576 0.988619926,169.071198 C0.988619926,168.578279 1.11219742,168.208589 1.3593524,167.715671 L6.30245203,164.388468 Z" id="Path" fill="#15203D"></path>
                                </g>
                                <path d="M139.024677,43.5000968 C138.777522,45.9646915 135.576076,48.0150589 134.463878,50.3564239 C133.104526,53.4371673 133.834423,56.6856785 132.47507,59.7664219 C130.868563,63.2168545 129.262055,66.6672871 127.779125,69.99449 C125.554731,74.8004497 123.330336,79.7296391 120.117321,83.9194501 C114.556334,91.436464 108.501037,95.1333561 99.8506126,90.2041667 C87.9871734,83.3033014 76.7416218,72.7055442 72.2928321,59.6431922 C70.1920148,53.4817054 69.2033948,45.1020833 72.0456771,39.0638263 C75.3822694,31.9165016 82.1790314,39.8032047 85.3920461,44.1162454 C89.5936808,49.7848133 92.4359631,56.5624488 96.2668653,62.4774761 C99.7270351,67.8995845 103.063627,75.1701389 109.736812,70.1177197 C113.691292,67.160206 118.756987,60.3590215 121.722846,54.6904536 C123.576509,51.240021 126.296196,49.3806803 127.779125,46.6696261 C129.0149,44.2050314 130.250675,44.0181417 132.47507,42.2929254 C137.171015,38.5960333 139.642565,37.4618397 139.024677,43.5000968 Z" id="Path" fill="#221D6A"></path>
                                <path d="M85.6392011,210.846078 C85.3920461,212.201605 52.6440111,213.064213 50.2960388,213.310673 C34.6016974,214.41974 18.7837786,216.391416 3.33659225,214.78943 C2.34797233,205.547199 3.83090221,195.688821 4.44878967,186.323361 C5.80814207,166.236914 8.15611439,146.027237 13.346369,126.680168 C17.0536937,113.124898 19.2780886,88.6021801 31.6358376,80.222558 C32.8716126,79.3599499 37.5675572,85.398207 38.9269096,84.7820583 L52.3968561,84.905288 L69.6977048,85.1517475 C69.6977048,85.1517475 74.7643819,87.1234233 79.9546365,95.8727345 C80.6961015,97.1050319 81.3139889,98.3373292 82.0554539,99.8160861 C89.7172583,115.712722 96.1432878,147.505994 85.6392011,210.846078 Z" id="Path" fill="#8434AE"></path>
                                <path d="M129.009173,38.4566863 C129.503483,35.4991727 130.121371,32.6648887 130.368526,31.4325914 C130.492103,30.8164427 130.121371,29.7073751 130.862836,29.4609156 C131.109991,29.3376859 131.480723,29.3376859 131.851456,29.5841453 C132.840076,30.200294 132.716498,31.8022806 132.840076,32.6648887 C132.963653,33.2810374 133.087231,34.0204158 133.334386,34.7597942 C133.581541,35.2527132 133.705118,35.6224024 133.828695,36.1153213 C133.952273,36.1153213 134.199428,35.9920916 134.446583,35.8688619 C135.805935,35.0062537 136.918133,33.6507266 138.03033,32.6648887 C140.378303,30.5699832 142.726275,28.4750777 144.95067,26.3801722 C145.197825,26.1337127 145.568557,26.010483 146.062867,26.010483 C146.186445,26.010483 146.4336,26.1337127 146.310022,26.2569425 L141.4905,31.3093616 C141.366922,31.4325914 141.366922,31.5558211 141.614077,31.6790509 C141.737655,31.6790509 141.737655,31.8022806 141.861232,31.8022806 C141.98481,31.8022806 141.98481,31.8022806 142.108387,31.6790509 L147.051487,26.5034019 C147.298642,26.2569425 147.545797,26.2569425 147.916529,26.5034019 L147.669374,26.3801722 C148.040107,26.6266317 148.163684,27.1195506 147.916529,27.3660101 L143.46774,32.1719698 C143.344162,32.2951995 143.46774,32.4184293 143.591317,32.541659 C143.714895,32.541659 143.714895,32.6648887 143.838472,32.6648887 C143.96205,32.6648887 143.96205,32.6648887 144.085627,32.541659 L148.657994,27.6124696 C148.781572,27.4892398 149.152304,27.4892398 149.399459,27.6124696 C149.646614,27.858929 149.646614,28.1053885 149.523037,28.2286182 L145.321402,33.5274969 C145.197825,33.6507266 145.321402,33.7739564 145.44498,33.8971861 C145.568557,33.8971861 145.568557,33.8971861 145.692135,33.8971861 C145.815712,33.8971861 145.815712,33.8971861 145.93929,33.7739564 L150.017347,28.7215372 C150.264502,28.8447669 150.140924,28.7215372 150.388079,28.8447669 C150.511657,29.5841453 150.140924,30.200294 149.770192,30.8164427 C146.557177,35.8688619 143.097007,40.5515918 139.636838,45.4807813 C138.52464,47.0827678 133.828695,57.3506962 131.851456,57.9668449 C129.750638,58.7062233 129.997793,49.3009031 129.132751,47.3292273 C127.773398,46.0969299 128.267708,42.1535784 129.009173,38.4566863 Z" id="Path" fill="#F6CDB0"></path>
                                <path d="M68.0911974,48.059597 C71.5513672,46.8272996 75.0115369,44.6091644 76.6180443,41.2819615 C77.2359317,40.0496642 77.4830867,38.3244479 76.4944668,37.4618397 C74.3936495,35.3669342 69.4505498,36.2295423 66.8554225,34.997245 C64.0131402,33.6417179 62.6537878,29.8215961 60.429393,28.8357582 C55.1155609,26.4943932 51.7789686,32.0397313 46.835869,34.3810963 C44.2407417,35.6133937 39.9155295,35.3669342 39.5447971,38.5709073 C39.1740646,41.4051913 44.3643192,44.8556239 46.4651365,46.0879212 C52.7675886,49.908043 61.0472805,50.6474214 68.0911974,48.059597 Z" id="Path" fill="#F6CDB0"></path>
                                <path d="M42.2932538,44.0359818 C42.1683451,43.6817421 41.9185279,43.4455822 41.6687106,43.2094224 C39.7950813,40.9659041 35.4232796,40.6116644 32.9251072,41.3201438 C30.3020262,42.1467032 28.053671,44.0359818 26.1800417,46.0433403 C15.0631745,57.7332516 10.94119,74.7367589 10.4415555,90.559467 C10.3166469,96.4634626 9.94192106,101.304739 11.3159159,107.208735 C12.8148193,113.34889 15.1880831,119.252886 18.3107986,124.684562 C21.9331486,130.942797 26.5547676,137.319112 28.053671,144.403907 C28.9280314,148.182464 30.6767521,151.842941 31.8009296,155.621498 C31.8009296,155.621498 31.8009296,155.739578 31.8009296,155.739578 C32.0507469,157.038457 32.1756555,158.337336 32.3005641,159.518136 C32.3005641,160.344695 31.9258383,161.525494 32.4254727,162.352053 C32.5503814,162.588213 32.9251072,162.470133 32.9251072,162.233973 C33.2998331,159.754295 33.5496503,156.920377 33.1749245,154.558779 C33.1749245,154.440699 33.2998331,154.204539 33.4247417,154.204539 C33.5496503,154.204539 33.6745589,154.322619 33.7994676,154.440699 C34.299102,157.038457 33.9243762,160.226615 33.5496503,162.942453 C33.5496503,163.060533 33.5496503,163.178613 33.6745589,163.178613 C33.7994676,163.296693 34.0492848,163.296693 34.1741934,163.414773 C34.299102,163.532853 34.5489193,163.414773 34.5489193,163.178613 C35.1734624,160.580855 35.298371,157.628857 35.0485538,154.322619 C35.0485538,154.204539 35.1734624,153.96838 35.298371,153.96838 C35.4232796,153.96838 35.5481882,154.08646 35.5481882,154.204539 C35.7980055,157.628857 35.6730969,160.580855 34.9236451,163.296693 C34.9236451,163.414773 35.0485538,163.650932 35.1734624,163.650932 C35.298371,163.650932 35.4232796,163.650932 35.4232796,163.650932 C35.5481882,163.650932 35.6730969,163.532853 35.6730969,163.414773 C36.5474572,160.462775 36.9221831,157.274617 36.6723658,154.204539 C36.6723658,154.08646 36.7972745,153.8503 36.9221831,153.8503 C37.0470917,153.8503 37.1720003,153.96838 37.1720003,154.08646 C37.4218176,157.038457 37.0470917,160.108535 36.29764,162.942453 C36.1727313,163.178613 36.5474572,163.414773 36.6723658,163.178613 C36.6723658,163.178613 36.6723658,163.178613 36.6723658,163.178613 C37.0470917,162.942453 37.4218176,161.997814 37.5467262,161.525494 C38.5459951,158.691576 39.0456296,155.385339 39.1705382,152.315261 C39.1705382,151.370622 39.1705382,150.425982 39.0456296,149.599423 C38.6709038,145.820866 36.7972745,142.278468 35.7980055,138.617991 C34.1741934,133.186315 32.5503814,127.636559 30.8016607,122.204883 C29.9273003,119.489045 29.05294,116.773207 28.053671,114.057369 C27.4291279,112.168091 26.8045848,110.278812 25.9302245,108.507614 C25.6804072,106.264095 25.5554986,104.020577 25.5554986,101.777059 C24.3064124,84.5373915 36.7972745,70.603962 41.543802,54.5450939 C42.6679796,52.0654158 43.9170658,47.1060595 42.2932538,44.0359818 Z M26.7322097,114.634079 C26.7322097,114.540446 26.6385768,114.446813 26.6385768,114.446813 C26.6385768,114.446813 26.6385768,114.35318 26.6385768,114.35318 C26.6385768,114.35318 26.7322097,114.446813 26.7322097,114.634079 Z" id="Shape" fill="#F6CDB0"></path>
                                <g id="Group" transform="translate(8.650424, 33.567996)" fill="#29237F">
                                    <path d="M61.2660509,2.38107146 C50.7282973,7.53093859 40.1905436,4.01966555 35.2316007,1.67881686 C32.7521293,0.508392511 29.9007371,0.625434946 27.5452392,1.91290173 C14.1560934,9.40361754 7.58549404,23.2146248 4.48615472,37.0256321 C3.12244542,42.8777538 1.01489469,49.5491726 0.766947547,55.4012943 C0.147079684,67.1055378 4.98204901,82.4380967 8.82522976,93.557128 C9.5690712,95.7809342 11.3047012,97.1854435 13.9081462,97.3024859 C16.3876177,97.4195283 18.619142,96.3661464 20.7266927,95.1957221 C21.7184813,94.7275523 22.7102699,94.1423402 23.4541113,93.2060007 C25.5616621,90.5140247 21.9664284,83.9596484 20.8506663,81.1506299 C20.1068249,78.9268237 19.2390099,76.7030174 18.4951684,74.4792112 C17.9992741,72.8406171 17.9992741,69.2123016 17.0074855,67.9248348 C17.1314591,68.0418773 17.1314591,68.1589197 17.1314591,68.1589197 L24.0739792,48.4957907 C24.5698735,48.6128331 24.9417942,48.6128331 25.4376885,48.7298756 C40.1905436,50.3684696 54.9433987,52.0070637 69.6962539,53.5286154 C70.4400953,53.6456578 71.3079103,53.6456578 71.9277782,53.1774881 C72.547646,52.7093183 72.547646,51.8900213 72.547646,51.1877667 C72.547646,45.6867723 73.7873818,40.1857778 74.9031439,34.6847834 C75.1510911,33.5143591 75.3990382,32.3439347 75.5230118,31.1735104 C75.8949325,28.8326617 76.3908268,26.491813 76.5148004,24.1509643 C77.0106946,17.4795455 73.0435403,-3.35400783 61.2660509,2.38107146 Z" id="Path"></path>
                                    <path d="M61.9363947,57.7701967 C49.857708,56.6705034 37.7790214,55.0209635 25.9629148,52.6841153 C24.6500141,52.409192 23.3371134,52.1342686 22.4180829,51.172037 C21.3677623,50.0723438 21.1051822,48.2853422 20.9738921,46.7732639 C20.842602,44.8488007 20.5800219,42.9243375 20.4487318,40.8624126 C20.3174417,39.900181 20.3174417,38.8004877 20.842602,37.9757177 C21.2364722,37.4258711 22.0242127,37.1509478 22.680663,36.8760245 C35.0219298,32.8896363 48.1509371,38.3881027 59.9670436,43.8865691 C63.1180054,45.3986473 76.4550428,38.5249772 71.8547918,56.918142 C70.4542404,62.5179609 65.2186465,58.1825817 61.9363947,57.7701967 Z" id="Path"></path>
                                </g>
                                <path d="M51.2846587,10.1048383 C47.4537565,12.5694331 44.7350517,16.3895549 41.6456144,19.593528 C39.5447971,21.8116632 37.1968247,23.9065688 35.3431624,26.2479337 C33.4895,28.7125285 31.8829926,31.5468124 31.7594151,34.504326 C31.5122602,38.0779884 33.242345,41.6516507 36.0846273,43.9930157 C38.9269096,46.2111509 42.6342343,47.3202186 46.2179816,46.9505294 C47.8244889,46.8272996 49.4309963,46.3343807 50.9139262,45.4717725 C54.4976734,43.2536373 55.7334483,38.5709073 55.7334483,34.3810963 C55.7334483,30.1912853 54.9919834,25.8782445 55.7334483,21.8116632 C56.3513358,18.3612306 58.2049982,15.1572575 60.676548,12.8158925 C61.5415904,12.0765141 63.5188303,10.8442168 63.2716753,9.6119194 C63.0245203,8.2563923 60.923703,8.00993283 59.8115055,7.8867031 C56.8456458,7.39378415 53.7562085,8.50285177 51.2846587,10.1048383 Z" id="Path" fill="#B48E29"></path>
                                <path d="M55.3627159,19.593528 L55.3627159,20.9490551 C55.3627159,21.8116632 55.4862934,22.6742714 55.7334483,23.4136498 C56.5984908,26.2479337 59.0700406,28.466069 62.0359004,29.0822177 L62.0359004,20.8258254 L56.9692233,19.7167577 L55.3627159,19.7167577 L55.3627159,19.593528 Z" id="Path" fill="#DEAC89"></path>
                                <path d="M67.3497325,15.1572575 L67.3497325,19.4702983 C67.3497325,23.5368796 64.0131402,26.8640824 59.935083,26.8640824 L59.935083,26.8640824 C55.8570258,26.8640824 52.5204336,23.5368796 52.5204336,19.4702983 L52.5204336,15.1572575 C52.5204336,11.0906762 55.8570258,7.76347336 59.935083,7.76347336 L59.935083,7.76347336 C62.0359004,7.76347336 63.8895627,8.62608151 65.2489151,9.98160861 C66.48469,11.4603654 67.3497325,13.1855817 67.3497325,15.1572575 Z" id="Path" fill="#F6CDB0"></path>
                                <ellipse id="Oval" fill="#B48E29" transform="translate(52.960396, 20.964798) rotate(-86.994601) translate(-52.960396, -20.964798) " cx="52.9603964" cy="20.9647981" rx="3.20391907" ry="3.21291076"></ellipse>
                                <path d="M65.2489151,10.1048383 C64.6310277,11.3371357 63.5188303,12.6926628 62.6537878,13.5552709 C61.1708579,15.1572575 59.3171956,16.5127846 57.0928007,16.8824738 C56.2277583,17.0057035 55.2391384,17.0057035 54.374096,17.0057035 C53.385476,17.0057035 52.3968561,16.8824738 51.4082362,16.7592441 L51.4082362,15.1572575 C51.4082362,11.0906762 55.1155609,7.76347336 59.5643506,7.76347336 L59.5643506,7.76347336 C61.6651679,7.76347336 63.7659853,8.74931125 65.2489151,10.1048383 Z" id="Path" fill="#B48E29"></path>
                                <ellipse id="Oval" fill="#F6CDB0" cx="53.7562085" cy="19.8399875" rx="3.21301476" ry="3.20397313"></ellipse>
                                <path d="M55.9806033,5.54533811 C55.9806033,8.62608151 53.5090535,11.0906762 50.4196162,11.0906762 C47.330179,11.0906762 44.8586292,8.62608151 44.8586292,5.54533811 C44.8586292,2.46459472 47.330179,0 50.4196162,0 C53.5090535,0.123229736 55.9806033,2.58782445 55.9806033,5.54533811 Z" id="Path" fill="#B48E29"></path>
                                <path d="M139.465326,44.4059115 C139.230599,46.465623 138.581876,46.6468231 137.525603,48.603549 C137.525603,49.5086992 136.067248,51.0633321 135.360021,52.6307316 C134.491496,54.5556086 133.618257,56.5890621 132.906682,58.0081549 C128.798952,58.0081549 124.891666,56.6471796 121.722846,54.6904536 C123.208583,51.5426726 124.937952,48.9820364 126.346317,46.7163538 C126.969401,45.6228513 127.588654,44.1169376 128.38327,43.0614318 C129.085385,42.1287963 129.78942,41.4777627 130.780413,40.8014164 C135.12287,37.7118491 140.052145,39.3596183 139.465326,44.4059115 Z" id="Path" fill="#F6CDB0"></path>
                                <path d="M70.0684373,298.58565 C66.8554225,299.201799 56.5984908,299.325028 52.2732786,298.215961 C50.6667712,297.846272 50.6667712,297.353353 49.9253063,295.997826 C49.9253063,295.997826 49.9253063,295.997826 49.9253063,295.997826 C49.4309963,295.135217 49.3074188,294.14938 49.3074188,293.163542 C49.3074188,292.793852 49.3074188,292.300933 49.3074188,291.931244 L49.4309963,292.054474 L62.7773653,293.286771 C65.2489151,296.613974 72.0456771,296.613974 70.0684373,298.58565 Z" id="Path" fill="#15203D"></path>
                            </g>
                        </g>
                    </g>
                    <path d="M68.21664,324.686001 C76.818675,326.941113 81.1565853,326.44981 81.2303709,323.212094 C81.3041565,319.974377 81.1868981,323.789678 80.8785956,334.657996 C69.4702868,338.721618 62.2648945,339.900576 59.2624188,338.194873 C56.259943,336.489169 58.0224806,333.932326 64.5500314,330.524345 L68.21664,324.686001 Z" id="Path-14" fill="#15152A"></path>
                    <path d="M117.926751,324.734908 C126.598978,326.992797 130.972285,326.500889 131.046673,323.259185 C131.12106,320.017482 131.376683,323.559591 131.813542,333.885513 C119.564466,338.509919 111.926441,339.96822 108.899465,338.260416 C105.87249,336.552612 107.649409,333.99262 114.230224,330.580441 L117.926751,324.734908 Z" id="Path-14" fill="#15152A" transform="translate(119.641257, 330.524345) scale(-1, 1) translate(-119.641257, -330.524345) "></path>
                    <g id="Table" transform="translate(167.815415, 159.029963)">
                        <g id="Lamp" transform="translate(13.800000, 0.000000)">
                            <rect id="Lamp-Base" fill="#AFB9C5" x="12.6" y="86.4" width="22.8" height="5.4" rx="1.2"></rect>
                            <rect id="Rectangle-2" fill="#DDE3E9" x="22.3845854" y="43.9700375" width="3" height="27"></rect>
                            <path d="M25.6698894,42.6 C25.9807301,51.8509137 27.4239977,60.6505813 29.9996923,68.9990028 L33.9,69 C39.0362482,69 43.2,73.1637518 43.2,78.3 C43.2,83.4362482 39.0362482,87.6 33.9,87.6 L14.1,87.6 C8.96375183,87.6 4.8,83.4362482 4.8,78.3 C4.8,73.1637518 8.96375183,69 14.1,69 L18.6,68.999 L18.8921918,68.0346837 C21.2852405,59.9736914 22.6312134,51.4954635 22.9301106,42.6 L25.6698894,42.6 Z" id="Lamp-Body" fill="#DDE3E9"></path>
                            <path d="M2.77333333,1.00716903 C9.64888889,0.335723008 16.5244444,0 23.4,0 C30.2755556,0 37.1511111,0.335723008 44.0266667,1.00716903 L46.8,48.6798362 C39,49.4266121 31.2,49.8 23.4,49.8 C15.6,49.8 7.8,49.4266121 0,48.6798362 L2.77333333,1.00716903 Z" id="Shade" fill="#D3E7EA"></path>
                        </g>
                        <path d="M75,154.2 L62.4,154.2 L62.4,105 L12.6,105 L12.6,154.2 L0,154.2 L0,91.8 L75,91.8 L75,154.2 Z" fill="#DDE3E9"></path>
                    </g>
                    <g id="Group-112" transform="translate(342.487699, 194.288390) scale(-1, 1) translate(-342.487699, -194.288390) translate(204.847250, 28.089888)">
                        <path d="M257.187155,36.9144352 C256.913913,39.333551 255.926756,40.8735857 255.093633,43.082458 C257.630505,46.1349328 261.145159,48.5185701 264.50042,50.5513633 C264.965201,50.8338782 265.43266,51.111137 265.906817,51.3857678 C267.865058,46.1231066 269.855444,40.8722717 271.943609,35.6582294 C273.952748,30.6399765 275.397988,25.6729705 275.273421,24.9607701 C274.977408,23.2591106 275.197074,23.796546 274.977408,23.2591106 C274.910437,23.0961718 274.830071,22.9411171 274.737651,22.7913185 C274.637194,22.6310078 274.3894,22.6559742 274.318411,22.8320532 C274.136249,23.2880191 273.958105,23.742671 273.779962,24.1907528 C272.713779,26.8844994 271.706531,29.4284475 270.624275,31.538768 C270.577395,31.6307496 270.498369,31.6938227 270.407288,31.7253593 C270.313528,31.7568958 270.206374,31.7529538 270.108596,31.7056489 C269.921076,31.6136673 269.843389,31.3876554 269.939828,31.2010642 C271.004672,29.1222802 272.005223,26.5941004 273.064708,23.9187501 C273.265622,23.4115373 273.469215,22.8977544 273.675486,22.3813434 C273.814787,22.0331274 273.71433,21.6297224 273.415638,21.3931983 C273.406262,21.3866282 273.398225,21.3787441 273.388849,21.372174 C273.386171,21.3695459 273.383492,21.3682319 273.380813,21.3656039 C272.917372,21.0029336 272.227567,21.1842687 272.006562,21.7256461 C271.831097,22.1605876 271.651614,22.6047273 271.470792,23.0580652 C270.348353,25.8543056 269.18841,28.7464697 267.965514,30.5217144 C267.917295,30.5913576 267.848984,30.6412905 267.773977,30.6662569 C267.662804,30.7030496 267.538238,30.6925374 267.432423,30.6228942 C267.258298,30.5059462 267.211418,30.2720501 267.329287,30.0999131 C268.506642,28.3943116 269.650512,25.5415682 270.756878,22.7821204 C271.003332,22.1671577 271.245768,21.5640213 271.484186,20.9819092 C271.656972,20.5614219 271.466773,20.0831176 271.05423,19.8807581 L271.036818,19.872874 C270.577395,19.6468621 270.020194,19.8623618 269.829995,20.3314679 C268.525394,23.5324274 267.125695,26.7241887 265.650987,29.8397366 C265.606786,29.9356603 265.525081,30.0053035 265.429982,30.0381541 C265.34024,30.0683766 265.237104,30.0657485 265.142005,30.0236998 C264.951807,29.9356603 264.867423,29.7135904 264.957164,29.5243712 C266.464018,26.3365519 267.893185,23.0685773 269.223235,19.7927186 C269.326371,19.5377982 269.128136,19.2644815 268.849535,19.2696629 C268.570935,19.2749936 268.308407,19.3262405 268.06865,19.4353044 C266.695739,20.0594652 265.708582,22.8386234 265.077713,24.0751188 C263.872229,26.4259055 261.853715,29.7175325 259.616874,33.3218969 C259.891456,33.093257 257.329135,26.9817371 256.521461,27.3562336 C256.240181,27.4850078 256.096863,27.8095715 256.094184,28.1170528 C256.091505,28.4219061 256.201338,28.7162472 256.301795,29.0040181 C257.184477,31.533512 257.488526,34.2587952 257.187155,36.9144352" id="Fill-1" fill="#AC7C4F"></path>
                        <path d="M82.7494387,69.7378277 C81.8813571,79.2546659 80.8913466,73.8572978 82.6102806,83.2558863 C83.2398053,86.7088112 90.8166329,110.293545 92.9093058,113.099213 C96.7805518,118.289299 103.77159,119.71353 110.125152,120.763316 C120.592492,122.495127 131.059832,124.225602 141.527173,125.956076 C144.923956,126.519082 148.459897,127.072727 151.761257,126.088469 C155.063943,125.102874 158.044577,122.091261 157.815298,118.624963 C157.497222,113.822696 151.946802,111.513168 147.333379,110.286858 C140.227038,108.398582 133.122023,106.508968 126.015682,104.619354 C120.892013,103.256639 115.634487,101.832408 111.360346,98.6736904 C105.994144,94.70724 102.756399,88.3884678 100.981801,81.9199174 C100.174684,78.9805182 99.5981722,75.8913406 97.9123711,73.3598199 C96.22657,70.8269618 93.015331,68.9975268 90.173855,70.0326018 C86.0534497,71.5330595 85.7446513,77.2059127 86.1780294,81.6043131 L82.7494387,69.7378277 Z" id="Fill-5" fill="#D18D5D"></path>
                        <path d="M146.816479,19.2696629 L146.816479,34.8216616 C146.816479,38.3784084 143.921997,41.2921348 140.388742,41.2921348 C136.855486,41.2921348 133.970037,38.3784084 133.970037,34.8216616 L133.970037,19.2696629 L146.816479,19.2696629 Z" id="Fill-7" fill="#AC7C4F"></path>
                        <path d="M122.566611,13.0232282 C121.15691,10.3517196 120.649527,7.3132535 121.635495,4.41328887 C122.11408,3.0097117 122.928635,1.66610425 124.179265,0.816533126 C125.429895,-0.0316101491 127.163224,-0.298618217 128.509846,0.398172891 C129.142017,0.725150685 129.663113,1.24060476 130.324082,1.50904068 C130.906886,1.74606389 131.554142,1.7717652 132.183571,1.81602857 C138.455919,2.25866226 145.080692,4.08916677 146.531532,10.7586571 C146.904527,12.4735057 146.859274,14.1997771 146.690604,15.9346156 C146.561701,17.2468103 146.770139,18.5904178 145.989867,19.7484046 C144.91065,21.3490252 142.741246,21.8616236 140.76931,21.981563 C136.846007,22.2200141 132.860996,21.4118506 129.366911,19.6670172 C126.558479,18.2648678 124.058591,15.8489446 122.566611,13.0232282" id="Fill-11" fill="#1D1D1D"></path>
                        <path d="M145.898876,11.7005952 L145.898876,18.8391379 C145.898876,19.429727 145.841628,20.0027068 145.73754,20.5648501 C145.680291,20.9590277 145.586612,21.3437234 145.472115,21.7189371 C145.463007,21.7582194 145.44349,21.8069836 145.435684,21.8462659 L145.425275,21.8462659 C144.212647,25.6647767 140.734798,28.4456929 136.670152,28.4456929 L132.605506,28.4456929 C129.821145,28.4456929 127.546816,26.0779182 127.546816,23.1791551 L127.546816,12.6772346 C127.546816,9.23529206 130.246606,6.42322097 133.543601,6.42322097 L140.838886,6.42322097 C143.624548,6.42322097 145.898876,8.8004776 145.898876,11.7005952" id="Fill-13" fill="#AC7C4F"></path>
                        <path d="M144.981273,11.011236 L137.14593,11.011236 C134.883985,11.011236 133.052434,9.19219918 133.052434,6.95006792 L133.052434,6.42322097 L141.291018,6.42322097 C143.32894,6.42322097 144.981273,8.06170151 144.981273,10.0842009 L144.981273,11.011236 Z" id="Fill-25" fill="#1D1D1D"></path>
                        <path d="M143.280894,15.5992509 L143.280894,15.5992509 C142.193122,15.5992509 141.310861,14.7057745 141.310861,13.6041736 L141.310861,8.41829828 C141.310861,7.31669745 142.193122,6.42322097 143.280894,6.42322097 C144.368665,6.42322097 146.816479,8.9008286 146.816479,10.0024294 L146.203871,13.6041736 C146.203871,14.7057745 144.368665,15.5992509 143.280894,15.5992509" id="Fill-27" fill="#1D1D1D"></path>
                        <path d="M151.404494,17.4350987 C151.404494,19.4618798 149.761793,21.1048689 147.735366,21.1048689 C145.707656,21.1048689 144.06367,19.4618798 144.06367,17.4350987 C144.06367,15.407034 145.707656,13.7640449 147.735366,13.7640449 C149.761793,13.7640449 151.404494,15.407034 151.404494,17.4350987" id="Fill-29" fill="#AC7C4F"></path>
                        <path d="M203.707865,328.685124 L203.707865,331.254682 L169.89511,331.254682 L169.878117,327.686375 L169.756554,299.138577 L183.21081,299.138577 L183.21081,316.981455 L199.50676,322.654942 C201.707961,323.422175 203.275206,325.375254 203.629438,327.686375 C203.681723,328.016151 203.707865,328.345926 203.707865,328.685124" id="Fill-35" fill="#625DAA"></path>
                        <polygon id="Fill-37" fill="#F8C208" points="182.602996 299.138577 182.602996 314.737828 169.822702 314.737828 169.756554 299.138577"></polygon>
                        <path d="M203.707865,327.950826 L203.707865,331.254682 L169.773608,331.254682 L169.756554,326.666667 L203.629156,326.666667 C203.681629,327.090682 203.707865,327.514697 203.707865,327.950826" id="Fill-39" fill="#15203D"></path>
                        <g id="Group-43" transform="translate(106.441948, 300.056180)">
                            <polygon id="Clip-42" points="0.746926824 0.102350968 36.5253572 0.102350968 36.5253572 31.1985019 0.746926824 31.1985019"></polygon>
                            <path d="M0.866625052,28.7231531 L1.37368567,31.1987695 L36.5253572,31.0395272 L35.841573,27.6031039 L30.3386739,0.102350968 L16.3516854,0.165245006 L19.8698433,17.3527138 L4.04628936,22.8954182 C1.91065335,23.6434558 0.665432099,25.5329533 0.751075045,27.7610081 C0.76195034,28.0794928 0.800013872,28.3966394 0.866625052,28.7231531" id="Fill-41" fill="#625DAA"></path>
                        </g>
                        <polygon id="Fill-44" fill="#F8C208" points="122.958801 300.119346 126.020302 315.655431 139.475655 315.592265 136.483824 300.05618"></polygon>
                        <g id="Group-48" transform="translate(106.441948, 327.584270)">
                            <polygon id="Clip-47" points="0.751075045 0.449051966 36.5253572 0.449051966 36.5253572 4.30126404 0.751075045 4.30126404"></polygon>
                            <path d="M0.866625052,1.64910463 L1.37368567,4.3015508 L36.5253572,4.13093399 L35.841573,0.449051966 L0.751075045,0.618235019 C0.76195034,0.959468633 0.800013872,1.29926849 0.866625052,1.64910463" id="Fill-46" fill="#15203D"></path>
                        </g>
                        <path d="M118.059217,308.716212 C118.208015,309.996969 118.513656,312.127112 118.883642,313.357119 C119.222795,314.485627 118.4225,315.538011 119.187941,316.423456 C119.233519,316.476877 119.284459,316.522284 119.331378,316.573034 L142.254407,316.573034 C143.273208,316.573034 144.097633,315.715634 144.094952,314.660579 L143.703518,156.554561 L147.247874,156.554561 L163.139833,313.813864 C163.299356,315.381756 164.574198,316.573034 166.097038,316.573034 L184.994461,316.573034 C186.395313,314.689961 187.219738,312.033626 187.191011,308.355623 C186.978442,280.526208 186.755915,249.434134 186.56556,221.545956 C186.467701,207.040952 185.257205,192.585361 184.164674,178.133777 C182.946134,162.004789 181.214172,146.486131 179.238234,130.561476 C178.730174,126.4708 179.135013,120.420927 176.452617,117.267782 C171.81573,111.818889 161.651847,114.027828 155.634217,113.605805 C154.073842,113.496293 152.395501,113.902289 150.852553,113.56574 C149.491917,113.269256 148.121898,112.990134 146.733111,112.95274 C146.014588,112.932707 145.383199,112.661598 144.670038,112.58948 C143.976985,112.517363 143.239695,112.614855 142.545301,112.613519 C141.824097,112.612184 141.188687,112.410522 140.48491,112.295667 C139.632334,112.156774 138.774396,112.351759 137.919139,112.191497 C127.751234,110.28305 110.499979,109.153206 108.104456,121.983477 C104.554738,140.993166 107.719724,164.209721 108.200974,183.533255 C109.210392,224.239686 113.366028,268.275549 118.059217,308.716212" id="Fill-49" fill="#171F3D"></path>
                        <path d="M258.039847,39.4298452 C257.661648,39.3763558 257.283449,39.3349016 256.897204,39.3228665 C255.911472,39.297459 254.709819,41.0906895 253.716041,43.0163062 C252.904657,44.4792399 251.208127,47.459934 249.055612,50.9674983 C244.773381,57.9291373 238.687329,66.9728494 234.08725,70.408203 C228.174204,74.8157256 220.201182,66.6599367 214.698522,61.7790334 C198.94694,47.7835446 182.157323,30.2377001 159.316524,33.4096187 C147.348272,35.0771492 135.229814,34.8310982 123.183777,34.4112068 C110.295509,33.9618962 95.5377056,32.1980849 85.5248228,42.0508234 C83.97984,43.5739327 82.6199334,45.2762313 81.3150131,47.0159724 C76.0483923,54.0351126 69.557319,62.4770694 65.908102,70.4148892 C61.6661052,79.6418023 59.594058,89.6603578 55.9850749,99.1239613 C54.6627199,102.592746 51.6760215,107.131317 54.2067354,110.613474 C56.2761003,113.463119 61.2785183,114.958147 64.5428308,115.38205 C65.4682111,115.502401 66.1830338,115.920955 66.7007103,116.502652 C67.3444531,116.478581 67.9761258,116.395673 68.6010927,116.227181 C70.3324926,115.771185 71.9820836,114.566337 72.4501382,112.84398 C72.7746919,111.652505 72.5037835,110.434285 72.0115884,109.27624 C76.5338816,100.869051 80.9837538,92.3789541 86.757322,84.7754428 C91.4056815,78.6469004 97.0183141,73.0826706 103.591196,69.149866 C103.896974,69.2207394 104.197387,69.3223692 104.487072,69.4667904 C106.230542,70.3359924 106.94,72.4167282 107.34368,74.3182746 C109.712117,85.5363288 106.946706,97.1341574 106.724078,108.594251 C106.555095,117.180629 108.479618,122.193919 117.030668,121.653676 C126.690834,121.041223 136.588379,122.037462 146.264638,122.163162 C156.898465,122.302234 167.776377,124.231863 178.08565,121.522627 C179.287303,121.203028 180.2556,120.309756 180.688785,119.146363 C181.104535,118.025761 181.567226,116.808878 181.807288,116.221832 C182.920427,113.492538 182.963343,111.148367 182.980777,108.179708 C183.011623,104.522374 184.009425,100.935913 183.983943,97.2665436 C183.96785,94.1481144 184.363483,79.228597 187.232162,77.9809579 C189.662291,76.9205315 204.066036,89.7940812 206.789873,91.5217872 C220.772503,100.384973 235.613457,104.653423 246.608048,89.8128024 C250.16875,85.0027725 253.403558,79.9480288 256.278942,74.7020607 C259.140915,69.4855117 261.654195,64.08175 263.789275,58.5402532 C264.650281,56.3097472 265.449595,54.06052 266.183194,51.795246 C266.586874,50.5476069 267.368753,48.9643221 267.940075,47.339583 C265.40802,43.8132975 262.09945,41.0184789 258.039847,39.4298452" id="Fill-51" fill="#5AD2EA"></path>
                        <path d="M252.618314,42.9997992 C253.128502,42.0555857 253.074363,42.1794621 252.618314,42.9997992" id="Fill-53" fill="#8869B9"></path>
                        <path d="M4.03000206,320.63068 C7.8243689,317.68545 13.716892,313.098047 13.7369892,313.023281 L12.7816984,304.765689 C18.3044315,304.71629 23.8271646,304.674902 29.3512375,304.644195 L29.33248,319.339639 C29.3565968,320.538558 29.3632959,321.904366 29.3632959,323.264832 C29.3565968,324.450401 29.3391791,325.623954 29.3190819,326.666667 L0.917602996,326.666667 C0.973875386,325.461072 1.28605317,324.307545 1.8300196,323.264832 C2.36326748,322.247486 3.10284745,321.355639 4.03000206,320.63068" id="Fill-55" fill="#DD294F"></path>
                        <g id="Group-59" transform="translate(0.000000, 324.831461)">
                            <polygon id="Clip-58" points="0 0.0368952871 30.9811975 0.0368952871 30.9811975 4.56756008 0 4.56756008"></polygon>
                        </g>
                        <path d="M88.6479006,322.465886 C84.8521939,319.519321 78.9596708,314.931918 78.9395736,314.858487 L79.8962042,306.600895 C74.3721313,306.551496 68.8493982,306.510108 63.3266651,306.479401 L63.3454226,321.17351 C63.319966,322.372429 63.3146067,323.738236 63.3146067,325.100038 C63.319966,326.284272 63.3387235,327.457825 63.3574809,328.501873 L91.7602996,328.501873 C91.7040272,327.296278 91.3905096,326.141416 90.8465432,325.100038 C90.3132953,324.081357 89.5737153,323.18951 88.6479006,322.465886" id="Fill-60" fill="#DD294F"></path>
                        <path d="M83.6598592,305.03839 C83.3502783,307.949655 80.9416861,310.149813 78.0700571,310.149813 L65.3572271,310.149813 C62.1279788,310.149813 59.5632618,307.388254 59.7394026,304.113414 L66.4114032,162.459893 C66.5381712,159.583381 65.8976592,156.720235 64.5579214,154.139127 C64.2136462,153.747483 63.7639534,153.567033 63.3222669,153.567033 C62.5563213,153.567033 61.811726,154.099027 61.6569356,154.997269 L34.3177459,305.396617 C33.854709,308.144809 31.5155056,310.149813 28.7773166,310.149813 L13.881408,310.149813 C10.5320637,310.149813 7.92598029,307.18508 8.29294032,303.788604 C8.29294032,285.325192 12.3788735,276.233168 14.3657953,257.886046 C17.996698,224.387778 21.6209287,190.892184 25.5881003,157.421987 C26.2059275,152.154173 26.8464396,146.84626 28.6011758,141.823057 C30.4212975,136.64881 33.3769938,131.921011 36.3126741,127.248015 C39.4858776,122.190059 43.0820859,112.809314 48.0687391,109.406155 C48.2862464,109.256448 48.5170976,109.122781 48.7773056,108.98644 C51.403405,107.616354 55.8562982,107.001487 58.4837321,106.150028 C64.529899,104.185125 70.5680596,102.213537 76.6155609,100.248634 L77.3107834,100.018727 L77.549641,100.417054 C77.549641,100.417054 83.0553759,109.486355 83.1194271,109.594625 C84.3604192,111.641066 85.5413633,113.829193 86.6582562,116.125591 C91.8757607,126.843005 95.6681259,139.850133 97.2347116,150.850921 C97.5856588,153.302372 97.7884877,155.760507 97.9152557,158.233345 C98.0553677,160.906683 98.1047405,163.594725 98.1461069,166.274747 C99.0388206,215.898592 83.6598592,255.224737 83.6598592,305.03839" id="Fill-64" fill="#3E44C1"></path>
                        <path d="M52.5363818,102.771536 C23.3552653,136.825362 17.9593755,187.329158 14.6078912,231.037233 C12.8432058,254.054562 11.0785203,266.831967 9.31383492,289.849297 C8.89103228,295.364859 9.1024336,303.286259 14.9791325,305.561798 C18.7302169,302.200878 18.4994801,294.158582 19.4984803,289.436906 C21.3095708,280.872068 23.2392524,272.332753 25.1031933,263.778662 C28.943221,246.141222 32.7548899,238.738333 36.4801937,221.074027 C43.7026424,186.82005 50.6067002,152.490848 56.7785875,118.013884 C57.5004457,113.982661 58.2132806,109.846661 57.5378276,105.806035 C56.8610856,101.766752 56.2487952,104.128262 52.5363818,102.771536" id="Fill-66" fill="#3E44C1"></path>
                        <path d="M36.4930837,134.88764 C35.3028761,134.88764 34.139475,134.724658 33.0337079,134.390744 L33.2320758,133.75074 C36.5105079,134.740559 40.3411534,134.148258 43.745576,132.128869 C46.5548948,130.46327 49.0532584,127.908557 51.3840816,124.320299 C56.5135009,116.425601 58.7022497,107.151516 60.8186211,98.1835206 L61.4794007,98.3359023 C59.3496262,107.359551 57.1447934,116.690612 51.9537192,124.683365 C49.5652621,128.359077 46.994521,130.982693 44.0940602,132.703944 C41.6653934,134.142958 39.0236151,134.88764 36.4930837,134.88764" id="Fill-68" fill="#A2DDFF"></path>
                        <path d="M89.9410173,133.970037 C86.0622703,133.970037 82.0455179,131.675268 79.9502249,128.700272 C76.642077,123.98898 76.3753551,117.847095 76.1603852,112.912149 C75.9799166,108.787122 75.7994481,104.655477 75.6242874,100.529126 C75.5340531,98.5585885 75.4491268,96.5906976 75.3655274,94.6214833 L75.2434457,91.7907377 L75.9255107,91.7602996 L76.0475924,94.5923686 C76.1338457,96.5602595 76.2174451,98.5281504 76.3090064,100.498688 C76.4815131,104.626362 76.6633086,108.758007 76.8451041,112.881711 C77.0547661,117.729313 77.3161802,123.760032 80.5115352,128.308546 C83.1243484,132.020674 88.8900534,134.621149 93.3075521,132.573854 L93.5955056,133.193204 C92.4397107,133.729179 91.1976624,133.970037 89.9410173,133.970037" id="Fill-70" fill="#A2DDFF"></path>
                        <path d="M40.7174279,41.5579543 C37.94173,46.8864606 29.2015935,48.4148126 27.7182771,54.1471354 C27.1506683,56.3440579 27.9014186,58.6853915 29.3340788,60.4597774 C30.7680379,62.2341633 32.8215608,63.4977615 34.9867871,64.44312 C39.4860935,66.4100542 45.3024601,66.958282 49.2562386,63.9898293 C51.8786692,62.0215579 53.1931317,58.7308543 52.8372397,55.662116 C52.5774645,53.4304279 51.5162828,51.2161227 52.0942826,49.016526 C52.6203274,47.0108147 54.3829021,45.5078684 55.7103533,43.8351051 C58.4743614,40.3505161 59.4225409,35.6999402 58.2054941,31.6042777 C57.137818,28.0087059 49.6653845,18.6005829 45.125813,23.319353 C39.9173203,28.7347734 43.7308202,35.7721458 40.7174279,41.5579543" id="Fill-74" fill="#3F3022"></path>
                        <path d="M68.0727899,40.3584925 L69.7174258,54.1475044 C69.9019076,55.69437 68.8146424,57.0991629 67.291686,57.2877079 L63.2121518,57.7882815 C61.6983541,57.974171 60.3193197,56.8880456 60.1217541,55.3531301 L59.6441948,51.6526028 L59.8600777,43.8930471 L59.8613861,43.7469912 L59.7514821,39.6667183 L59.7449402,39.4569288 L62.7476762,39.7809075 L62.7568349,39.7795798 L63.1114064,39.8194132 L68.0727899,40.3584925 Z" id="Fill-76" fill="#D18D5D"></path>
                        <path d="M68.1073761,40.8889977 L68.8202247,46.7977528 C66.6728315,46.0488628 64.8805986,44.4307027 63.9326617,42.3272214 C63.6596558,41.7240545 63.4422623,41.0638655 63.3146067,40.3745318 L68.1073761,40.8889977 Z" id="Fill-78" fill="#B46833"></path>
                        <path d="M72.9874212,28.5355047 C72.4453031,27.8761377 71.8297453,27.2747837 71.1607769,26.7484221 C71.0552908,26.6663549 70.9498048,26.5913625 70.8429835,26.5078805 C69.0617382,25.2188604 67.0668503,24.2864079 65.0439218,23.8576779 C64.4470578,24.3896993 63.6685975,24.7703211 62.6925178,24.8962517 C56.3273032,25.716923 57.6358642,32.1874923 58.6840483,38.0807617 C58.5198105,38.2647053 58.3689254,38.5066619 58.3822781,38.5193964 C58.9804774,39.0867916 59.2328427,41.2106325 59.6788217,42.5647403 C59.905817,42.8137716 60.1288064,43.0656328 60.3464549,43.3160791 C60.5333921,43.5339815 60.7109826,43.7646184 60.8925788,43.9881807 C63.0490339,45.1880588 65.3991027,45.9337378 67.7144545,45.8771398 C70.8590067,45.7936577 74.9155458,43.807067 75.7994921,40.2824249 C76.8209709,36.2554754 75.6138901,31.6965044 72.9874212,28.5355047" id="Fill-80" fill="#D18D5D"></path>
                        <path d="M61.4336504,39.7077543 C61.6689307,41.4844343 60.9807635,43.2879885 59.7369813,44.0449438 L59.6441948,39.4569288 L61.4259182,39.7092473 L61.4336504,39.7077543 Z" id="Fill-90" fill="#15203D"></path>
                        <path d="M71.5730337,26.7515372 C71.0439414,27.0018217 70.4456099,27.1185346 69.8734063,27.0990825 C68.5147495,27.0562877 67.2397024,26.4260378 66.0182177,25.81524 C65.9868641,27.6100258 64.7170425,29.2945827 63.0513816,29.7705121 C62.6934278,29.8755538 62.3197971,29.9300198 62.0075674,30.1193542 C61.04475,30.715887 61.1427301,32.1553467 61.341303,33.2887591 C61.6861928,35.2689888 60.5731393,37.5928733 59.5018907,39.2009183 C59.1961929,39.6742541 58.8186431,40.1112793 58.332662,40.3745318 C55.2234282,37.6473393 53.1697662,33.6648342 54.6055007,29.60063 C55.7094093,26.4934719 58.6017806,24.4017166 61.7985432,23.9543169 C64.9874675,23.5172918 68.4037055,24.5949413 71.2621103,26.5310794 C71.3666224,26.6075913 71.469828,26.6750254 71.5730337,26.7515372" id="Fill-92" fill="#3F3022"></path>
                        <path d="M57.0979187,40.1296296 C57.7226628,41.789416 59.5741119,42.6277041 61.2337009,42.0028857 C62.89329,41.3792665 63.7326775,39.5275972 63.1079334,37.8678108 C62.4831892,36.2068251 60.6317402,35.368537 58.9721511,35.9933554 C57.3137612,36.6169746 56.4731745,38.4698431 57.0979187,40.1296296" id="Fill-94" fill="#D18D5D"></path>
                        <path d="M77.6912433,69.0842287 C81.3902007,67.7617711 84.9879461,65.5153315 86.7193443,62.0173041 C89.9432805,55.5066407 75.0219483,53.7736729 71.4781825,51.17957 C70.1610784,50.2181474 68.9289923,49.1136479 67.4607451,48.3982638 C65.9911484,47.684217 64.1841787,47.4100978 62.7388729,48.1682712 C61.304363,48.9224331 60.544599,50.4815692 59.5108882,51.7211224 C56.8132539,54.9584024 49.7365182,54.0945929 48.0456049,57.9068544 C46.2818189,61.8822503 52.0225575,65.2773159 54.874034,67.0009234 C61.5810088,71.0592236 70.3446093,71.713098 77.6912433,69.0842287" id="Fill-96" fill="#D18D5D"></path>
                        <path d="M34.2345506,132.653558 C34.2027154,132.58427 34.1727528,132.513109 34.1399813,132.441948 C34.133427,132.403558 34.125,132.366105 34.1175094,132.327715 C34.1558989,132.437266 34.19897,132.543071 34.2345506,132.653558 M49.7910613,66.6104245 C49.626046,66.3111883 49.4324453,66.0294172 49.2050619,65.7720974 C47.3535118,63.6762798 42.9656628,63.2675953 40.4592487,64.019761 C37.7995131,64.8161717 35.6114357,66.6348757 33.6806262,68.5606992 C22.5570328,79.6580537 18.3549885,95.8494093 17.9327051,110.884572 C17.7767851,116.444311 17.4662444,121.141271 18.8656265,126.694023 C20.3351726,132.528547 22.7038574,138.155817 25.889823,143.323172 C29.5513446,149.262486 34.1275969,155.301934 35.694593,162.123821 C36.5313637,165.771708 38.3751179,169.232136 39.4366733,172.846257 C39.4483673,172.890502 39.4600613,172.934747 39.4717553,172.978992 C39.7809966,174.167786 39.868052,175.400826 39.9200253,176.622221 C39.9525086,177.418632 39.5886953,178.562017 40.035666,179.296718 C40.156504,179.49582 40.47614,179.427124 40.51512,179.201242 C40.9153147,176.871391 41.142698,174.194566 40.7126187,171.950877 C40.6840333,171.801841 40.78798,171.658627 40.9439,171.631847 C41.0985207,171.603903 41.247944,171.702872 41.2778287,171.851908 C41.7598814,174.375039 41.4415447,177.410482 40.9646894,179.926627 C40.9451994,180.032583 40.994574,180.137373 41.092024,180.188605 C41.2466447,180.270109 41.4090614,180.342298 41.5779747,180.406337 C41.7260987,180.462225 41.8950121,180.380721 41.9326928,180.231685 C42.5537741,177.77725 42.7343815,174.987484 42.4836101,171.784376 C42.4732155,171.633011 42.5901555,171.500276 42.7486741,171.489797 C42.9071928,171.479318 43.0449222,171.592259 43.0566162,171.742459 C43.3112855,175.010771 43.1241815,177.862247 42.4849095,180.378392 C42.4485281,180.5251 42.5511755,180.669478 42.7083948,180.688108 C42.8045455,180.699751 42.9006962,180.707902 42.9955475,180.71161 C43.1176848,180.716052 43.2307268,180.645027 43.2658089,180.530921 C44.1454576,177.706225 44.4884816,174.725507 44.2597989,171.78554 C44.2481049,171.634175 44.3663443,171.502605 44.5235636,171.492126 C44.6807829,171.480482 44.8185123,171.593423 44.8315056,171.743624 C45.051093,174.562498 44.7561443,177.416303 43.9778436,180.142031 C43.9141762,180.367913 44.1740429,180.553044 44.3741403,180.422637 C44.3858343,180.415651 44.3962289,180.408665 44.4066236,180.400515 C44.7951243,180.130387 45.1888223,179.237336 45.3382457,178.84961 C46.3816104,176.119225 46.8922484,173.037209 46.9104391,170.050669 C46.9169358,169.165768 46.8779558,168.287853 46.7986964,167.428568 C46.4621691,163.836569 44.6002243,160.436688 43.5347709,157.012354 C41.9067061,151.79144 40.3072266,146.562375 38.5557252,141.37639 C37.6799745,138.785727 36.7678424,136.204378 35.795941,133.642823 C35.1319816,131.895144 34.5368869,129.997265 33.6247549,128.311296 C33.3531942,126.18637 33.2180635,124.060279 33.2765335,121.93186 C32.0291734,105.513457 44.6041223,92.2387813 49.2960153,77.002187 C50.1431807,74.2485154 51.3866427,69.527104 49.7910613,66.6104245" id="Fill-98" fill="#D18D5D"></path>
                        <path d="M97.3465941,70.6458184 L89.7676608,58.6085987 C86.973535,55.6804807 82.5977535,54.8531156 79.0333839,56.7369209 C68.1092021,62.5096119 57.2434526,58.5479612 52.0921153,55.9324632 C49.5795269,54.657728 46.5862002,54.7830455 44.1771963,56.2477783 C37.3937389,60.373824 30.2145356,68.8361256 27.8002197,71.8141011 C27.3420574,72.3773562 27.4788421,73.2155014 28.0870691,73.6035814 L41.5915676,82.2451005 L39.3419245,108.307103 C39.3419245,108.307103 59.8330654,117.041599 90.2444151,110.328353 L92.3107933,80.6846952 L96.0305396,77.8899797 C98.2761987,76.2015619 98.8512255,73.0362838 97.3465941,70.6458184" id="Fill-100" fill="#D85B39"></path>
                        <path d="M61.2041938,122.644225 C58.2754889,116.329442 50.9325808,108.228367 43.3306356,109.289107 C41.2147256,109.585673 39.1794343,110.853319 38.2001155,112.813412 C37.2207968,114.773506 37.4785122,117.401217 39.0234834,118.922668 C41.0336639,120.903452 44.677364,120.660682 47.1659702,122.005573 C50.9114349,124.031877 54.3780382,126.884426 56.9142226,130.385282 C57.2565216,130.857029 57.6490421,131.375674 58.0547787,131.171526 C58.2437701,131.07497 58.4063291,130.833579 58.5622799,130.58943 C58.5675664,130.338383 58.5702097,130.250103 58.5754961,129.999057 C57.0847113,127.262375 55.3996487,125.025027 53.5665649,123.346327 C53.5084137,123.292531 53.4727301,123.16149 53.4899111,123.035967 C53.5137002,122.87596 53.5982837,122.795956 53.6683295,122.860787 C55.5807103,124.609835 56.7344826,125.887137 58.2768105,128.767274 C58.2887051,128.789344 58.4644802,129.105221 58.6323257,129.405925 C58.8107441,129.730079 59.084319,129.723182 59.264059,129.389373 C59.3671451,129.197639 59.4702313,129.001768 59.5706743,128.804517 C59.7504143,128.448638 59.7464494,127.858265 59.5667094,127.518939 L59.2627373,126.952015 C57.8406767,124.293958 56.1331466,122.449733 54.4216516,120.623439 C54.3687869,120.565505 54.3383897,120.441361 54.3542491,120.319976 C54.3767166,120.159969 54.4613001,120.082723 54.5326675,120.144795 C56.4437267,121.895223 58.1961918,124.241542 59.7424846,127.129955 C59.9261894,127.476178 60.2195886,127.437556 60.3861124,127.038916 C60.4217961,126.950636 60.4574798,126.863735 60.4931635,126.775455 C60.6966926,126.270604 60.6768683,125.536776 60.4455852,125.103652 L60.1138592,124.485691 C58.6997282,121.844186 57.002771,120.015134 55.3005274,118.206772 C55.2463411,118.150218 55.2159438,118.024695 55.2318033,117.904689 C55.2542708,117.743302 55.3401759,117.664677 55.4102217,117.729508 C57.3212809,119.478557 59.073746,121.826255 60.6160739,124.706391 C60.622682,124.718806 60.6279685,124.7326 60.6358982,124.743635 C60.8314976,125.110549 61.1460426,125.029165 61.2953854,124.568454 C61.3033151,124.545005 61.3099232,124.520176 61.3178529,124.498106 C61.3958284,124.255336 61.4738038,123.994634 61.4790903,123.707723 C61.48702,123.293911 61.341642,122.943549 61.2041938,122.644225" id="Fill-102" fill="#AC7C4F"></path>
                        <path d="M184.398166,109.007311 C185.589934,107.685658 186.361155,106.041261 186.265399,103.687359 C185.697336,89.5706128 170.426911,106.505373 168.207712,111.281194 C168.062784,111.590602 167.912681,111.956024 167.921739,112.388129 C167.926915,112.686867 168.008436,112.9576 168.088664,113.20966 C168.096428,113.235 168.104192,113.259006 168.111956,113.283012 C168.267235,113.764461 168.59591,113.848482 168.800361,113.467056 C168.808125,113.453719 168.814595,113.440383 168.822359,113.427046 C170.430793,110.427655 172.259207,107.983064 174.254546,106.162624 C174.328304,106.094607 174.417589,106.177294 174.440881,106.345334 C174.457703,106.472032 174.425353,106.600063 174.369711,106.660077 C172.591764,108.541865 170.82158,110.447659 169.345132,113.198991 L169.00093,113.841813 C168.758953,114.292589 168.736955,115.056774 168.950464,115.582234 C168.986696,115.672923 169.024222,115.763611 169.061748,115.855633 C169.235143,116.2704 169.541819,116.311744 169.738507,115.943655 C171.346941,112.944263 173.175355,110.499672 175.170694,108.679232 C175.244452,108.611216 175.333737,108.693902 175.357029,108.861943 C175.373851,108.985973 175.341501,109.116671 175.285859,109.175352 C173.500147,111.078479 171.718318,112.998943 170.234106,115.766278 L169.918372,116.357088 C169.728155,116.709173 169.724273,117.322655 169.913196,117.694745 C170.018009,117.901461 170.124117,118.104177 170.231518,118.302892 C170.420441,118.650976 170.70512,118.65631 170.892749,118.320229 C171.067439,118.00682 171.249892,117.680074 171.262832,117.656069 C172.87256,114.656677 174.075975,113.327022 176.072608,111.505248 C176.146365,111.438566 176.234357,111.521252 176.258943,111.687959 C176.277059,111.818658 176.239533,111.95469 176.178715,112.010704 C174.266192,113.759127 172.507654,116.089023 170.950979,118.937712 C170.956155,119.199108 170.958743,119.292464 170.966507,119.555194 C171.126962,119.808589 171.297769,120.059316 171.493163,120.158007 C171.917593,120.371392 172.329083,119.832595 172.686225,119.340476 C174.355478,117.03992 176.357286,115.074111 178.608836,113.38837 C180.596411,111.898677 182.851843,110.723726 184.398166,109.007311" id="Fill-104" fill="#D18D5D"></path>
                        <path d="M128.464419,35.0616083 L128.464419,43.1849246 C128.464419,43.7905357 129.123667,44.1195582 129.541595,43.71975 L137.962168,37.5063372 L146.715735,43.8731191 C147.109397,44.2440887 147.725503,43.9792976 147.78617,43.4143228 L148.651685,34.8689139 L128.464419,35.0616083 Z" id="Fill-106" fill="#D3F2F9"></path>
                        <path d="M173.124002,61.4794007 L157.213077,61.4794007 C156.541957,61.4794007 155.992509,61.0661181 155.992509,60.5613161 C155.992509,60.056514 156.541957,59.6441948 157.213077,59.6441948 L173.124002,59.6441948 C173.795122,59.6441948 174.344569,60.056514 174.344569,60.5613161 C174.344569,61.0661181 173.795122,61.4794007 173.124002,61.4794007" id="Fill-108" fill="#D3F2F9"></path>
                        <path d="M267.940075,46.1952115 C267.38486,47.7467698 266.625024,49.2587409 266.232725,50.4501844 C265.521112,52.6134269 264.743029,54.7613453 263.906297,56.8913858 L263.901084,56.8913858 C263.689946,56.7828405 263.486628,56.6742953 263.282006,56.5657501 C259.412447,54.4931748 255.585897,52.1626449 251.563849,50.3748412 C250.972142,50.1117787 250.283988,49.8934112 249.588015,49.6597197 C251.679845,46.3101418 253.328546,43.4637029 254.118358,42.066662 C255.082815,40.2277781 256.250591,38.5153176 257.209835,38.5395806 C257.583888,38.5510736 257.951424,38.5906607 258.318961,38.6417408 C262.265416,40.15882 265.479405,42.8277555 267.940075,46.1952115" id="Fill-110" fill="#D3F2F9"></path>
                    </g>
                    <g id="Checkmark!" opacity="0.563988095" transform="translate(40.416538, 126.767790)" fill="#89C5CC">
                        <path d="M9.27162184,3.21025264 C12.7024032,3.71741143 16.2711376,5.35992606 16.2411185,9.42526563 C16.2159902,12.8433511 13.3999263,16.4811939 9.78397074,16.2768882 C6.52976254,16.0933565 3.46561926,12.470622 3.05816865,9.36603416 C2.84702288,7.75751325 3.24199363,6.0257222 4.17140602,4.7025425 C5.38920439,2.96886291 7.32155916,2.97160987 9.27162184,3.21025264 M7.65109496,1.000661 C5.16979494,1.01439584 3.35431239,1.92827744 1.81861484,3.8569917 C1.26781447,4.54854066 0.627294009,5.29296873 0.208038122,6.07654109 C-0.183559693,6.80826444 -0.114920455,8.66916295 1.22885706,7.79682922 C0.897972085,11.3994765 2.96625615,14.8961939 5.93949882,16.7421558 C9.17144565,18.7489869 12.8245035,18.3577158 15.5142509,15.5449932 C17.9764939,12.9702266 18.843001,8.62126271 17.0416848,5.43701282 C15.2413804,2.2543081 11.0700711,0.966495598 7.65109496,1.000661" id="Fill-292"></path>
                        <path d="M15.467534,0.244663014 C13.8429804,1.4249436 12.3596698,2.97910508 11.1276304,4.55549085 C9.92335677,6.09631776 9.12729101,8.02025718 7.68071396,9.3638008 C6.95018221,8.57500957 6.09427355,6.44472619 4.63700411,7.28993292 C3.42772917,7.99119465 4.20637668,9.19728961 4.79532048,9.98915804 C6.31622689,12.0339634 8.00510731,12.8569458 9.9556064,10.8365872 C11.7270942,9.00188684 12.7330412,6.55430902 14.3893271,4.61395782 C15.1158923,3.76259668 16.2382485,2.9175609 16.8168448,1.97764452 C17.3412893,1.12559956 16.6926751,-0.64789854 15.467534,0.244663014" id="Fill-294"></path>
                    </g>
                </g>
            </g>
        </g>
    </g>
</svg>