<?xml version="1.0" encoding="UTF-8"?>
<svg width="355px" height="409px" viewBox="0 0 355 409" version="1.1" xmlns="http://www.w3.org/2000/svg" xmlns:xlink="http://www.w3.org/1999/xlink">
    <!-- Generator: Sketch 61 (89581) - https://sketch.com -->
    <title>ACS-Illustration-01</title>
    <desc>Created with Sketch.</desc>
    <g id="02-PAGES" stroke="none" stroke-width="1" fill="none" fill-rule="evenodd">
        <g id="01-ACS-PROD-Pages-Home" transform="translate(-504.000000, -362.000000)" fill-rule="nonzero">
            <g id="Body" transform="translate(0.000000, 1.000000)">
                <g id="intro" transform="translate(100.000000, 150.000000)">
                    <g id="ACS-Illustration-01" transform="translate(400.000000, 211.000000)">
                        <g id="Group" transform="translate(116.967837, 0.000000)">
                            <path d="M240.377381,221.351045 C237.326046,219.637612 234.952785,217.924179 233.088081,215.86806 C233.088081,215.86806 232.918562,215.696716 232.749044,215.86806 C232.579525,215.86806 232.410006,216.039403 232.579525,216.039403 C234.44423,218.095522 235.800378,219.466269 239.021232,221.179701 C239.021232,221.179701 239.360269,221.351045 239.699306,221.522388 C240.038343,221.693731 240.038343,222.036418 239.699306,222.207761 C239.529788,222.379104 239.19075,222.379104 239.021232,222.550448 C238.682195,222.721791 238.00412,222.721791 237.665083,222.550448 L236.987009,222.207761 C234.105192,220.665672 232.070969,218.780896 230.036746,216.896119 C230.036746,216.896119 229.867227,216.724776 229.697709,216.896119 C229.52819,216.896119 229.358671,217.067463 229.52819,217.067463 C231.392895,219.123582 233.935674,221.179701 237.156527,222.721791 C237.495564,222.893134 237.495564,223.235821 236.987009,223.407164 C236.81749,223.407164 236.81749,223.407164 236.647971,223.578507 C236.139416,223.749851 235.291823,223.749851 234.783267,223.578507 L234.105192,223.235821 C231.223376,221.693731 229.189153,219.808955 227.324448,217.924179 C227.324448,217.924179 227.15493,217.752836 226.985411,217.924179 C226.815892,217.924179 226.646374,218.095522 226.815892,218.095522 C228.680597,220.151642 231.223376,222.207761 234.44423,223.749851 C234.44423,223.749851 234.44423,223.749851 234.44423,223.749851 C234.783267,223.921194 234.783267,224.263881 234.274711,224.435224 C234.274711,224.435224 234.274711,224.435224 234.274711,224.435224 C233.935674,224.435224 233.766155,224.606567 233.427118,224.606567 C232.918562,224.606567 232.579525,224.435224 232.240488,224.263881 C224.951188,220.837015 221.221778,216.039403 219.018037,211.241791 C215.966702,204.730746 211.050662,196.848955 210.542106,189.652537 C210.542106,188.624478 210.542106,187.767761 210.881144,186.911045 C211.220181,186.054328 212.237292,185.368955 213.254404,185.368955 C214.101997,185.368955 214.780071,185.882985 215.288627,186.397015 C217.153332,187.939104 218.339962,190.166567 219.86563,192.051343 C221.391297,193.936119 223.42552,195.306866 225.290225,197.020299 C228.850116,200.447164 229.867227,205.930149 232.410006,210.213731 C234.274711,213.640597 236.81749,216.896119 240.885937,219.808955 C241.394492,220.151642 241.903048,220.665672 241.73353,221.008358 C241.564011,221.179701 241.394492,221.351045 241.055455,221.522388 C240.716418,221.351045 240.546899,221.351045 240.377381,221.351045 Z" id="Path" fill="#BA8B72"></path>
                            <path d="M130.698844,22.9355224 L130.698844,41.6119403 C130.698844,45.8955224 126.969435,49.3223881 122.222914,49.3223881 C117.645911,49.3223881 113.916502,45.8955224 113.916502,41.6119403 L113.916502,22.9355224 L130.698844,22.9355224 Z" id="Path" fill="#BA8B72"></path>
                            <path d="M125.782804,22.9355224 L125.782804,24.6489552 C125.782804,25.8483582 125.613286,26.8764179 125.274248,27.9044776 C123.748581,32.359403 119.171579,35.6149254 113.916502,35.6149254 L113.916502,22.9355224 L125.782804,22.9355224 Z" id="Path" fill="#15203D" opacity="0.25"></path>
                            <path d="M104.592979,14.3683582 C102.897793,11.4555224 102.389237,8.2 103.575867,4.94447761 C104.084423,3.40238806 105.101535,2.03164179 106.457683,1.00358209 C107.813832,0.146865672 109.848055,-0.195820896 111.373723,0.489552239 C112.051797,0.832238806 112.729872,1.34626866 113.407946,1.68895522 C114.086021,2.03164179 114.764095,2.03164179 115.611688,2.03164179 C122.731469,2.54567164 130.359807,4.43044776 132.054993,11.798209 C132.563548,13.6829851 132.39403,15.5677612 132.224511,17.4525373 C132.054993,18.8232836 132.39403,20.3653731 131.376918,21.5647761 C130.190288,23.278209 127.647509,23.7922388 125.443767,23.9635821 C121.036283,24.3062687 116.459281,23.278209 112.390835,21.3934328 C109.169981,20.1940299 106.288165,17.4525373 104.592979,14.3683582 Z" id="Path" fill="#191919"></path>
                            <path d="M130.190288,15.5677612 L130.190288,21.7361194 C130.190288,22.4214925 130.190288,23.1068657 130.020769,23.7922388 C130.020769,24.3062687 129.851251,24.8202985 129.681732,25.1629851 C129.681732,25.1629851 129.681732,25.3343284 129.681732,25.3343284 C129.681732,25.3343284 129.681732,25.3343284 129.681732,25.3343284 C128.156065,29.960597 123.579062,33.3874627 118.323986,33.3874627 L113.068909,33.3874627 C109.509018,33.3874627 106.457683,30.4746269 106.457683,26.8764179 L106.457683,16.5958209 C106.457683,12.3122388 110.017574,8.88537313 114.255539,8.88537313 L123.748581,8.88537313 C127.138953,9.2280597 130.190288,12.1408955 130.190288,15.5677612 Z" id="Path" fill="#BA8B72"></path>
                            <path d="M130.698844,24.1349254 L130.698844,25.8483582 C130.359807,25.8483582 129.851251,25.6770149 129.512214,25.5056716 C129.512214,25.5056716 129.512214,25.5056716 129.512214,25.5056716 C128.664621,25.1629851 127.986546,24.6489552 127.47799,23.9635821 C126.969435,23.278209 126.630397,22.4214925 126.630397,21.5647761 C126.630397,19.68 127.986546,17.9665672 130.020769,17.4525373 L130.020769,21.9074627 C130.020769,22.5928358 130.020769,23.278209 129.851251,23.9635821 L130.698844,23.9635821 L130.698844,24.1349254 Z" id="Path" fill="#15203D" opacity="0.25"></path>
                            <path d="M127.986546,11.798209 L119.00206,11.798209 C116.459281,11.798209 114.425058,9.74208955 114.425058,7.1719403 L114.425058,4.94447761 L123.409544,4.94447761 C125.952323,4.94447761 127.986546,7.00059701 127.986546,9.57074627 L127.986546,11.798209 Z" id="Path" fill="#191919"></path>
                            <path d="M127.138953,19.1659701 L127.138953,19.1659701 C125.782804,19.1659701 124.596174,18.1379104 124.596174,16.7671642 L124.596174,10.7701493 C124.596174,9.39940299 125.782804,8.37134328 127.138953,8.37134328 L127.138953,8.37134328 C128.495102,8.37134328 131.715955,11.2841791 131.715955,12.6549254 L130.868362,16.9385075 C130.868362,18.1379104 128.495102,19.1659701 127.138953,19.1659701 Z" id="Path" fill="#191919"></path>
                            <ellipse id="Oval" fill="#BA8B72" cx="131.546437" cy="20.5367164" rx="4.74652092" ry="4.45492537"></ellipse>
                            <path d="M105.101535,17.7952239 C105.101535,15.9104478 106.796721,14.3683582 108.830944,14.3683582 C110.865167,14.3683582 112.560353,15.9104478 112.560353,17.7952239 C112.560353,19.68 110.865167,21.2220896 108.830944,21.2220896 C106.796721,21.2220896 105.101535,19.68 105.101535,17.7952239 Z M105.779609,17.7952239 C105.779609,19.3373134 107.135758,20.7080597 108.830944,20.7080597 C110.52613,20.7080597 111.882279,19.3373134 111.882279,17.7952239 C111.882279,16.2531343 110.52613,14.8823881 108.830944,14.8823881 C107.135758,14.8823881 105.779609,16.2531343 105.779609,17.7952239 Z" id="Shape" fill="#010E2D"></path>
                            <path d="M116.967837,17.7952239 C116.967837,15.9104478 118.663023,14.3683582 120.697246,14.3683582 C122.731469,14.3683582 124.426655,15.9104478 124.426655,17.7952239 C124.426655,19.68 122.731469,21.2220896 120.697246,21.2220896 C118.663023,21.2220896 116.967837,19.68 116.967837,17.7952239 Z M117.645911,17.7952239 C117.645911,19.3373134 119.00206,20.7080597 120.697246,20.7080597 C122.392432,20.7080597 123.748581,19.3373134 123.748581,17.7952239 C123.748581,16.2531343 122.392432,14.8823881 120.697246,14.8823881 C119.00206,14.8823881 117.645911,16.2531343 117.645911,17.7952239 Z" id="Shape" fill="#010E2D"></path>
                            <g transform="translate(167.823418, 356.394030)" id="Path">
                                <polygon fill="#BA8B72" points="12.7138953 8.37134328 23.7326046 26.3623881 39.6673534 18.480597 29.4962371 0.318208955"></polygon>
                                <path d="M39.6673534,18.480597 L23.7326046,26.3623881 L15.0871558,35.7862687 L5.25507673,40.241194 C2.37326046,41.6119403 0.508555812,45.3814925 0.508555812,48.4656716 C0.508555812,48.8083582 0.847593021,52.4065672 0.847593021,52.4065672 L18.9860837,51.8925373 L51.0250999,37.6710448 L39.6673534,18.480597 Z" fill="#7D7D7D"></path>
                            </g>
                            <path d="M143.412739,160.695522 C148.328779,156.92597 152.736262,152.985075 156.974227,148.530149 C157.82182,147.673433 158.838932,146.645373 160.195081,146.302687 C162.398823,145.788657 164.602565,147.159403 165.789195,148.872836 C166.806306,150.757612 166.975825,152.813731 166.975825,154.869851 C167.992937,176.459104 168.84053,198.048358 169.857641,219.808955 C169.857641,239.856119 172.230902,262.816119 180.706832,281.321194 C190.70843,303.424478 200.879546,325.356418 210.881144,347.459701 C213.254404,352.771343 215.797183,358.425672 215.288627,364.251343 C214.101997,376.07403 192.234097,384.127164 182.402018,375.731343 C179.859239,373.675224 178.672609,370.591045 177.31646,367.849552 C172.739458,357.054925 167.992937,346.945672 162.398823,336.665075 C156.804709,326.041791 149.176372,315.075821 145.107925,303.938507 C137.479588,289.545672 129.851251,274.981493 126.29136,259.560597 C124.257137,250.650746 123.579062,241.569552 122.900988,232.488358 C121.544839,213.29791 120.18869,194.107463 122.053395,175.088358 C129.681732,170.633433 136.631995,166.007164 143.412739,160.695522 Z" id="Path" fill="#167CC1"></path>
                            <g id="New_Symbol_1_2_" transform="translate(0.000000, 363.737313)">
                                <path d="M1.69518604,26.0441791 L0.508555812,29.1283582 L44.7529115,44.0352239 L46.4480975,39.9229851 L59.8400673,6.33970149 L42.2101324,0.342686567 L33.9037208,21.2465672 L9.83207904,20.7325373 C6.61122556,20.7325373 3.55989069,22.2746269 2.03422325,24.8447761 C2.03422325,25.358806 1.86470465,25.7014925 1.69518604,26.0441791 Z" id="Path" fill="#7D7D7D"></path>
                                <polygon id="Path" fill="#BA8B72" points="42.2101324 0.342686567 34.9208325 19.361791 52.3812487 25.1874627 59.8400673 6.33970149"></polygon>
                                <path d="M1.69518604,26.0441791 L0.508555812,29.1283582 L44.7529115,44.0352239 L46.4480975,39.9229851 L2.20374185,25.0161194 C2.03422325,25.358806 1.86470465,25.7014925 1.69518604,26.0441791 Z" id="Path" fill="#7D7D7D"></path>
                            </g>
                            <path d="M35.5989069,353.62806 C58.3143998,288.688955 77.9785579,223.064478 96.795123,157.44 C98.8293462,150.243582 99.8464579,150.072239 108.152869,150.072239 C115.442169,150.072239 122.561951,149.900896 129.851251,149.386866 C144.768888,148.358806 159.517007,145.96 173.926088,142.533134 C175.790793,160.695522 164.263527,177.658507 153.753374,193.593433 C145.107925,206.786866 136.971032,220.151642 129.342695,233.859104 C122.222914,246.538507 112.729872,259.73194 109.3395,273.439403 C106.796721,281.663881 105.779609,290.059701 103.067311,298.284179 C96.2865672,317.988657 84.7593021,334.780299 79.8432626,354.998806 C77.8090393,363.737313 74.07963,372.647164 65.942737,378.472836 C57.805844,384.298507 43.7357999,385.155224 36.7855371,378.472836 C30.1743115,371.619104 32.7170906,361.852537 35.5989069,353.62806 Z" id="Path" fill="#2296F5"></path>
                            <g transform="translate(5.085558, 173.546269)" id="Path">
                                <path d="M29.3267185,16.7916418 C29.4962371,16.4489552 29.4962371,16.1062687 29.6657557,15.7635821 C29.8352743,15.5922388 29.8352743,15.5922388 30.0047929,15.4208955 L29.3267185,16.7916418 Z" fill="#F8C208"></path>
                                <path d="M3.8989279,23.8167164 C4.40748371,23.1313433 4.74652092,22.6173134 5.25507673,21.9319403 C5.25507673,21.9319403 5.25507673,21.760597 5.25507673,21.5892537 C4.91603952,20.561194 9.49304183,16.4489552 10.1711162,15.5922388 C12.2053395,13.5361194 14.4090814,11.8226866 16.7823418,10.1092537 C20.8507883,7.19641791 25.7668278,3.42686567 30.5133487,1.54208955 C31.699979,1.0280597 33.0561278,0.856716418 34.242758,1.37074627 C35.2598697,1.88477612 35.9379441,2.91283582 35.9379441,3.94089552 C35.9379441,4.96895522 35.7684255,5.99701493 35.4293883,7.02507463 C33.7342022,11.48 30.3438301,15.078209 27.2924953,18.6764179 C24.5801976,22.1032836 22.3764557,25.1874627 18.8165651,27.9289552 C17.6299348,28.9570149 16.273786,29.8137313 14.7481186,30.841791 C14.5786,31.0131343 14.4090814,31.0131343 14.2395627,31.0131343 C13.7310069,31.0131343 13.7310069,30.3277612 13.9005255,29.9850746 C14.5786,28.6143284 15.5957116,27.5862687 16.4433046,26.2155224 C16.6128232,25.8728358 16.9518604,25.1874627 17.2908976,24.5020896 C16.7823418,24.8447761 16.273786,25.1874627 15.7652302,25.7014925 C12.0358209,28.4429851 8.64544881,31.8698507 6.10266975,36.838806 C5.76363254,37.5241791 5.42459533,38.2095522 4.74652092,38.038209 C4.40748371,38.038209 4.2379651,37.6955224 3.8989279,37.5241791 C3.8989279,37.1814925 3.72940929,37.1814925 3.72940929,36.838806 C5.08555812,33.240597 6.78074417,30.3277612 8.81496742,27.9289552 C8.81496742,27.9289552 8.81496742,27.7576119 8.81496742,27.5862687 C8.81496742,27.4149254 8.64544881,27.2435821 8.47593021,27.4149254 C6.44170696,29.9850746 5.08555812,31.6985075 3.72940929,35.4680597 C3.72940929,35.4680597 3.55989069,35.9820896 3.39037208,36.3247761 C3.22085348,36.6674627 2.88181627,36.838806 2.54277906,36.4961194 C2.37326046,36.3247761 2.20374185,36.1534328 2.03422325,35.8107463 C1.69518604,35.4680597 1.52566744,34.7826866 1.69518604,34.2686567 L2.03422325,33.5832836 C3.22085348,30.1564179 5.08555812,27.5862687 6.95026277,25.0161194 C6.95026277,25.0161194 6.95026277,24.8447761 6.95026277,24.6734328 C6.95026277,24.5020896 6.78074417,24.3307463 6.61122556,24.5020896 C4.57700231,27.0722388 2.71229767,30.1564179 1.35614883,33.9259701 C1.18663023,34.2686567 1.01711162,34.44 0.678074417,34.2686567 C1.18663023,29.9850746 2.37326046,26.7295522 3.8989279,23.8167164 Z" fill="#BA8B72"></path>
                            </g>
                            <path d="M35.9379441,166.178507 C53.3983603,145.617313 63.399958,120.943881 74.4186672,97.1271642 C83.7421905,76.9086567 93.7437881,46.7522388 119.171579,41.0979104 C120.866765,40.7552239 122.731469,40.4125373 124.257137,41.0979104 C125.782804,41.6119403 126.799916,42.9826866 127.47799,44.3534328 C130.698844,50.8644776 127.817028,58.4035821 124.935211,64.9146269 C106.966239,105.522985 86.9630439,155.383881 47.4652092,182.284776 C42.379651,185.711642 34.9208325,188.967164 30.3438301,185.026269 C27.8010511,182.798806 27.6315325,179.029254 28.8181627,175.945075 C30.0047929,172.860896 32.3780534,170.290746 34.5817952,167.89194 C35.0903511,167.206567 35.5989069,166.692537 35.9379441,166.178507 Z" id="Path" fill="#17237A"></path>
                            <path d="M182.571537,79.8214925 C182.402018,77.2513433 181.893462,74.8525373 181.215388,72.2823881 C176.468867,56.0047761 148.328779,29.6179104 123.070507,40.5838806 C100.524532,50.3504478 90.1838974,77.7653731 87.9801556,95.4137313 C85.6068951,114.432836 89.3363044,133.623284 92.8961951,152.471045 C94.4218625,159.324776 142.05659,152.299701 148.328779,151.785672 C160.3646,150.757612 167.992937,151.957015 174.095606,144.589254 C181.554425,135.679403 179.181165,113.404776 180.876351,102.952836 C182.062981,95.2423881 183.249611,87.360597 182.571537,79.8214925 Z" id="Path" fill="#2B34A0"></path>
                            <g opacity="0.25" transform="translate(87.665335, 57.032836)" fill="#2B34A0" id="Path">
                                <path d="M10.1468993,5.31164179 C-0.871809964,32.5552239 -1.21084717,38.5522388 1.6709691,70.4220896 C1.50145049,64.5964179 1.50145049,58.599403 1.8404877,52.7737313 C2.85759933,33.5832836 7.77363885,18.1623881 11.6725667,1.0280597 C11.3335295,2.57014925 10.8249737,3.94089552 10.1468993,5.31164179 Z"></path>
                            </g>
                            <path d="M145.277444,53.9486567 C143.921295,27.3904478 173.417532,54.12 178.672609,64.400597 C187.826613,81.7062687 192.234097,99.8686567 198.845323,118.202388 C205.28703,136.02209 215.288627,152.642388 221.221778,170.633433 C224.103595,179.200597 234.274711,209.014328 213.423923,204.38806 C208.507883,203.36 204.778474,198.219701 202.235695,194.621493 C195.285432,184.683582 189.521799,174.231642 185.114316,163.094328 C180.876351,152.299701 177.655497,140.991045 171.722346,130.881791 C165.280639,119.573134 157.482783,107.921791 152.397225,95.5850746 C146.803111,81.7062687 146.125037,68.3414925 145.277444,53.9486567 Z" id="Path" fill="#263391"></path>
                        </g>
                        <g id="Group" transform="translate(0.000000, 207.814925)">
                            <path d="M10.3406349,32.8979104 C10.3406349,32.7265672 10.3406349,32.7265672 10.3406349,32.5552239 C10.1711162,32.3838806 10.1711162,32.3838806 10.0015976,32.3838806 C9.32352323,34.0973134 8.3064116,37.1814925 7.28929998,41.4650746 C6.95026277,43.0071642 6.27218835,42.321791 6.10266975,42.1504478 C5.76363254,41.9791045 6.10266975,38.5522388 6.10266975,36.6674627 C6.61122556,34.2686567 7.28929998,31.8698507 7.9673744,30.1564179 C7.9673744,29.9850746 7.9673744,29.8137313 7.9673744,29.8137313 C7.79785579,29.6423881 7.79785579,29.6423881 7.62833719,29.6423881 C6.27218835,32.5552239 5.42459533,36.1534328 5.08555812,40.2656716 C5.08555812,40.6083582 4.91603952,40.7797015 4.57700231,40.6083582 C3.8989279,40.2656716 4.2379651,34.7826866 4.2379651,33.9259701 C4.40748371,32.5552239 4.57700231,31.1844776 4.91603952,29.8137313 C6.44170696,23.6453731 10.5101535,18.3337313 14.5786,13.3647761 C17.7994534,9.4238806 20.3422325,4.45492537 24.5801976,1.54208955 C25.5973092,0.856716418 26.7839395,0.171343284 27.9705697,0.514029851 C28.9876813,0.685373134 29.8352743,1.71343284 30.1743115,2.57014925 C30.5133487,3.59820896 30.5133487,4.62626866 30.5133487,5.82567164 C30.0047929,10.7946269 27.6315325,15.078209 25.5973092,19.5331343 C23.7326046,23.4740299 22.5459744,27.2435821 19.8336767,30.841791 C18.8165651,32.041194 17.7994534,33.240597 16.7823418,34.6113433 C16.6128232,34.7826866 16.6128232,34.7826866 16.4433046,34.9540299 C15.9347488,35.1253731 15.7652302,34.44 15.9347488,33.9259701 C16.273786,32.3838806 16.9518604,31.0131343 17.2908976,29.6423881 C17.4604162,29.1283582 17.4604162,28.4429851 17.6299348,27.5862687 C17.2908976,28.1002985 16.7823418,28.6143284 16.4433046,29.1283582 C13.7310069,32.7265672 11.1882279,37.0101493 10.0015976,42.4931343 C9.83207904,43.1785075 9.66256044,43.8638806 8.98448602,44.0352239 C8.3064116,44.2065672 8.3064116,43.6925373 8.136893,43.3498507 C8.3064116,40.0943284 9.49304183,34.7826866 10.3406349,32.8979104 Z" id="Path" fill="#D6AA85"></path>
                            <path d="M27.1229767,16.4489552 C27.1229767,16.2776119 27.2924953,16.2776119 27.2924953,16.1062687 L27.1229767,16.4489552 Z" id="Path" fill="#F8C208"></path>
                        </g>
                        <path d="M61.8742905,130.539104 C68.8245533,112.03403 75.7748161,92.6722388 72.8929998,73.1391045 C71.8758882,66.2853731 68.4855161,58.5749254 61.7047719,57.3755224 C55.7716208,56.3474627 50.516544,60.8023881 46.7871347,65.2573134 C30.1743115,84.961791 24.2411604,111.177313 21.0203069,136.536119 C18.1384906,159.324776 11.0187093,183.998209 9.83207904,206.444179 C9.49304183,214.668657 8.81496742,218.780896 17.7994534,221.522388 C35.5989069,227.176716 35.7684255,204.90209 38.1416859,194.278806 C43.0577255,172.860896 54.2459533,151.100299 61.8742905,130.539104 Z" id="Path" fill="#C4193D"></path>
                        <path d="M126.969435,36.8143284 C131.715955,44.1820896 144.768888,45.2101493 147.650704,53.2632836 C148.837334,56.3474627 147.989741,59.7743284 146.125037,62.5158209 C144.260332,65.2573134 141.378516,67.3134328 138.327181,69.0268657 C132.054993,72.4537313 123.579062,73.9958209 117.306874,70.2262687 C113.238428,67.6561194 110.865167,63.201194 111.034686,58.7462687 C111.204204,55.4907463 112.390835,52.2352239 111.204204,49.1510448 C110.187093,46.4095522 107.474795,44.3534328 105.271053,42.1259701 C100.694051,37.4997015 98.8293462,30.8173134 100.015976,24.8202985 C101.202607,19.5086567 110.865167,4.94447761 118.154467,11.1128358 C126.460879,18.3092537 121.714358,28.9325373 126.969435,36.8143284 Z" id="Path" fill="#231004"></path>
                        <path d="M86.7935253,38.0137313 L86.1154509,58.2322388 C86.1154509,60.4597015 87.810637,62.3444776 90.0143788,62.5158209 L95.94753,62.6871642 C98.1512718,62.6871642 100.015976,60.9737313 100.185495,58.7462687 L100.355014,53.2632836 L98.9988648,42.1259701 L98.9988648,41.9546269 L98.6598276,35.9576119 L98.6598276,35.6149254 L94.2523439,36.4716418 L94.2523439,36.4716418 L93.7437881,36.6429851 L86.7935253,38.0137313 Z" id="Path" fill="#D6AA85"></path>
                        <path d="M86.6240067,40.7552239 L86.2849695,49.8364179 C89.505823,48.4656716 91.8790835,45.7241791 93.0657137,42.2973134 C93.4047509,41.2692537 93.5742695,40.241194 93.7437881,39.2131343 L86.6240067,40.7552239 Z" id="Path" fill="#15203D" opacity="0.25"></path>
                        <path d="M78.6566323,22.9355224 C79.3347067,21.9074627 80.1822998,21.0507463 81.0298928,20.1940299 C81.1994114,20.0226866 81.36893,20.0226866 81.5384486,19.8513433 C83.9117091,17.7952239 86.6240067,16.4244776 89.505823,15.5677612 C90.353416,16.2531343 91.5400462,16.5958209 93.0657137,16.5958209 C102.219718,16.9385075 101.202607,25.8483582 100.355014,34.0728358 C100.694051,34.2441791 100.863569,34.5868657 100.863569,34.5868657 C100.015976,35.4435821 100.015976,38.3564179 99.5074206,40.241194 C99.1683834,40.5838806 98.9988648,40.9265672 98.6598276,41.2692537 C98.490309,41.6119403 98.1512718,41.9546269 97.9817532,42.2973134 C95.0999369,44.1820896 91.7095649,45.5528358 88.4887114,45.7241791 C83.9117091,46.0668657 77.9785579,43.839403 76.2833719,39.2131343 C74.07963,33.9014925 75.2662602,27.561791 78.6566323,22.9355224 Z" id="Path" fill="#D6AA85"></path>
                        <path d="M95.7780114,36.6429851 C95.6084927,39.041791 96.9646416,41.2692537 99.1683834,41.9546269 L98.8293462,35.9576119 L95.7780114,36.6429851 L95.7780114,36.6429851 Z" id="Path" fill="#15203D" opacity="0.25"></path>
                        <path d="M81.0298928,20.3653731 C81.8774858,20.7080597 82.7250788,20.7080597 83.5726719,20.7080597 C85.6068951,20.5367164 87.3020811,19.3373134 88.9972672,18.3092537 C89.3363044,21.0507463 91.3705276,23.278209 93.9133067,23.7922388 C94.4218625,23.9635821 94.9304183,23.9635821 95.4389741,24.1349254 C96.9646416,24.8202985 96.9646416,27.0477612 96.795123,28.761194 C96.6256044,31.6740299 98.490309,35.1008955 100.185495,37.3283582 C100.694051,38.0137313 101.372125,38.5277612 102.0502,38.8704478 C106.288165,34.4155224 108.661425,28.2471642 106.118646,22.4214925 C104.084423,17.9665672 99.6769392,15.2250746 94.9304183,15.0537313 C90.1838974,14.8823881 85.4373765,16.9385075 81.5384486,20.1940299 C81.36893,20.0226866 81.1994114,20.1940299 81.0298928,20.3653731 Z" id="Path" fill="#231004"></path>
                        <path d="M103.575867,36.6429851 C102.897793,39.3844776 100.015976,40.9265672 97.3036788,40.241194 C94.5913811,39.5558209 93.0657137,36.6429851 93.7437881,33.9014925 C94.4218625,31.16 97.3036788,29.6179104 100.015976,30.3032836 C102.728274,30.9886567 104.253942,33.9014925 103.575867,36.6429851 Z" id="Path" fill="#D6AA85"></path>
                        <path d="M50.6860626,378.644179 L34.7513139,377.273433 L32.3780534,390.980896 C32.3780534,390.980896 25.5973092,394.065075 21.3593441,396.121194 C19.1556023,397.149254 17.6299348,399.03403 17.2908976,401.261493 L17.2908976,401.261493 L47.2956906,404.517015 C47.2956906,404.517015 47.8042464,400.576119 48.1432836,398.691343 L50.6860626,378.644179 Z" id="Path" fill="#15152A"></path>
                        <path d="M132.224511,371.619104 L117.137355,378.644179 L122.392432,391.666269 C122.392432,391.666269 117.984948,397.834627 115.272651,401.775522 C113.746983,403.831642 113.407946,406.230448 114.255539,408.115224 L114.255539,408.115224 C114.255539,408.115224 136.462476,399.03403 141.887072,395.778507 C141.208997,393.893731 140.530923,392.180299 139.68333,390.295522 L132.224511,371.619104 Z" id="Path" fill="#15152A"></path>
                        <path d="M89.1667858,191.023284 C87.810637,195.306866 86.4544881,199.761791 85.0983393,204.730746 C77.4700021,232.659701 70.6892579,268.813134 67.1293672,294.343284 C63.2304394,322.614925 67.1293672,352.942687 60.3486231,380.528955 C60.1791045,381.557015 59.8400673,382.413731 59.5010301,383.441791 C55.4325836,385.326567 50.1775068,385.669254 46.2785789,385.669254 C40.8539836,385.669254 32.2085348,384.983881 30.0047929,379.329552 C29.6657557,378.472836 28.9876813,366.307463 28.9876813,360.481791 C29.6657557,329.297313 32.547572,298.969552 34.9208325,267.956418 C36.4464999,246.881194 38.6502417,215.182687 41.532058,191.194627 C42.0406138,187.082388 42.5491696,183.312836 43.0577255,179.88597 C43.2272441,178.686567 43.5662813,177.315821 43.9053185,176.116418 C44.9224301,173.032239 46.7871347,170.290746 50.0079882,169.94806 C51.3641371,169.776716 52.5507673,170.119403 53.9069161,170.633433 L53.9069161,170.633433 C55.263065,171.147463 56.6192138,172.004179 57.805844,172.860896 C62.8914021,176.116418 68.6550347,179.200597 74.5881858,180.571343 C78.9956695,181.599403 84.2507463,179.543284 88.1496742,182.798806 C90.8619718,184.512239 90.0143788,188.110448 89.1667858,191.023284 Z" id="Path" fill="#7DDBED"></path>
                        <path d="M135.106328,373.161194 C134.089216,376.930746 130.529325,379.500896 126.630397,380.528955 C122.731469,381.557015 118.663023,381.214328 114.764095,380.700299 C113.068909,380.528955 111.373723,380.186269 110.017574,379.329552 C108.152869,378.130149 107.305276,375.902687 106.627202,373.675224 C101.372125,358.082985 97.1341602,342.833433 93.9133067,327.069851 C94.0828253,326.384478 94.0828253,325.699104 94.0828253,324.842388 C85.4373765,279.436418 84.9288207,231.117612 92.5571579,185.540299 C94.2523439,175.773731 97.1341602,164.979104 105.61009,160.352836 C123.409544,150.928955 135.275846,174.745672 136.123439,189.995224 C136.292958,193.593433 135.953921,197.191642 135.445365,200.961194 C132.902586,223.749851 130.190288,246.709851 127.647509,269.498507 C125.443767,288.003582 124.087618,309.421493 127.138953,327.755224 C129.342695,340.60597 131.885474,351.914627 134.936809,364.59403 C134.936809,364.765373 134.936809,364.936716 135.106328,365.10806 C135.445365,367.678209 135.953921,370.591045 135.106328,373.161194 Z" id="Path" fill="#7DDBED"></path>
                        <path d="M145.277444,147.673433 C145.107925,132.081194 144.429851,116.660299 143.073702,101.06806 C142.226109,90.4447761 141.039479,79.478806 136.123439,69.5408955 C130.190288,57.3755224 120.358209,54.4626866 109.509018,54.12 L110.356611,53.4346269 C108.322388,53.4346269 106.288165,53.6059701 104.42346,53.7773134 C84.0812277,55.6620896 58.8229556,47.6089552 45.4309859,70.0549254 C41.8710952,76.0519403 40.8539836,83.2483582 39.836872,90.1020896 C36.4464999,117.174328 35.0903511,144.589254 33.9037208,171.832836 C33.7342022,176.801791 33.5646836,181.94209 35.5989069,186.397015 C41.8710952,199.419104 75.7748161,195.478209 87.9801556,195.478209 C103.23683,195.478209 118.323986,194.450149 133.411141,193.42209 C136.462476,193.250746 139.68333,192.90806 141.717553,191.36597 C144.090814,189.481194 144.429851,186.568358 144.599369,183.998209 C144.938407,178.001194 145.107925,172.004179 145.277444,166.007164 C145.277444,159.838806 145.277444,153.670448 145.277444,147.673433 Z" id="Path" fill="#DD294F"></path>
                        <path d="M162.398823,185.026269 C152.736262,155.89791 150.023965,125.912836 147.820223,93.8716418 C146.633593,77.4226866 144.768888,63.3725373 131.376918,56.518806 C126.630397,54.12 120.697246,53.7773134 116.120244,57.2041791 C110.356611,61.4877612 107.813832,70.0549254 106.796721,77.9367164 C104.932016,90.958806 105.440572,104.152239 105.949128,117.174328 C106.966239,145.788657 104.592979,177.658507 110.356611,205.073433 C112.221316,216.38209 114.594576,227.86209 120.18869,236.77194 C130.868362,253.906269 145.277444,250.30806 157.482783,235.572537 C170.02716,219.980299 168.331974,203.188657 162.398823,185.026269 Z M139.852848,181.770746 C135.614883,185.711642 129.173176,185.711642 123.9181,180.4 C111.543242,168.234627 112.729872,60.2883582 130.529325,71.0829851 C147.311667,81.3635821 145.446962,148.016119 144.938407,168.577313 C144.768888,174.745672 142.734665,179.200597 139.852848,181.770746 Z" id="Shape" fill="#EBB41C"></path>
                        <path d="M207.829809,382.071045 L194.946395,382.071045 L194.946395,393.551045 C194.946395,393.551045 190.030355,396.635224 186.97902,398.691343 C185.283834,399.719403 184.436241,401.261493 184.436241,402.974925 L184.436241,402.974925 L207.999327,402.803582 C207.999327,402.803582 207.999327,399.205373 207.999327,397.834627 L207.829809,382.071045 Z" id="Path" fill="#B48E29"></path>
                        <path d="M268.178432,374.703284 L257.159723,381.557015 L262.753836,390.124179 C262.753836,390.124179 260.550095,395.607164 259.024427,399.205373 C258.176834,401.090149 258.346353,402.974925 259.363464,404.345672 L259.363464,404.345672 C259.363464,404.345672 274.959176,393.722388 278.688585,389.952836 C277.840992,388.58209 276.993399,387.382687 275.976288,386.183284 L268.178432,374.703284 Z" id="Path" fill="#B48E29"></path>
                        <path d="M210.711625,330.839403 C210.881144,321.244179 211.559218,309.078806 212.745848,297.084776 C203.083288,297.598806 193.251209,298.455522 183.758167,299.654925 C184.097204,305.823284 184.436241,311.648955 184.775279,316.446567 C185.961909,336.322388 186.470465,355.855522 188.674206,375.731343 C189.182762,379.500896 189.013244,383.441791 190.030355,386.697313 C190.538911,386.868657 190.877948,387.211343 191.047467,387.725373 C193.08169,391.152239 199.692916,390.809552 203.591844,390.466866 C206.47366,390.124179 210.372588,389.438806 213.084885,388.06806 C213.254404,387.382687 213.423923,386.868657 213.423923,386.183284 C215.966702,367.849552 210.372588,349.001791 210.711625,330.839403 Z" id="Path" fill="#001051"></path>
                        <path d="M268.178432,372.475821 C263.770948,365.10806 259.702502,358.425672 255.803574,350.715224 C252.243683,343.518806 248.514274,336.322388 248.005718,328.61194 C247.666681,324.842388 248.344755,320.901493 248.853311,317.13194 C249.700904,311.306269 250.039941,303.767164 250.378978,296.056716 C240.377381,296.056716 230.545302,296.22806 220.543704,296.399403 C220.543704,300.511642 220.543704,303.595821 220.374185,305.13791 C219.696111,313.362388 218.678999,322.272239 220.374185,330.325373 C222.069371,338.721194 226.476855,346.260299 230.71482,353.799403 C230.884339,354.313433 231.053857,354.656119 231.053857,355.170149 C236.308934,364.422687 242.242085,373.332537 248.853311,382.242388 C249.700904,383.441791 250.718016,384.641194 252.413202,385.155224 C253.599832,385.49791 254.955981,385.49791 256.312129,385.326567 C259.363464,384.983881 262.414799,384.641194 265.127097,383.441791 C267.839395,382.242388 270.043136,380.014925 270.212655,377.616119 C270.382174,375.902687 269.365062,374.189254 268.517469,372.647164 C268.178432,372.647164 268.178432,372.647164 268.178432,372.475821 Z" id="Path" fill="#001051"></path>
                        <g id="Group" transform="translate(108.491907, 233.516418)">
                            <path d="M21.5288627,16.9629851 C23.0545302,18.5050746 28.6486441,21.5892537 30.5133487,22.7886567 C30.0047929,26.3868657 24.410679,27.5862687 22.715493,31.0131343 C22.5459744,31.5271642 22.2069371,32.041194 22.0374185,32.3838806 C17.7994534,29.8137313 13.5614883,27.2435821 9.15400462,24.8447761 C4.91603952,22.4459701 1.35614883,19.8758209 1.01711162,19.1904478 C0.339037208,17.8197015 0.508555812,18.3337313 0.339037208,17.8197015 C0.339037208,17.6483582 0.339037208,17.4770149 0.339037208,17.3056716 C0.339037208,17.1343284 0.508555812,16.9629851 0.678074417,17.1343284 C1.01711162,17.3056716 1.35614883,17.6483582 1.86470465,17.8197015 C4.0684465,19.0191045 6.27218835,20.2185075 8.136893,21.0752239 C8.136893,21.0752239 8.3064116,21.0752239 8.47593021,21.0752239 C8.64544881,21.0752239 8.64544881,20.9038806 8.64544881,20.9038806 C8.81496742,20.7325373 8.64544881,20.561194 8.47593021,20.3898507 C6.61122556,19.5331343 4.40748371,18.3337313 2.20374185,17.1343284 C1.86470465,16.9629851 1.35614883,16.6202985 0.847593021,16.4489552 C0.508555812,16.2776119 0.508555812,15.9349254 0.508555812,15.5922388 C0.508555812,15.5922388 0.508555812,15.5922388 0.508555812,15.5922388 C0.508555812,15.5922388 0.508555812,15.5922388 0.508555812,15.5922388 C0.678074417,15.078209 1.35614883,14.7355224 1.86470465,15.078209 C2.20374185,15.2495522 2.54277906,15.4208955 3.05133487,15.7635821 C5.42459533,17.1343284 7.79785579,18.5050746 9.66256044,19.0191045 C9.66256044,19.0191045 9.83207904,19.0191045 9.83207904,19.0191045 C10.0015976,19.0191045 10.0015976,18.8477612 10.0015976,18.8477612 C10.0015976,18.6764179 10.0015976,18.5050746 9.83207904,18.3337313 C7.9673744,17.8197015 5.59411394,16.4489552 3.39037208,15.2495522 C2.88181627,14.9068657 2.37326046,14.7355224 1.86470465,14.3928358 C1.52566744,14.2214925 1.35614883,13.7074627 1.69518604,13.3647761 L1.69518604,13.3647761 C2.03422325,12.8507463 2.54277906,12.679403 2.88181627,13.0220896 C5.59411394,14.5641791 8.3064116,15.9349254 11.0187093,17.3056716 C11.1882279,17.3056716 11.1882279,17.3056716 11.3577465,17.3056716 C11.5272651,17.3056716 11.5272651,17.1343284 11.5272651,17.1343284 C11.6967837,16.9629851 11.5272651,16.7916418 11.3577465,16.6202985 C8.47593021,15.2495522 5.76363254,13.7074627 3.05133487,12.3367164 C2.88181627,12.1653731 2.88181627,11.8226866 3.05133487,11.8226866 C3.22085348,11.6513433 3.55989069,11.48 3.72940929,11.48 C5.08555812,11.1373134 7.28929998,12.5080597 8.47593021,13.0220896 C10.6796721,14.0501493 13.9005255,15.078209 17.6299348,16.2776119 C17.2908976,16.2776119 16.273786,10.4519403 17.121379,10.280597 C17.4604162,10.280597 17.6299348,10.280597 17.7994534,10.6232836 C17.968972,10.7946269 17.968972,11.1373134 18.1384906,11.3086567 C18.8165651,13.1934328 20.0031953,15.2495522 21.5288627,16.9629851 Z" id="Path" fill="#EBBF9A"></path>
                            <path d="M25.0887534,17.4770149 C27.1229767,17.6483582 29.6657557,18.6764179 33.395165,19.8758209 C42.7186882,22.96 52.7202859,22.6173134 61.5352533,18.1623881 C70.6892579,13.5361194 82.0470044,-10.4519403 92.3876393,7.19641791 C100.863569,21.760597 78.9956695,40.0943284 67.2988859,44.720597 C57.805844,48.4901493 48.6518394,46.4340299 39.1587976,43.0071642 C36.7855371,42.1504478 12.2053395,29.4710448 13.9005255,26.7295522 C18.9860837,19.361791 21.0203069,17.1343284 25.0887534,17.4770149 Z" id="Path" fill="#D34E40"></path>
                        </g>
                        <path d="M250.887534,300.511642 C250.887534,303.938507 250.718016,307.536716 250.548497,310.963582 C250.548497,312.505672 250.378978,314.219104 248.853311,315.247164 C247.497162,316.103881 245.632457,316.446567 243.767753,316.446567 C225.459744,317.64597 206.982216,316.960597 189.013244,314.390448 C187.826613,314.219104 186.470465,314.047761 185.453353,313.362388 C184.436241,312.677015 183.927686,311.477612 183.588648,310.449552 C181.723944,304.795224 180.876351,299.140896 180.876351,293.315224 C180.706832,283.377313 181.893462,259.903284 186.470465,250.479403 C190.030355,242.940299 199.18436,242.083582 205.626067,235.743881 C212.57633,228.890149 215.119109,236.086567 226.307337,235.229851 C228.850116,235.058507 231.392895,234.715821 233.766155,235.229851 C239.529788,236.25791 243.259197,240.370149 245.29342,244.482388 C248.175236,250.30806 249.02283,256.647761 249.531385,262.816119 C250.378978,271.897313 250.718016,280.807164 250.887534,289.888358 L250.887534,289.888358 C251.057053,293.486567 250.887534,296.913433 250.887534,300.511642 Z" id="Path" fill="#F46951"></path>
                        <path d="M230.375783,222.550448 C226.476855,220.837015 222.069371,220.837015 217.831406,221.008358 C210.711625,221.179701 202.574732,220.322985 196.133025,223.921194 C186.470465,229.232836 189.860837,238.142687 196.133025,244.653731 C197.489174,246.024478 197.658692,244.825075 199.18436,245.853134 C201.218583,252.878209 210.372588,255.448358 217.153332,252.878209 C223.934076,250.30806 228.680597,244.311045 233.257599,238.656716 C234.613748,236.77194 236.139416,234.887164 236.647971,232.659701 C237.495564,228.547463 234.274711,224.435224 230.375783,222.550448 Z" id="Path" fill="#29237F"></path>
                        <polygon id="Rectangle" fill="#AAE3E8" transform="translate(208.081839, 263.704775) rotate(-87.648202) translate(-208.081839, -263.704775) " points="197.656004 263.362074 218.507675 263.362074 218.507675 264.047476 197.656004 264.047476"></polygon>
                        <polygon id="Rectangle" fill="#AAE3E8" transform="translate(215.298873, 261.256585) rotate(-88.313118) translate(-215.298873, -261.256585) " points="207.24647 260.913887 223.351275 260.913887 223.351275 261.599283 207.24647 261.599283"></polygon>
                        <path d="M223.595039,294.68597 C221.899853,296.399403 221.05226,299.140896 222.577927,301.025672 C224.103595,302.739104 226.815892,302.567761 229.189153,302.396418 C231.90145,302.053731 234.613748,301.882388 237.326046,301.539701 C240.038343,301.197015 242.750641,301.025672 245.462939,300.682985 C251.39609,299.997612 257.49876,299.483582 262.584318,296.74209 C264.618541,295.71403 266.652764,294.17194 267.330839,291.944478 C267.669876,290.745075 267.669876,289.545672 267.500357,288.174925 C266.483246,274.467463 263.092874,257.675821 253.260795,246.709851 C249.531385,242.597612 244.10679,239.170746 237.665083,237.628657 C230.884339,236.086567 223.764557,236.600597 216.983813,236.77194 C211.220181,236.77194 205.117511,235.229851 201.049065,240.370149 C200.031953,241.569552 199.353878,243.282985 199.862434,244.825075 C200.201472,246.024478 201.388102,246.881194 202.405213,247.566567 C208.338365,251.678806 215.627664,254.077612 222.916964,254.248955 C230.206264,254.591642 231.223376,254.420299 235.63086,260.24597 C240.716418,267.099701 245.462939,273.953433 250.039941,281.149851 C247.158125,282.69194 239.529788,286.975522 234.274711,289.545672 C232.579525,290.402388 231.053857,291.087761 230.036746,291.430448 C227.833004,292.287164 225.459744,292.972537 223.595039,294.68597 Z" id="Path" fill="#E25749"></path>
                        <path d="M230.206264,302.053731 C232.749044,301.882388 235.291823,301.539701 237.834602,301.197015 C237.156527,297.084776 236.139416,292.972537 234.783267,289.374328 C233.088081,290.231045 231.562413,290.916418 230.545302,291.259104 C229.189153,291.773134 227.663485,292.287164 226.307337,292.972537 C227.663485,296.056716 228.850116,298.969552 230.206264,302.053731 Z" id="Path" fill="#C49A8C"></path>
                        <path d="M222.577927,282.349254 C227.663485,294.000597 232.579525,305.480597 237.665083,317.13194 C230.545302,317.13194 224.273113,311.477612 221.899853,304.623881 C219.526592,297.770149 220.204667,290.231045 222.069371,283.377313 L222.577927,282.349254 Z" id="Path" fill="#E25749"></path>
                        <path d="M230.375783,222.550448 C226.476855,220.837015 222.069371,220.837015 217.831406,221.008358 C210.711625,221.179701 202.574732,220.322985 196.133025,223.921194 C186.470465,229.232836 189.860837,238.142687 196.133025,244.653731 C197.489174,246.024478 197.658692,244.825075 199.18436,245.853134 C201.218583,252.878209 210.372588,255.448358 217.153332,252.878209 C223.934076,250.30806 228.680597,244.311045 233.257599,238.656716 C234.613748,236.77194 236.139416,234.887164 236.647971,232.659701 C237.495564,228.547463 234.274711,224.435224 230.375783,222.550448 Z" id="Path" fill="#C6463C"></path>
                        <g id="Group" transform="translate(119.873870, 59.970149)">
                            <path d="M52.5265503,170.976119 C49.6447341,166.349851 48.9666597,160.695522 47.101955,155.555224 C46.9324364,154.869851 46.5933992,154.184478 46.4238806,153.499104 C45.5762876,150.928955 44.559176,148.358806 43.7115829,145.788657 C48.6276225,144.93194 53.543662,144.41791 58.2901829,144.41791 C58.6292201,146.302687 58.9682573,148.016119 59.3072945,149.900896 C59.8158503,152.128358 60.4939247,154.184478 61.5110364,156.240597 C63.7147782,161.380896 64.5623712,167.035224 66.5965945,172.346866 C66.5965945,172.346866 66.5965945,172.518209 66.5965945,172.518209 C67.2746689,174.231642 68.2917805,175.773731 69.3088922,177.315821 C69.9869666,178.343881 71.512634,179.543284 71.512634,180.742687 C71.512634,181.085373 71.0040782,181.256716 70.8345596,180.91403 C68.2917805,178.343881 65.5794829,175.088358 64.0538154,172.004179 C63.8842968,171.832836 63.7147782,171.661493 63.5452596,171.832836 C63.375741,171.832836 63.2062224,172.175522 63.375741,172.346866 C65.0709271,175.773731 68.2917805,179.37194 71.0040782,182.113433 C71.1735968,182.284776 71.1735968,182.456119 71.0040782,182.456119 C70.8345596,182.627463 70.665041,182.798806 70.665041,183.141493 C70.4955224,183.312836 70.3260038,183.312836 69.9869666,183.141493 C66.9356317,180.571343 64.223334,177.144478 61.680555,173.032239 C61.5110364,172.860896 61.3415178,172.689552 61.0024806,172.860896 C60.832962,173.032239 60.6634433,173.203582 60.832962,173.374925 C63.5452596,177.658507 66.2575573,181.085373 69.3088922,183.655522 C69.4784108,183.826866 69.4784108,183.998209 69.3088922,184.169552 C69.1393736,184.340896 69.1393736,184.340896 68.969855,184.340896 C68.8003363,184.512239 68.6308177,184.512239 68.4612991,184.340896 C64.7318898,181.42806 61.680555,178.001194 59.3072945,174.231642 C59.1377759,174.060299 58.9682573,173.888955 58.6292201,174.060299 C58.4597015,174.231642 58.2901829,174.402985 58.4597015,174.574328 C60.6634433,178.172537 63.7147782,181.599403 67.1051503,184.340896 C67.4441875,184.512239 67.2746689,185.026269 66.9356317,185.026269 C66.9356317,185.026269 66.9356317,185.026269 66.9356317,185.026269 C66.2575573,185.026269 64.9014085,184.169552 64.3928526,183.826866 C60.6634433,181.256716 57.2730713,177.658507 54.391255,174.060299 C53.8826992,173.203582 53.2046248,172.175522 52.5265503,170.976119 Z" id="Path" fill="#D6AA85"></path>
                            <path d="M38.6260248,146.645373 C36.0832457,137.906866 35.0661341,128.140299 34.3880597,123.856716 C30.9976876,102.438806 24.3864621,81.5349254 14.8934202,62.1731343 C7.60412024,47.4376119 -1.71940299,32.1880597 0.823376077,15.9104478 C1.8404877,9.39940299 5.40037839,2.54567164 11.6725667,0.660895522 C14.554383,-0.195820896 17.7752365,0.146865672 20.4875342,1.17492537 C31.1672062,4.94447761 36.5918016,16.4244776 40.9992853,26.8764179 C50.1532899,48.6370149 59.3072945,70.5689552 63.8842968,93.7002985 C66.5965945,106.893731 73.7163759,154.013134 57.7816271,161.552239 C47.4409922,166.692537 41.8468783,157.44 38.6260248,146.645373 Z" id="Path" fill="#D32951"></path>
                        </g>
                        <path d="M201.388102,203.36 C202.405213,200.104478 203.083288,197.191642 206.47366,197.020299 C209.524995,196.848955 207.321253,199.590448 210.372588,199.933134 C212.57633,200.104478 216.13622,200.275821 218.170444,200.961194 C221.391297,202.160597 222.577927,204.559403 223.256002,207.986269 C223.934076,211.927164 224.103595,216.039403 223.934076,220.151642 C223.764557,222.379104 223.42552,224.77791 221.560816,225.977313 C219.357074,227.519403 216.13622,226.491343 214.271516,224.435224 C213.593441,223.749851 212.915367,222.721791 212.57633,221.865075 C212.067774,220.665672 211.898255,219.466269 211.559218,218.438209 C210.711625,216.210746 209.016439,214.32597 206.812697,213.81194 C203.930881,213.126567 203.422325,216.724776 201.388102,214.497313 C199.014841,211.927164 200.37099,206.444179 201.388102,203.36 Z" id="Path" fill="#140700"></path>
                        <path d="M207.490771,240.198806 C207.490771,240.198806 211.050662,243.282985 215.627664,243.282985 C220.204667,243.282985 223.764557,240.198806 223.764557,240.198806 L219.86563,217.752836 C219.86563,211.584478 214.94959,206.615522 208.84692,206.615522 L208.84692,236.600597 L207.490771,240.198806 Z" id="Path" fill="#EBBF9A"></path>
                        <path d="M219.187555,213.29791 C218.848518,207.129552 213.593441,202.503284 207.490771,203.017313 L207.490771,203.017313 C201.388102,203.36 196.811099,208.842985 197.319655,214.84 L197.99773,225.463284 C198.167248,227.519403 200.710027,233.516418 209.524995,232.831045 C218.339962,232.145672 220.035148,224.263881 220.035148,224.263881 L219.187555,213.29791 Z" id="Path" fill="#EBBF9A"></path>
                        <path d="M198.336767,208.328955 C198.336767,208.328955 197.150137,207.472239 197.150137,207.472239 C203.083288,207.986269 208.677402,208.500299 210.203069,208.328955 C211.050662,215.35403 214.101997,215.182687 217.492369,216.210746 C220.543704,217.238806 223.764557,215.696716 223.256002,211.755821 C222.916964,209.528358 221.221778,206.444179 219.526592,204.90209 C216.644776,202.503284 213.084885,200.961194 209.355476,200.447164 C205.626067,200.104478 201.727139,200.961194 198.845323,203.36 C197.658692,204.38806 197.828211,206.786866 198.336767,208.328955 Z" id="Path" fill="#140700"></path>
                        <path d="M210.203069,208.500299 L210.203069,212.441194 C210.203069,213.81194 211.220181,214.84 212.57633,214.84 L212.57633,214.84 C213.932478,214.84 214.94959,213.81194 214.94959,212.441194 L214.94959,208.671642 L210.203069,208.500299 Z" id="Path" fill="#15203D"></path>
                        <path d="M214.780071,220.151642 C216.814295,221.351045 219.357074,220.665672 220.543704,218.609552 C221.730334,216.553433 221.05226,213.983284 219.018037,212.783881 C216.983813,211.584478 214.441034,212.269851 213.254404,214.32597 C212.067774,216.38209 212.745848,218.952239 214.780071,220.151642 Z" id="Path" fill="#EBBF9A"></path>
                        <path d="M223.934076,209.528358 L223.934076,210.899104 L195.963506,210.899104 L195.963506,209.528358 C195.963506,201.81791 202.235695,195.478209 209.864032,195.478209 L209.864032,195.478209 C217.661888,195.478209 223.934076,201.81791 223.934076,209.528358 Z" id="Path" fill="#EBB41C"></path>
                        <rect id="Rectangle" fill="#C18A00" x="178.333572" y="209.357015" width="45.6005045" height="1.54208955"></rect>
                    </g>
                </g>
            </g>
        </g>
    </g>
</svg>