<?xml version="1.0" encoding="UTF-8"?>
<svg width="100%" height="246px" viewBox="0 0 320 246" version="1.1" xmlns="http://www.w3.org/2000/svg" xmlns:xlink="http://www.w3.org/1999/xlink">
    <!-- Generator: Sketch 61 (89581) - https://sketch.com -->
    <title>ACS-Illustration-02</title>
    <desc>Created with Sketch.</desc>
    <g id="02-PAGES" stroke="none" stroke-width="1" fill="none" fill-rule="evenodd">
        <g id="01-ACS-PROD-Pages-Home" transform="translate(-126.000000, -1178.000000)">
            <g id="Body" transform="translate(0.000000, 1.000000)">
                <g id="support-workers" transform="translate(100.000000, 831.000000)">
                    <g id="left" transform="translate(0.000000, 170.000000)">
                        <g id="ACS-Illustration-02" transform="translate(23.000000, 176.000000)">
                            <g id="ACS-homepage_illos-02">
                                <path d="M4.00664953,231.881544 C5.13381021,197.338227 89.2221568,197.775281 142.225533,188.718606 C195.228909,179.661932 267.072711,160.60473 308.573579,181.266001 C350.074446,201.927273 279.838916,238.953373 212.588394,238.435551 C145.337873,237.91773 2.87948885,266.42486 4.00664953,231.881544 Z" id="Background-Shape" fill="#F2F2F2" transform="translate(162.500000, 210.500000) scale(-1, 1) rotate(7.000000) translate(-162.500000, -210.500000) "></path>
                                <path d="M192.733333,48.7384615 C193.635897,49.9794872 194.538462,50.6564103 195.666667,51.6717949 C195.102564,54.1538462 193.861538,56.5230769 192.620513,58.5538462 C192.394872,58.8923077 192.282051,59.1179487 192.05641,59.4564103 C189.461538,56.974359 186.753846,54.6051282 184.158974,52.2358974 C181.564103,49.9794872 179.307692,47.6102564 179.194872,47.1589744 C178.85641,46.1435897 178.85641,46.4820513 178.85641,46.1435897 C178.85641,46.0307692 178.85641,45.9179487 178.85641,45.8051282 C178.85641,45.6923077 178.969231,45.5794872 179.082051,45.6923077 C179.307692,45.9179487 179.533333,46.1435897 179.758974,46.2564103 C181.112821,47.4974359 182.466667,48.625641 183.594872,49.5282051 C183.594872,49.5282051 183.707692,49.5282051 183.820513,49.5282051 C183.933333,49.5282051 183.933333,49.5282051 183.933333,49.4153846 C184.046154,49.3025641 183.933333,49.1897436 183.933333,49.0769231 C182.692308,48.174359 181.451282,47.0461538 180.097436,45.8051282 C179.871795,45.5794872 179.533333,45.3538462 179.307692,45.1282051 C179.082051,45.0153846 179.082051,44.6769231 179.194872,44.4512821 C179.194872,44.4512821 179.194872,44.4512821 179.194872,44.4512821 C179.194872,44.4512821 179.194872,44.4512821 179.194872,44.4512821 C179.307692,44.1128205 179.758974,44 180.097436,44.225641 C180.323077,44.4512821 180.548718,44.6769231 180.774359,44.7897436 C182.241026,46.0307692 183.707692,47.3846154 184.948718,48.0615385 C184.948718,48.0615385 185.061538,48.0615385 185.061538,48.0615385 C185.174359,48.0615385 185.174359,48.0615385 185.287179,47.9487179 C185.4,47.8358974 185.287179,47.7230769 185.174359,47.6102564 C184.046154,46.9333333 182.579487,45.6923077 181.112821,44.4512821 C180.774359,44.225641 180.435897,43.8871795 180.210256,43.6615385 C179.984615,43.4358974 179.984615,43.0974359 180.097436,42.8717949 L180.097436,42.8717949 C180.323077,42.6461538 180.661538,42.5333333 180.887179,42.7589744 C182.579487,44.225641 184.271795,45.5794872 185.964103,46.9333333 C185.964103,46.9333333 186.076923,47.0461538 186.189744,46.9333333 C186.302564,46.9333333 186.302564,46.9333333 186.302564,46.8205128 C186.415385,46.7076923 186.415385,46.5948718 186.302564,46.4820513 C184.497436,45.1282051 182.805128,43.6615385 181.112821,42.1948718 C181,42.0820513 181,41.8564103 181.112821,41.7435897 C181.225641,41.6307692 181.451282,41.6307692 181.564103,41.6307692 C182.466667,41.6307692 183.820513,42.8717949 184.610256,43.4358974 C185.964103,44.4512821 187.994872,45.6923077 190.364103,47.1589744 C190.138462,47.1589744 189.8,42.8717949 190.364103,42.8717949 C190.589744,42.8717949 190.702564,42.9846154 190.815385,43.2102564 C190.928205,43.4358974 190.928205,43.5487179 190.928205,43.774359 C191.153846,45.6923077 191.717949,47.3846154 192.733333,48.7384615 Z" id="Path" fill="#B78767" fill-rule="nonzero"></path>
                                <path d="M193.748718,50.8820513 C193.974359,50.7692308 194.087179,50.6564103 194.312821,50.5435897 C194.876923,50.2051282 196.005128,50.8820513 197.133333,51.6717949 C199.728205,53.3641026 210.558974,60.4717949 215.861538,61.374359 C222.85641,62.6153846 228.497436,38.3589744 231.769231,33.6205128 C233.010256,31.8153846 234.364103,30.1230769 236.282051,29.1076923 C238.2,28.0923077 240.682051,27.8666667 242.374359,29.1076923 C243.276923,29.7846154 243.953846,30.8 244.517949,31.8153846 C246.661538,35.5384615 248.917949,39.374359 249.030769,43.6615385 C249.14359,48.8512821 246.210256,53.4769231 243.389744,57.7641026 C237.184615,67.2410256 227.820513,82.2461538 214.507692,75.7025641 C211.123077,74.0102564 207.964103,72.0923077 204.805128,70.0615385 C200.517949,67.1282051 196.45641,63.7435897 192.733333,60.1333333 C192.169231,59.5692308 191.266667,58.8923077 190.476923,58.1025641 C190.815385,55.3948718 191.94359,52.9128205 193.748718,50.8820513 Z" id="Path" fill="#E2E2E2" fill-rule="nonzero"></path>
                                <path d="M195.441026,62.5025641 C196.34359,59.2307692 198.035897,56.1846154 200.292308,53.7025641 L199.953846,53.4769231 C197.584615,55.9589744 195.892308,59.1179487 194.989744,62.5025641 L195.441026,62.5025641 Z" id="Path" fill="#C4C5CC" fill-rule="nonzero"></path>
                                <path d="M183.933333,55.2820513 L192.282051,44.7897436 C193.297436,43.4358974 193.071795,41.5179487 191.830769,40.5025641 L177.164103,28.7692308 C175.810256,27.7538462 173.892308,27.9794872 172.876923,29.2205128 L164.528205,39.7128205 C163.512821,41.0666667 163.738462,42.9846154 164.979487,44 L179.646154,55.7333333 C181,56.7487179 182.917949,56.6358974 183.933333,55.2820513 Z" id="Path" fill="#171F3D" fill-rule="nonzero"></path>
                                <path d="M183.030769,52.8 L189.687179,44.4512821 C190.476923,43.4358974 190.364103,41.9692308 189.348718,41.1794872 L177.051282,31.3641026 C176.035897,30.574359 174.569231,30.6871795 173.779487,31.7025641 L167.123077,40.0512821 C166.333333,41.0666667 166.446154,42.5333333 167.461538,43.3230769 L179.758974,53.1384615 C180.774359,54.0410256 182.241026,53.9282051 183.030769,52.8 Z" id="Path" fill="#7DDBED" fill-rule="nonzero"></path>
                                <path d="M188.446154,42.4205128 C188.220513,42.3076923 187.882051,42.0820513 187.65641,42.1948718 C187.205128,42.4205128 187.430769,43.0974359 187.769231,43.4358974 C188.671795,44.5641026 189.8,45.5794872 191.041026,46.3692308 C190.928205,46.9333333 190.702564,47.4974359 190.251282,47.9487179 C190.928205,48.4 191.605128,48.7384615 192.282051,49.1897436 C192.394872,49.3025641 192.507692,49.3025641 192.620513,49.3025641 C192.733333,49.3025641 192.846154,49.1897436 192.958974,49.1897436 C196.794872,45.9179487 191.379487,44.225641 188.446154,42.4205128 Z" id="Path" fill="#B78767" fill-rule="nonzero"></path>
                                <g id="Group" transform="translate(27.000000, 6.769231)" fill-rule="nonzero">
                                    <g transform="translate(40.615385, 0.000000)">
                                        <g id="XMLID_5_" transform="translate(8.641026, 192.923077)" fill="#D6AA85">
                                            <g id="Group">
                                                <path d="M60.6307692,20.1948718 L42.3538462,20.1948718 C42.3538462,19.5179487 42.3538462,18.7282051 42.3538462,18.0512821 C42.3538462,17.1487179 42.3538462,16.2461538 42.3538462,15.5692308 L42.3538462,0.451282051 L53.6358974,0.451282051 L52.3948718,11.5076923 C52.3948718,11.5076923 56.2307692,14.5538462 58.6,16.4717949 C59.1641026,16.9230769 59.6153846,17.4871795 60.0666667,18.1641026 C60.4051282,18.7282051 60.6307692,19.4051282 60.6307692,20.1948718 Z" id="Path"></path>
                                            </g>
                                        </g>
                                        <g transform="translate(10.025641, 192.923077)" fill="#D6AA85" id="Path">
                                            <path d="M0.241025641,20.1948718 L18.5179487,20.1948718 C18.5179487,19.5179487 18.5179487,18.7282051 18.5179487,18.0512821 C18.5179487,17.1487179 18.5179487,16.2461538 18.5179487,15.5692308 L18.5179487,0.451282051 L7.23589744,0.451282051 L8.47692308,11.5076923 C8.47692308,11.5076923 4.64102564,14.5538462 2.27179487,16.4717949 C1.70769231,16.9230769 1.25641026,17.4871795 0.805128205,18.1641026 C0.466666667,18.7282051 0.241025641,19.4051282 0.241025641,20.1948718 Z"></path>
                                        </g>
                                        <path d="M66,197.661538 C65.774359,199.579487 64.1948718,201.046154 62.2769231,201.046154 L53.7025641,201.046154 C51.5589744,201.046154 49.7538462,199.241026 49.8666667,197.097436 L54.3794872,96.6871795 C54.4923077,94.7692308 54.0410256,92.8512821 53.1384615,91.1589744 C52.9128205,90.9333333 52.574359,90.8205128 52.3487179,90.8205128 C51.7846154,90.8205128 51.3333333,91.1589744 51.2205128,91.7230769 L32.7179487,197.887179 C32.3794872,199.692308 30.8,201.046154 28.9948718,201.046154 L18.9538462,201.046154 C16.6974359,201.046154 14.8923077,199.128205 15.2307692,196.871795 C15.2307692,184.687179 17.9384615,171.938462 19.2923077,159.753846 C21.774359,137.641026 24.1435897,115.415385 26.8512821,93.3025641 C27.3025641,89.8051282 27.7538462,86.3076923 28.8820513,83.0358974 C30.1230769,79.6512821 32.1538462,76.4923077 34.0717949,73.4461538 C36.2153846,70.0615385 38.5846154,63.8564103 41.9692308,61.6 C42.0820513,61.4871795 42.3076923,61.374359 42.4205128,61.374359 C44.225641,60.4717949 47.1589744,60.0205128 48.9641026,59.4564103 C53.025641,58.1025641 57.0871795,56.8615385 61.1487179,55.5076923 L61.6,55.3948718 L61.7128205,55.6205128 C61.7128205,55.6205128 65.4358974,61.6 65.4358974,61.7128205 C66.225641,63.0666667 67.0153846,64.5333333 67.8051282,66 C71.3025641,73.1076923 73.8974359,81.6820513 74.9128205,89.0153846 C75.1384615,90.5948718 75.2512821,92.2871795 75.3641026,93.8666667 C75.4769231,95.6717949 75.4769231,97.3641026 75.4769231,99.1692308 C76.3794872,131.887179 66,164.717949 66,197.661538 Z" id="Path" fill="#393294"></path>
                                        <path d="M43.8871795,4.96410256 C43.6615385,5.3025641 43.4358974,5.64102564 43.2102564,5.97948718 C41.8564103,8.34871795 41.4051282,11.1692308 40.0512821,13.5384615 C39.2615385,14.7794872 38.2461538,15.9076923 37.4564103,17.1487179 C34.974359,20.7589744 34.2974359,25.6102564 35.7641026,29.8974359 C38.3589744,37.4564103 47.2717949,43.0974359 55.0564103,42.0820513 C63.1794872,41.0666667 58.1025641,34.974359 61.0358974,30.1230769 C61.6,29.2205128 62.3897436,28.7692308 63.1794872,28.3179487 C67.2410256,25.8358974 68.9333333,19.6307692 67.3538462,15.2307692 C65.2102564,9.02564103 60.1333333,0.338461538 52.574359,0.451282051 C49.0769231,0.564102564 45.8051282,2.25641026 43.8871795,4.96410256 Z" id="Path" fill="#1E1700"></path>
                                        <g transform="translate(45.128205, 4.512821)" id="Path">
                                            <polygon fill="#D6AA85" points="13.9897436 22.9025641 11.5076923 12.2974359 7.44615385 12.2974359 5.18974359 12.2974359 2.36923077 23.8051282 6.99487179 24.5948718"></polygon>
                                            <path d="M6.20512821,12.6358974 L6.43076923,13.6512821 C6.54358974,14.3282051 6.88205128,14.8923077 7.22051282,15.4564103 C8.46153846,17.4871795 10.6051282,18.7282051 12.974359,18.6153846 L11.5076923,12.2974359 L7.55897436,12.2974359 L6.20512821,12.6358974 Z" fill="#15203D" opacity="0.25"></path>
                                            <path d="M3.4974359,9.36410256 C3.61025641,9.92820513 3.83589744,10.6051282 4.17435897,11.1692308 L5.41538462,13.425641 L5.52820513,13.6512821 C7.33333333,16.8102564 12.7487179,17.7128205 14.5538462,16.5846154 C16.2461538,15.5692308 17.2615385,13.2 17.4871795,10.8307692 C17.6,8.91282051 17.0358974,6.99487179 16.1333333,5.3025641 L15.6820513,4.62564103 C15.6820513,4.51282051 15.5692308,4.4 15.5692308,4.4 C13.6512821,1.46666667 9.7025641,0.451282051 6.65641026,2.25641026 C3.94871795,3.4974359 2.82051282,6.54358974 3.4974359,9.36410256 Z" fill="#D6AA85"></path>
                                            <path d="M15.4564103,4.17435897 C15.6820513,-2.70769231 7.22051282,1.57948718 4.51282051,2.25641026 C1.69230769,2.93333333 0,5.75384615 0.676923077,8.57435897 L1.35384615,11.2820513 L3.4974359,9.36410256 C3.61025641,9.92820513 3.83589744,10.4923077 4.17435897,11.0564103 L5.41538462,13.3128205 C6.20512821,12.7487179 6.65641026,11.8461538 6.99487179,10.9435897 C7.33333333,9.81538462 7.22051282,8.57435897 7.10769231,7.44615385 C6.99487179,6.99487179 6.99487179,6.43076923 7.22051282,6.09230769 C7.78461538,5.07692308 9.25128205,5.3025641 10.2666667,4.73846154 C11.0564103,4.28717949 11.3948718,3.15897436 10.9435897,2.36923077 C11.5076923,3.61025641 13.7641026,4.28717949 15.4564103,4.17435897 Z" fill="#D6AA85"></path>
                                            <path d="M1.91794872,12.6358974 C2.25641026,13.9897436 3.72307692,14.8923077 5.07692308,14.5538462 C6.43076923,14.2153846 7.33333333,12.7487179 6.99487179,11.3948718 C6.65641026,10.0410256 5.18974359,9.13846154 3.83589744,9.47692308 C2.48205128,9.81538462 1.57948718,11.1692308 1.91794872,12.6358974 Z" fill="#15203D" opacity="0.25"></path>
                                            <path d="M2.36923077,11.7333333 C2.70769231,13.0871795 4.17435897,13.9897436 5.52820513,13.6512821 C6.88205128,13.3128205 7.78461538,11.8461538 7.44615385,10.4923077 C7.10769231,9.13846154 5.64102564,8.23589744 4.28717949,8.57435897 C2.93333333,8.91282051 2.03076923,10.3794872 2.36923077,11.7333333 Z" fill="#D6AA85"></path>
                                        </g>
                                        <path d="M60.2461538,27.7538462 C58.3282051,27.1897436 56.6358974,26.0615385 54.7179487,25.8358974 C52.4615385,25.4974359 50.3179487,26.4 48.174359,27.0769231 C45.6923077,27.7538462 43.0974359,28.0923077 40.5025641,28.0923077 C39.0358974,28.0923077 37.0051282,28.2051282 36.6666667,29.6717949 C36.3282051,30.9128205 37.4564103,32.1538462 38.5846154,32.8307692 C42.5333333,35.425641 46.8205128,37.4564103 51.4461538,38.2461538 C56.6358974,39.0358974 62.2769231,38.0205128 66.3384615,34.6358974 C68.0307692,33.2820513 69.8358974,31.4769231 67.8051282,29.5589744 C66,27.6410256 62.5025641,28.3179487 60.2461538,27.7538462 Z" id="Path" fill="#D6AA85"></path>
                                        <path d="M45.2410256,37.5692308 C42.8717949,36.4410256 40.6153846,34.7487179 39.7128205,32.3794872 C39.374359,31.4769231 39.2615385,30.3487179 40.0512821,29.6717949 C41.6307692,28.3179487 45.0153846,29.3333333 46.9333333,28.5435897 C48.9641026,27.7538462 50.2051282,25.1589744 51.7846154,24.7076923 C55.6205128,23.3538462 57.6512821,27.4153846 60.9230769,29.3333333 C62.6153846,30.3487179 65.6615385,30.4615385 65.774359,32.7179487 C65.774359,34.7487179 62.0512821,36.7794872 60.5846154,37.5692308 C55.7333333,39.825641 49.9794872,39.7128205 45.2410256,37.5692308 Z" id="Path" fill="#D6AA85"></path>
                                        <path d="M89.1282051,81.7948718 C89.0153846,82.3589744 89.0153846,83.0358974 88.9025641,83.6 C87.774359,92.4 85.9692308,100.974359 83.7128205,109.548718 C83.0358974,112.14359 82.3589744,114.851282 80.8923077,117.107692 C80.3282051,118.010256 78.6358974,120.153846 77.0564103,120.830769 C78.6358974,119.025641 80.2153846,116.65641 81.3435897,112.820513 C81.3435897,112.707692 81.3435897,112.482051 81.1179487,112.482051 C80.8923077,112.482051 80.7794872,112.482051 80.7794872,112.707692 C79.5384615,116.882051 77.8461538,119.251282 76.0410256,121.05641 C75.8153846,121.05641 75.7025641,120.94359 75.4769231,120.830769 C75.4769231,120.830769 75.4769231,120.830769 75.4769231,120.830769 C77.5076923,117.897436 79.0871795,114.4 79.425641,112.25641 C79.425641,112.030769 79.3128205,111.917949 79.2,111.917949 C78.974359,111.917949 78.8615385,112.030769 78.8615385,112.14359 C78.5230769,114.174359 77.0564103,117.671795 75.1384615,120.379487 C74.2358974,119.025641 76.1538462,116.65641 76.6051282,115.415385 C77.1692308,113.948718 78.5230769,110.225641 76.7179487,109.323077 C75.9282051,110.451282 75.5897436,111.805128 75.025641,113.046154 C74.9128205,113.271795 74.6871795,113.610256 74.4615385,113.497436 C74.2358974,113.497436 74.1230769,113.158974 74.1230769,112.820513 C74.0102564,107.292308 77.3948718,102.441026 78.0717949,97.025641 C78.7487179,91.8358974 78.8615385,86.5333333 78.6358974,81.3435897 C78.5230769,78.8615385 78.2974359,76.3794872 77.9589744,73.8974359 C77.7333333,72.5435897 76.2666667,65.4358974 74.8,59.7948718 C75.4769231,59.5692308 76.2666667,59.3435897 77.0564103,59.1179487 C78.2974359,58.8923077 83.2615385,57.2 87.2102564,55.0564103 C89.3538462,63.8564103 90.0307692,72.9948718 89.1282051,81.7948718 Z" id="Path" fill="#F8C208"></path>
                                        <path d="M89.1282051,81.7948718 C89.0153846,82.3589744 89.0153846,83.0358974 88.9025641,83.6 C87.774359,92.4 85.9692308,100.974359 83.7128205,109.548718 C83.0358974,112.14359 82.3589744,114.851282 80.8923077,117.107692 C80.3282051,118.010256 78.6358974,120.153846 77.0564103,120.830769 C78.6358974,119.025641 80.2153846,116.65641 81.3435897,112.820513 C81.3435897,112.707692 81.3435897,112.482051 81.1179487,112.482051 C80.8923077,112.482051 80.7794872,112.482051 80.7794872,112.707692 C79.5384615,116.882051 77.8461538,119.251282 76.0410256,121.05641 C75.8153846,121.05641 75.7025641,120.94359 75.4769231,120.830769 C75.4769231,120.830769 75.4769231,120.830769 75.4769231,120.830769 C77.5076923,117.897436 79.0871795,114.4 79.425641,112.25641 C79.425641,112.030769 79.3128205,111.917949 79.2,111.917949 C78.974359,111.917949 78.8615385,112.030769 78.8615385,112.14359 C78.5230769,114.174359 77.0564103,117.671795 75.1384615,120.379487 C74.2358974,119.025641 76.1538462,116.65641 76.6051282,115.415385 C77.1692308,113.948718 78.5230769,110.225641 76.7179487,109.323077 C75.9282051,110.451282 75.5897436,111.805128 75.025641,113.046154 C74.9128205,113.271795 74.6871795,113.610256 74.4615385,113.497436 C74.2358974,113.497436 74.1230769,113.158974 74.1230769,112.820513 C74.0102564,107.292308 77.3948718,102.441026 78.0717949,97.025641 C78.7487179,91.8358974 78.8615385,86.5333333 78.6358974,81.3435897 C78.5230769,78.8615385 78.2974359,76.3794872 77.9589744,73.8974359 C77.8461538,73.1076923 77.2820513,70.4 76.6051282,67.1282051 C76.0410256,64.7589744 75.4769231,62.1641026 74.8,59.7948718 C73.7846154,55.7333333 72.6564103,52.574359 72.2051282,52.8 C71.7538462,53.025641 71.6410256,53.5897436 71.5282051,54.0410256 C70.7384615,57.425641 69.9487179,60.6974359 69.7230769,64.0820513 C69.7230769,64.7589744 69.6102564,65.5487179 69.2717949,66.1128205 C68.7076923,67.1282051 67.3538462,67.4666667 66.225641,67.6923077 C60.5846154,68.9333333 53.9282051,68.1435897 48.174359,67.6923077 C45.3538462,67.4666667 40.2769231,67.6923077 37.7948718,66 C37.1179487,65.5487179 35.2,61.4871795 34.1846154,58.5538462 C33.9589744,61.9384615 33.6205128,64.9846154 33.0564103,67.8051282 C31.9282051,73.7846154 29.7846154,78.8615385 26.0615385,84.8410256 C23.3538462,89.1282051 20.4205128,91.7230769 14.7794872,99.8461538 C13.0871795,102.328205 12.1846154,105.374359 10.4923077,107.85641 C10.1538462,108.307692 9.47692308,108.082051 9.47692308,107.517949 C9.92820513,104.246154 10.4923077,103.794872 10.7179487,102.215385 C10.4923077,103.117949 6.20512821,108.758974 4.96410256,111.128205 L4.96410256,111.128205 C4.73846154,111.692308 3.94871795,111.353846 4.06153846,110.789744 C4.85128205,108.420513 5.86666667,106.276923 7.10769231,104.133333 C7.22051282,104.020513 7.10769231,103.794872 6.99487179,103.794872 C6.88205128,103.682051 6.65641026,103.794872 6.65641026,103.907692 C5.07692308,106.502564 4.4,108.420513 3.61025641,111.353846 C3.4974359,111.353846 3.38461538,111.241026 3.27179487,111.128205 C3.4974359,108.533333 3.94871795,107.179487 4.96410256,104.697436 C5.18974359,104.246154 5.3025641,103.794872 5.52820513,103.45641 C5.64102564,103.34359 5.52820513,103.117949 5.41538462,103.117949 C5.3025641,103.005128 5.07692308,103.117949 5.07692308,103.230769 C4.85128205,103.682051 4.73846154,104.133333 4.51282051,104.471795 C3.72307692,106.389744 2.82051282,108.420513 2.36923077,110.564103 C1.91794872,110.564103 2.36923077,110.564103 1.91794872,110.676923 C1.80512821,110.451282 1.69230769,110.225641 1.57948718,110 C1.91794872,107.066667 3.15897436,104.020513 3.94871795,102.553846 C4.06153846,102.441026 3.94871795,102.215385 3.83589744,102.215385 C3.72307692,102.102564 3.4974359,102.215385 3.4974359,102.328205 C2.82051282,103.569231 1.91794872,105.712821 1.35384615,107.969231 C1.35384615,108.194872 0.902564103,108.194872 0.902564103,107.969231 C0.676923077,106.276923 1.12820513,104.697436 2.25641026,102.441026 C4.96410256,97.025641 9.7025641,89.6923077 12.974359,84.5025641 C18.0512821,76.4923077 19.6307692,70.4 20.7589744,63.6307692 C21.5487179,59.1179487 22,54.3794872 23.2410256,48.5128205 C24.1435897,44.1128205 25.2717949,39.7128205 26.9641026,35.5384615 C27.9794872,32.9435897 29.2205128,30.4615385 31.2512821,28.6564103 C33.6205128,26.5128205 36.8923077,25.6102564 40.0512821,25.9487179 C41.6307692,25.9487179 43.2102564,26.5128205 44.9025641,27.7538462 C48.0615385,30.0102564 50.0923077,33.9589744 54.6051282,32.8307692 C57.0871795,32.2666667 59.1179487,30.574359 61.374359,29.2205128 C69.0461538,24.8205128 75.7025641,30.8 79.6512821,37.2307692 C81.3435897,40.0512821 82.8102564,42.9846154 84.1641026,46.0307692 C85.4051282,48.9641026 86.3076923,51.8974359 87.0974359,55.0564103 C87.6615385,57.3128205 88.1128205,59.5692308 88.4512821,61.825641 C89.5794872,68.5948718 89.8051282,75.2512821 89.1282051,81.7948718 Z" id="Path" fill="#F46951"></path>
                                        <path d="M30.8,67.6923077 C29.8974359,67.6923077 28.9948718,67.6923077 28.0923077,67.6923077 C25.8358974,67.5794872 22.5641026,67.1282051 20.5333333,65.4358974 C19.4051282,71.6410256 17.7128205,77.3948718 12.974359,84.8410256 C9.7025641,90.0307692 5.07692308,97.3641026 2.25641026,102.779487 C1.12820513,105.035897 0.676923077,106.615385 0.902564103,108.307692 C0.902564103,108.533333 1.24102564,108.533333 1.35384615,108.307692 C1.91794872,105.938462 2.82051282,103.794872 3.4974359,102.666667 C3.61025641,102.553846 3.72307692,102.441026 3.83589744,102.553846 C3.94871795,102.666667 4.06153846,102.779487 3.94871795,102.892308 C3.04615385,104.358974 1.80512821,107.405128 1.57948718,110.338462 C1.69230769,110.564103 1.80512821,110.789744 1.91794872,111.015385 C2.36923077,111.015385 1.91794872,111.015385 2.36923077,110.902564 C2.70769231,108.758974 3.61025641,106.728205 4.51282051,104.810256 C4.73846154,104.358974 4.85128205,103.907692 5.07692308,103.569231 C5.18974359,103.45641 5.3025641,103.34359 5.41538462,103.45641 C5.52820513,103.45641 5.64102564,103.682051 5.52820513,103.794872 C5.3025641,104.246154 5.18974359,104.697436 4.96410256,105.035897 C3.94871795,107.405128 3.38461538,108.758974 3.27179487,111.466667 C3.38461538,111.579487 3.4974359,111.579487 3.61025641,111.692308 C4.4,108.758974 5.07692308,106.841026 6.65641026,104.246154 C6.76923077,104.133333 6.88205128,104.133333 6.99487179,104.133333 C7.10769231,104.246154 7.22051282,104.358974 7.10769231,104.471795 C5.86666667,106.615385 4.85128205,108.758974 4.06153846,111.128205 C3.83589744,111.692308 4.62564103,112.030769 4.96410256,111.466667 L4.96410256,111.466667 C6.09230769,109.097436 10.4923077,103.45641 10.7179487,102.553846 C10.3794872,104.020513 9.81538462,104.584615 9.47692308,107.85641 C9.36410256,108.420513 10.1538462,108.646154 10.4923077,108.194872 C12.1846154,105.712821 13.0871795,102.666667 14.7794872,100.184615 C20.4205128,92.174359 23.3538462,89.4666667 26.0615385,85.1794872 C29.7846154,79.0871795 31.9282051,74.0102564 33.0564103,68.1435897 C32.7179487,68.0307692 32.2666667,68.0307692 31.9282051,67.9179487 C31.4769231,67.8051282 31.1384615,67.6923077 30.8,67.6923077 Z" id="Path" fill="#D6AA85"></path>
                                        <path d="M89.1282051,81.7948718 C89.0153846,82.3589744 89.0153846,83.0358974 88.9025641,83.6 C87.774359,92.4 85.9692308,100.974359 83.7128205,109.548718 C83.0358974,112.14359 82.3589744,114.851282 80.8923077,117.107692 C80.3282051,118.010256 78.6358974,120.153846 77.0564103,120.830769 C78.6358974,119.025641 80.2153846,116.65641 81.3435897,112.820513 C81.3435897,112.707692 81.3435897,112.482051 81.1179487,112.482051 C80.8923077,112.482051 80.7794872,112.482051 80.7794872,112.707692 C79.5384615,116.882051 77.8461538,119.251282 76.0410256,121.05641 C75.8153846,121.05641 75.7025641,120.94359 75.4769231,120.830769 C75.4769231,120.830769 75.4769231,120.830769 75.4769231,120.830769 C77.5076923,117.897436 79.0871795,114.4 79.425641,112.25641 C79.425641,112.030769 79.3128205,111.917949 79.2,111.917949 C78.974359,111.917949 78.8615385,112.030769 78.8615385,112.14359 C78.5230769,114.174359 77.0564103,117.671795 75.1384615,120.379487 C74.2358974,119.025641 76.1538462,116.65641 76.6051282,115.415385 C77.1692308,113.948718 78.5230769,110.225641 76.7179487,109.323077 C75.9282051,110.451282 75.5897436,111.805128 75.025641,113.046154 C74.9128205,113.271795 74.6871795,113.610256 74.4615385,113.497436 C74.2358974,113.497436 74.1230769,113.158974 74.1230769,112.820513 C74.0102564,107.292308 77.3948718,102.441026 78.0717949,97.025641 C78.7487179,91.8358974 78.8615385,86.5333333 78.6358974,81.3435897 C78.5230769,78.8615385 78.2974359,76.3794872 77.9589744,73.8974359 C77.8461538,73.1076923 77.2820513,70.4 76.6051282,67.1282051 C80.8923077,65.774359 84.9538462,64.0820513 88.6769231,61.825641 C89.5794872,68.5948718 89.8051282,75.2512821 89.1282051,81.7948718 Z" id="Path" fill="#D6AA85"></path>
                                    </g>
                                    <g transform="translate(0.000000, 71.076923)" id="Path">
                                        <path d="M46.9333333,69.2717949 L46.7076923,71.0769231 L45.4666667,80.1025641 C44.9025641,83.374359 44.3384615,86.5333333 43.774359,89.8051282 C43.6615385,90.2564103 43.6615385,90.5948718 43.5487179,91.0461538 C41.4051282,103.230769 39.1487179,115.528205 36.8923077,127.712821 C36.3282051,130.533333 35.8769231,133.353846 35.3128205,136.174359 C35.2,137.076923 35.3128205,137.753846 35.7641026,138.317949 C36.2153846,138.994872 37.0051282,139.446154 37.7948718,139.784615 C39.2615385,140.461538 40.8410256,140.687179 40.0512821,141.476923 C38.1333333,141.815385 31.9282051,141.928205 29.4461538,141.251282 C28.5435897,141.025641 28.5435897,140.8 28.2051282,140.123077 C28.2051282,140.010256 28.0923077,139.897436 28.0923077,139.784615 C28.0923077,139.784615 28.0923077,139.784615 28.0923077,139.784615 C27.7538462,139.220513 27.6410256,138.65641 27.7538462,138.092308 C27.7538462,137.866667 27.7538462,137.641026 27.7538462,137.302564 C27.8666667,134.707692 28.0923077,131.210256 28.2051282,127.035897 C28.5435897,120.94359 28.8820513,113.384615 29.2205128,105.374359 C29.4461538,99.9589744 29.7846154,94.2051282 30.0102564,88.5641026 C30.0102564,88.3384615 30.0102564,88 30.0102564,87.774359 C30.2358974,84.0512821 30.3487179,80.3282051 30.574359,76.7179487 C30.8,71.4153846 31.1384615,66.225641 31.3641026,61.6 C31.3641026,61.2615385 31.3641026,60.9230769 31.3641026,60.6974359 C34.974359,61.374359 38.3589744,62.7282051 41.4051282,64.6461538 C43.5487179,66 45.3538462,67.5794872 46.9333333,69.2717949 Z" fill="#C1926F"></path>
                                        <path d="M27.8666667,136.174359 C27.8666667,136.625641 27.8666667,137.189744 27.7538462,137.528205 L27.8666667,135.835897 C27.8666667,135.948718 27.8666667,136.061538 27.8666667,136.174359 Z" fill="#80A5F8"></path>
                                        <path d="M26.5128205,96.4615385 C26.0615385,99.6205128 25.1589744,102.666667 23.9179487,105.6 C22.225641,109.661538 19.9692308,113.497436 17.7128205,117.333333 C16.9230769,118.687179 15.5692308,120.605128 14.2153846,122.748718 C13.5384615,123.764103 12.974359,124.779487 12.2974359,125.794872 C9.58974359,130.420513 7.67179487,135.497436 10.3794872,138.769231 C10.8307692,139.333333 11.2820513,139.784615 11.5076923,140.348718 C11.8461538,140.8 11.0037566,140.372092 11.1165771,140.936195 C6.49093612,141.838759 4.62564103,140.235897 1.24102564,137.302564 C0.225641026,136.4 0.225641026,134.820513 0.564102564,133.015385 C1.24102564,129.630769 3.38461538,125.45641 4.06153846,123.538462 C4.06153846,123.538462 4.06153846,123.425641 4.06153846,123.425641 C5.97948718,117.671795 8.12307692,112.030769 10.4923077,106.502564 C11.7333333,103.45641 13.9897436,99.9589744 14.3282051,96.574359 C14.6666667,93.4153846 13.8769231,89.6923077 13.5384615,86.4205128 C13.425641,85.5179487 13.425641,84.2769231 13.3128205,82.6974359 C13.2,77.1692308 14.1025641,69.1589744 20.0820513,69.9487179 C22.6769231,70.2871795 24.1435897,73.4461538 24.9333333,76.9435897 C25.8358974,80.4410256 26.0615385,84.3897436 26.174359,86.3076923 C26.174359,86.6461538 26.174359,86.9846154 26.2871795,87.3230769 C26.8512821,90.2564103 26.9641026,93.4153846 26.5128205,96.4615385 Z" fill="#C1926F"></path>
                                        <path d="M11.6205128,140.235897 C11.9589744,140.687179 11.0037566,140.372092 11.1165771,140.936195 C6.49093612,141.838759 4.73846154,140.123077 1.35384615,137.189744 C0.338461538,136.287179 0.338461538,134.707692 0.676923077,132.902564 C1.35384615,129.517949 3.4974359,125.34359 4.17435897,123.425641 C5.07692308,123.764103 5.97948718,124.102564 6.99487179,124.328205 C8.68717949,124.892308 10.4923077,125.34359 12.2974359,125.682051 C9.58974359,130.307692 7.67179487,135.271795 10.3794872,138.65641 C10.8307692,139.220513 11.2820513,139.784615 11.6205128,140.235897 Z" fill="#C1926F"></path>
                                        <path d="M37.3224359,141.153846 C35.4044872,141.492308 31.9282051,142.041026 29.4461538,141.364103 C28.5435897,141.138462 28.5435897,140.912821 28.2051282,140.235897 C28.2051282,140.123077 28.0923077,140.010256 28.0923077,139.897436 C27.7538462,139.333333 27.7538462,138.769231 27.7538462,138.205128 C27.7538462,137.979487 27.7538462,137.753846 27.7538462,137.415385 C27.8666667,134.820513 28.0923077,131.323077 28.2051282,127.148718 C31.1384615,127.374359 34.0717949,127.487179 36.8923077,127.6 C36.3282051,130.420513 35.8769231,133.241026 35.425641,136.061538 C35.3128205,136.964103 35.425641,137.641026 35.8769231,138.205128 C36.3282051,138.882051 37.1179487,139.333333 37.9076923,139.671795 C36,140.153846 38.1121795,140.364103 37.3224359,141.153846 Z" fill="#C1926F"></path>
                                        <path d="M27.8621825,89.7926834 C27.8621825,90.1311449 27.8621825,90.4696064 28,90.808068 C22.6251173,89.9055039 20.4200372,89.7926834 13.5291619,86.7465295 C12.9778919,86.5208885 12.5644393,86.182427 12.0131693,85.9567859 C11.8753518,80.4285808 12.7022568,72.4183244 20.1444022,73.208068 C23.3142048,73.5465295 25.6571024,76.7055039 26.6218249,80.2029398 C27.724365,83.8131962 27.724365,87.8747346 27.8621825,89.7926834 Z" fill="#1381DC"></path>
                                        <path d="M48,73.1794872 L46.3310811,82.2051282 C45.5608108,85.8153846 44.7905405,89.425641 43.8918919,93.1487179 C43.8918919,93.1487179 43.8918919,93.1487179 43.8918919,93.1487179 C39.527027,92.6974359 34.2635135,92.1333333 29.2567568,91.2307692 C29.1283784,91.2307692 29.1283784,91.2307692 29,91.2307692 C29.2567568,87.5076923 29.3851351,83.7846154 29.6418919,80.174359 C29.8986486,74.8717949 30.1554054,69.6820513 30.5405405,65.0564103 C30.5405405,64.7179487 30.5405405,64.3794872 30.5405405,64.1538462 C34.5202703,64.8307692 38.2432432,66.1846154 41.4527027,68.1025641 C43.7635135,69.4564103 45.6891892,70.9230769 47.4864865,72.7282051 C47.6148649,72.7282051 47.8716216,72.9538462 48,73.1794872 Z" fill="#1381DC"></path>
                                        <path d="M16.5846154,13.5384615 C14.7794872,16.9230769 8.91282051,17.9384615 8.01025641,21.6615385 C7.67179487,23.1282051 8.12307692,24.5948718 9.02564103,25.7230769 C9.92820513,26.8512821 11.2820513,27.6410256 12.7487179,28.3179487 C15.6820513,29.5589744 19.6307692,29.8974359 22.225641,27.9794872 C23.9179487,26.7384615 24.8205128,24.5948718 24.5948718,22.5641026 C24.3692308,21.0974359 23.6923077,19.7435897 24.1435897,18.2769231 C24.4820513,17.0358974 25.6102564,16.0205128 26.5128205,14.8923077 C28.3179487,12.6358974 28.9948718,9.7025641 28.2051282,6.99487179 C27.5282051,4.62564103 22.5641026,-1.35384615 19.5179487,1.69230769 C16.0205128,5.3025641 18.6153846,9.81538462 16.5846154,13.5384615 Z" fill="#15203D"></path>
                                        <polygon fill="#C1926F" points="34.6358974 12.4102564 35.7641026 22 29.4461538 22.7897436 29.4461538 22.6769231 29.2205128 14.7794872 29.2205128 14.6666667 29.1076923 11.9589744 29.1076923 11.8461538 31.1384615 12.0717949 31.1384615 12.0717949 31.3641026 12.0717949"></polygon>
                                        <path d="M34.7487179,13.6512821 L35.2,17.7128205 C33.7333333,17.1487179 32.4923077,16.1333333 31.8153846,14.6666667 C31.5897436,14.2153846 31.4769231,13.7641026 31.3641026,13.3128205 L34.7487179,13.6512821 Z" fill="#15203D" opacity="0.25"></path>
                                        <path d="M37.6820513,5.41538462 C37.3435897,4.96410256 36.8923077,4.62564103 36.5538462,4.28717949 C36.4410256,4.28717949 36.4410256,4.17435897 36.3282051,4.17435897 C35.2,3.38461538 33.8461538,2.82051282 32.6051282,2.59487179 C32.2666667,2.93333333 31.7025641,3.15897436 31.1384615,3.27179487 C27.0769231,3.72307692 27.8666667,7.67179487 28.5435897,11.2820513 C28.4307692,11.3948718 28.3179487,11.5076923 28.3179487,11.5076923 C28.6564103,11.8461538 28.8820513,13.2 29.1076923,13.9897436 C29.2205128,14.1025641 29.4461538,14.3282051 29.5589744,14.4410256 C29.6717949,14.5538462 29.7846154,14.6666667 29.8974359,14.8923077 C31.2512821,15.5692308 32.8307692,16.0205128 34.2974359,16.0205128 C36.3282051,16.0205128 38.9230769,14.7794872 39.4871795,12.6358974 C40.1641026,10.1538462 39.374359,7.33333333 37.6820513,5.41538462 Z" fill="#C1926F"></path>
                                        <path d="M30.574359,12.1846154 C30.8,13.2 30.2358974,14.2153846 29.2205128,14.6666667 L29.1076923,12.0717949 L30.574359,12.1846154 L30.574359,12.1846154 Z" fill="#15203D" opacity="0.25"></path>
                                        <path d="M36.4410256,4.4 C36.1025641,4.51282051 35.6512821,4.62564103 35.3128205,4.62564103 C34.4102564,4.62564103 33.6205128,4.17435897 32.7179487,3.72307692 C32.7179487,4.96410256 31.8153846,5.97948718 30.8,6.31794872 C30.574359,6.43076923 30.3487179,6.43076923 30.1230769,6.54358974 C29.4461538,6.99487179 29.5589744,7.8974359 29.6717949,8.68717949 C29.8974359,10.0410256 29.2205128,11.5076923 28.4307692,12.6358974 C28.2051282,12.974359 27.9794872,13.2 27.6410256,13.425641 C25.6102564,11.6205128 24.2564103,9.02564103 25.1589744,6.31794872 C25.8358974,4.28717949 27.7538462,2.82051282 29.8974359,2.59487179 C32.0410256,2.25641026 34.2974359,3.04615385 36.1025641,4.28717949 C36.3282051,4.28717949 36.4410256,4.28717949 36.4410256,4.4 Z" fill="#15203D"></path>
                                        <path d="M27.0769231,12.5230769 C27.5282051,13.7641026 28.8820513,14.3282051 30.0102564,13.8769231 C31.2512821,13.425641 31.8153846,12.0717949 31.3641026,10.9435897 C30.9128205,9.7025641 29.5589744,9.13846154 28.4307692,9.58974359 C27.1897436,9.92820513 26.625641,11.2820513 27.0769231,12.5230769 Z" fill="#C1926F"></path>
                                        <path d="M51.8974359,48.625641 C52.1230769,57.2 51.5589744,65.4358974 52.0102564,74.1230769 C52.0102564,75.5897436 52.0102564,76.9435897 51.8974359,78.2974359 C51.7846154,79.3128205 51.6717949,80.2153846 51.5589744,81.1179487 C50.6564103,85.4051282 41.6307692,84.5025641 38.2461538,84.6153846 C32.2666667,84.8410256 26.174359,84.5025641 20.1948718,83.7128205 C17.374359,83.374359 12.2974359,83.374359 9.81538462,81.7948718 C7.44615385,80.3282051 8.12307692,78.0717949 8.8,75.9282051 C9.02564103,75.2512821 9.25128205,74.574359 9.36410256,73.8974359 C9.47692308,73.2205128 9.58974359,72.5435897 9.7025641,71.8666667 C10.1538462,69.3846154 10.4923077,66.7897436 10.9435897,64.1948718 C11.0564103,63.5179487 11.1692308,62.8410256 11.2820513,62.0512821 C11.3948718,61.1487179 11.6205128,60.1333333 11.7333333,59.2307692 C12.0717949,56.974359 12.5230769,54.6051282 12.8615385,52.3487179 L13.6512821,47.3846154 C13.6512821,47.1589744 13.7641026,46.9333333 13.7641026,46.5948718 C12.0717949,45.5794872 10.3794872,44.6769231 8.57435897,43.6615385 C7.55897436,43.0974359 6.54358974,42.5333333 6.20512821,41.4051282 C5.86666667,40.5025641 6.09230769,39.4871795 6.31794872,38.4717949 C6.31794872,38.3589744 6.31794872,38.3589744 6.43076923,38.2461538 C6.88205128,36.6666667 7.33333333,35.2 7.78461538,33.6205128 C7.78461538,33.5076923 7.78461538,33.5076923 7.8974359,33.3948718 C8.34871795,31.8153846 8.91282051,30.3487179 9.7025641,28.8820513 C9.92820513,28.4307692 10.1538462,28.0923077 10.2666667,27.6410256 C10.8307692,26.5128205 11.6205128,25.3846154 12.4102564,24.1435897 C14.7794872,20.8717949 18.0512821,17.825641 21.6615385,18.0512821 C23.4666667,18.1641026 25.1589744,18.7282051 26.8512821,19.2923077 C26.9641026,19.2923077 27.1897436,19.4051282 27.3025641,19.4051282 C37.5692308,22.1128205 44.7897436,18.1641026 49.5282051,30.574359 C50.9948718,34.2974359 51.2205128,38.2461538 51.5589744,42.1948718 C51.7846154,44.5641026 51.8974359,46.5948718 51.8974359,48.625641 Z" fill="#EBB41C"></path>
                                        <path d="M5.97948718,49.7538462 C6.09230769,49.9794872 6.20512821,50.2051282 6.31794872,50.3179487 C7.22051282,51.5589744 8.8,52.1230769 10.2666667,52.0102564 C11.7333333,52.0102564 13.2,51.4461538 14.5538462,50.7692308 C19.9692308,48.4 25.0461538,45.0153846 29.3333333,40.9538462 C30.4615385,39.825641 31.7025641,38.5846154 33.1692308,37.9076923 C35.0871795,37.0051282 37.4564103,37.0051282 39.4871795,36.4410256 C40.6153846,36.1025641 41.8564103,34.974359 41.1794872,34.0717949 C40.9538462,33.7333333 40.6153846,33.6205128 40.1641026,33.5076923 C35.2,32.1538462 30.0102564,33.3948718 25.8358974,36.2153846 C22,38.8102564 18.7282051,42.3076923 14.4410256,44.1128205 C14.5538462,43.5487179 14.5538462,43.0974359 14.6666667,42.5333333 C14.6666667,42.6461538 8.68717949,40.7282051 8.23589744,40.8410256 C6.20512821,41.2923077 6.43076923,41.9692308 5.97948718,44.3384615 C5.86666667,46.2564103 5.3025641,48.174359 5.97948718,49.7538462 Z" fill="#C1926F"></path>
                                    </g>
                                </g>
                                <path d="M249.594872,4.28717949 C250.271795,2.14358974 251.287179,0.338461538 253.54359,0.225641026 C255.574359,0.112820513 256.476923,1.91794872 258.507692,2.14358974 C259.974359,2.25641026 262.34359,2.36923077 263.697436,2.82051282 C265.728205,3.61025641 266.630769,5.18974359 266.969231,7.33333333 C267.420513,9.92820513 267.533333,12.6358974 267.420513,15.2307692 C267.307692,16.6974359 267.082051,18.1641026 265.953846,19.0666667 C264.487179,20.0820513 262.45641,19.4051282 261.215385,18.1641026 C260.764103,17.7128205 260.312821,17.0358974 260.087179,16.4717949 C259.748718,15.7948718 259.635897,15.0051282 259.410256,14.2153846 C258.958974,12.8615385 257.830769,11.6205128 256.364103,11.2820513 C254.446154,10.8307692 251.287179,13.0871795 250.046154,11.6205128 C248.353846,9.81538462 249.030769,6.20512821 249.594872,4.28717949 Z" id="Path" fill="#15203D" fill-rule="nonzero"></path>
                                <path d="M254.107692,34.974359 L268.548718,34.7487179 L264.825641,13.5384615 C264.825641,9.58974359 261.553846,6.31794872 257.605128,6.31794872 L257.605128,25.7230769 L254.107692,34.974359 Z" id="Path" fill="#B78767" fill-rule="nonzero"></path>
                                <g id="Group" opacity="0.25" transform="translate(257.153846, 18.051282)" fill="#15203D" fill-rule="nonzero">
                                    <path d="M4.96410256,1.01538462 L4.96410256,1.91794872 C4.96410256,2.48205128 4.85128205,3.04615385 4.73846154,3.61025641 C4.17435897,5.52820513 2.48205128,6.99487179 0.451282051,7.44615385 L0.451282051,1.80512821 L3.83589744,1.01538462 L4.96410256,1.01538462 L4.96410256,1.01538462 Z" id="Path"></path>
                                </g>
                                <path d="M264.487179,11.1692308 C264.487179,7.22051282 261.215385,3.94871795 257.266667,3.94871795 L257.266667,3.94871795 C253.317949,3.94871795 250.046154,7.22051282 250.046154,11.1692308 L250.046154,18.0512821 C250.158974,19.4051282 251.4,23.3538462 257.266667,23.3538462 C263.020513,23.3538462 264.487179,18.2769231 264.487179,18.2769231 L264.487179,11.1692308 Z" id="Path" fill="#B78767" fill-rule="nonzero"></path>
                                <path d="M229.061538,218.307692 L229.061538,220 L251.287179,220 L251.287179,217.74359 L251.4,199.579487 L242.487179,199.579487 L242.487179,210.974359 L231.769231,214.584615 C230.302564,215.035897 229.287179,216.276923 229.061538,217.74359 C229.061538,217.85641 229.061538,218.082051 229.061538,218.307692 Z" id="Path" fill="#262B8E" fill-rule="nonzero"></path>
                                <polygon id="Path" fill="#F8C208" fill-rule="nonzero" points="242.487179 199.466667 242.487179 209.733333 251.287179 209.733333 251.287179 199.466667"></polygon>
                                <path d="M229.061538,218.307692 L229.061538,220 L251.287179,220 L251.287179,217.74359 L229.174359,217.74359 C229.061538,217.85641 229.061538,218.082051 229.061538,218.307692 Z" id="Path" fill="#262B8E" fill-rule="nonzero"></path>
                                <path d="M286.035897,218.307692 L286.035897,220 L263.810256,220 L263.810256,217.74359 L263.697436,199.579487 L272.497436,199.579487 L272.497436,210.974359 L283.215385,214.584615 C284.682051,215.035897 285.697436,216.276923 285.923077,217.74359 C286.035897,217.85641 286.035897,218.082051 286.035897,218.307692 Z" id="Path" fill="#262B8E" fill-rule="nonzero"></path>
                                <polygon id="Path" fill="#F8C208" fill-rule="nonzero" points="272.610256 199.466667 272.610256 209.733333 263.810256 209.733333 263.810256 199.466667"></polygon>
                                <path d="M286.035897,218.307692 L286.035897,220 L263.810256,220 L263.810256,217.74359 L285.923077,217.74359 C286.035897,217.85641 286.035897,218.082051 286.035897,218.307692 Z" id="Path" fill="#262B8E" fill-rule="nonzero"></path>
                                <path d="M278.025641,206.574359 C277.912821,207.364103 277.8,208.830769 277.574359,209.620513 C277.348718,210.410256 277.912821,211.087179 277.461538,211.651282 C277.461538,211.651282 277.461538,211.764103 277.348718,211.764103 L263.810256,211.764103 C263.246154,211.764103 262.682051,211.2 262.682051,210.523077 L260.312821,107.179487 L258.282051,107.179487 L251.512821,209.958974 C251.4,210.974359 250.723077,211.764103 249.820513,211.764103 L238.651282,211.764103 C237.748718,210.523077 237.297436,208.830769 237.184615,206.348718 C236.846154,188.184615 236.507692,167.764103 236.169231,149.6 C235.94359,140.123077 236.507692,130.646154 236.846154,121.169231 C237.297436,110.676923 238.087179,100.523077 238.989744,90.0307692 C239.215385,87.3230769 238.876923,83.374359 240.45641,81.3435897 C243.051282,77.7333333 249.14359,79.2 252.641026,78.974359 C253.54359,78.8615385 254.558974,79.2 255.461538,78.974359 C256.251282,78.7487179 257.041026,78.6358974 257.830769,78.5230769 C258.282051,78.5230769 258.620513,78.2974359 259.071795,78.2974359 C259.523077,78.2974359 259.861538,78.2974359 260.312821,78.2974359 C260.764103,78.2974359 261.102564,78.1846154 261.553846,78.0717949 C262.005128,77.9589744 262.569231,78.0717949 263.020513,77.9589744 C269,76.7179487 279.153846,75.9282051 280.846154,84.3897436 C283.215385,96.8 281.748718,112.030769 281.748718,124.666667 C281.861538,151.292308 280.05641,180.061538 278.025641,206.574359 Z" id="Path" fill="#15152A" fill-rule="nonzero"></path>
                                <path d="M234.928205,33.1692308 C235.492308,31.1384615 236.394872,29.2205128 237.974359,27.9794872 C240.794872,25.8358974 244.630769,26.0615385 248.241026,26.5128205 C254.671795,27.1897436 260.989744,27.7538462 267.533333,27.4153846 C272.723077,27.1897436 277.687179,25.6102564 282.876923,26.9641026 C284.230769,27.3025641 285.584615,27.8666667 286.6,28.7692308 C288.179487,30.2358974 288.85641,32.3794872 289.307692,34.5230769 C292.128205,49.9794872 284.005128,64.8717949 281.523077,79.7641026 C281.410256,80.6666667 281.184615,81.6820513 280.620513,82.3589744 C279.94359,83.0358974 279.041026,83.2615385 278.138462,83.374359 C270.692308,84.7282051 263.471795,82.6974359 256.025641,83.2615385 C251.964103,83.4871795 242.487179,85.4051282 239.779487,81.1179487 C239.328205,80.3282051 239.215385,79.425641 238.989744,78.5230769 C238.425641,74.6871795 237.861538,70.8512821 237.410256,67.1282051 C236.05641,57.6512821 233.461538,47.7230769 234.364103,38.1333333 C234.364103,36.4410256 234.476923,34.7487179 234.928205,33.1692308 Z" id="Path" fill="#EFEFEF" fill-rule="nonzero"></path>
                                <path d="M283.779487,115.866667 C283.892308,115.528205 284.005128,115.189744 284.117949,114.851282 C284.907692,112.482051 285.697436,110 286.487179,107.630769 C288.969231,108.533333 291.338462,109.548718 293.707692,111.015385 C292.466667,112.820513 291.338462,114.738462 290.548718,116.769231 C290.210256,117.671795 289.871795,118.574359 289.646154,119.589744 C288.969231,122.184615 287.615385,124.666667 286.825641,127.261538 C286.825641,127.261538 286.825641,127.374359 286.825641,127.374359 C286.6,128.276923 286.487179,129.066667 286.487179,129.969231 C286.487179,130.533333 286.712821,131.323077 286.374359,131.887179 C286.261538,132 286.035897,132 286.035897,131.774359 C285.697436,130.082051 285.584615,128.164103 285.923077,126.584615 C285.923077,126.471795 285.810256,126.358974 285.697436,126.358974 C285.584615,126.358974 285.471795,126.358974 285.471795,126.471795 C285.133333,128.276923 285.358974,130.420513 285.697436,132.225641 C285.697436,132.338462 285.697436,132.338462 285.584615,132.451282 C285.471795,132.564103 285.358974,132.564103 285.246154,132.564103 C285.133333,132.564103 285.020513,132.564103 285.020513,132.451282 C284.569231,130.646154 284.45641,128.728205 284.569231,126.471795 C284.569231,126.358974 284.45641,126.246154 284.34359,126.246154 C284.230769,126.246154 284.117949,126.358974 284.117949,126.471795 C283.892308,128.841026 284.117949,130.871795 284.569231,132.676923 C284.569231,132.789744 284.569231,132.902564 284.45641,132.902564 C284.34359,132.902564 284.34359,132.902564 284.230769,132.902564 C284.117949,132.902564 284.005128,132.902564 284.005128,132.789744 C283.328205,130.758974 283.102564,128.615385 283.215385,126.584615 C283.215385,126.471795 283.102564,126.358974 282.989744,126.358974 C282.876923,126.358974 282.764103,126.471795 282.764103,126.584615 C282.651282,128.615385 282.764103,130.646154 283.441026,132.564103 C283.441026,132.676923 283.328205,132.902564 283.102564,132.789744 C283.102564,132.789744 283.102564,132.789744 283.102564,132.789744 C282.764103,132.564103 282.538462,132 282.425641,131.661538 C281.635897,129.74359 281.297436,127.487179 281.297436,125.34359 C281.297436,124.666667 281.297436,124.102564 281.410256,123.425641 C281.635897,120.830769 282.989744,118.348718 283.779487,115.866667 Z" id="Path" fill="#B78767" fill-rule="nonzero"></path>
                                <path d="M289.194872,95.1076923 C289.194872,94.9948718 289.307692,94.9948718 289.307692,94.8820513 C289.307692,94.8820513 289.307692,94.7692308 289.307692,94.7692308 C289.307692,94.9948718 289.194872,95.1076923 289.194872,95.1076923 Z" id="Path" fill="#F8C208" fill-rule="nonzero"></path>
                                <path d="M288.74359,29.3333333 C289.082051,29.5589744 289.307692,29.7846154 289.646154,30.0102564 C301.94359,40.5025641 306.569231,57.7641026 306.117949,73.4461538 C305.779487,87.2102564 301.041026,102.215385 292.917949,113.497436 C292.692308,113.723077 292.579487,114.061538 292.241026,114.174359 C291.902564,114.4 291.451282,114.512821 291,114.4 C285.584615,112.030769 284.34359,113.046154 285.133333,108.646154 C285.923077,104.020513 287.841026,99.9589744 288.405128,95.2205128 C289.082051,89.8051282 289.307692,84.3897436 289.082051,78.8615385 C288.74359,68.1435897 286.825641,57.5384615 283.441026,47.3846154 C281.861538,42.7589744 276.558974,32.8307692 281.635897,29.2205128 C282.876923,28.3179487 284.34359,27.6410256 285.810256,27.8666667 C286.938462,28.0923077 287.953846,28.6564103 288.74359,29.3333333 Z" id="Path" fill="#EFEFEF" fill-rule="nonzero"></path>
                                <path d="M240.005128,41.7435897 L250.271795,41.7435897 L250.271795,44 L240.005128,44 L240.005128,41.7435897 Z M249.820513,42.1948718 L240.45641,42.1948718 L240.45641,43.6615385 L249.820513,43.6615385 L249.820513,42.1948718 Z" id="Shape" fill="#C4C5CC" fill-rule="nonzero"></path>
                                <path d="M296.415385,108.307692 L296.528205,107.85641 C292.128205,106.841026 287.841026,105.261538 286.261538,104.471795 L286.261538,104.471795 L286.261538,104.471795 L286.261538,104.697436 L286.148718,104.923077 C287.615385,105.712821 291.789744,107.179487 296.415385,108.307692 Z" id="Path" fill="#C4C5CC" fill-rule="nonzero"></path>
                                <path d="M261.553846,16.2461538 C262.907692,17.0358974 264.6,16.5846154 265.276923,15.2307692 C266.066667,13.8769231 265.615385,12.1846154 264.261538,11.5076923 C262.907692,10.7179487 261.215385,11.1692308 260.538462,12.5230769 C259.748718,13.8769231 260.2,15.5692308 261.553846,16.2461538 Z" id="Path" fill="#15203D" fill-rule="nonzero"></path>
                                <path d="M250.723077,7.44615385 C250.723077,7.44615385 249.933333,6.88205128 249.933333,6.99487179 C253.769231,7.33333333 257.379487,7.67179487 258.507692,7.44615385 C258.958974,12.0717949 261.102564,11.8461538 263.246154,12.5230769 C265.276923,13.2 267.420513,12.1846154 266.969231,9.58974359 C266.74359,8.12307692 265.615385,6.09230769 264.487179,5.18974359 C262.569231,3.72307692 260.312821,2.59487179 257.830769,2.25641026 C255.461538,2.03076923 252.866667,2.59487179 250.948718,4.17435897 C250.271795,4.96410256 250.384615,6.54358974 250.723077,7.44615385 Z" id="Path" fill="#15203D" fill-rule="nonzero"></path>
                                <path d="M264.035897,19.8564103 L264.035897,19.8564103 C265.389744,19.8564103 266.517949,18.7282051 266.517949,17.374359 L266.517949,15.9076923 C266.517949,14.5538462 265.389744,13.425641 264.035897,13.425641 L264.035897,13.425641 C262.682051,13.425641 261.553846,14.5538462 261.553846,15.9076923 L261.553846,17.374359 C261.666667,18.7282051 262.682051,19.8564103 264.035897,19.8564103 Z" id="Path" fill="#15203D" fill-rule="nonzero"></path>
                                <g id="Group" opacity="0.25" transform="translate(258.282051, 11.282051)" fill="#15203D" fill-rule="nonzero">
                                    <g id="Path">
                                        <path d="M2.48205128,5.41538462 C3.83589744,6.20512821 5.52820513,5.75384615 6.20512821,4.4 C6.99487179,3.04615385 6.54358974,1.35384615 5.18974359,0.676923077 C3.83589744,-0.112820513 2.14358974,0.338461538 1.46666667,1.69230769 C0.676923077,2.93333333 1.12820513,4.62564103 2.48205128,5.41538462 Z"></path>
                                    </g>
                                </g>
                                <path d="M258.507692,7.55897436 L258.507692,10.1538462 C258.507692,11.0564103 259.184615,11.7333333 260.087179,11.7333333 L260.087179,11.7333333 C260.989744,11.7333333 261.666667,11.0564103 261.666667,10.1538462 L261.666667,7.67179487 L258.507692,7.55897436 Z" id="Path" fill="#15203D" fill-rule="nonzero"></path>
                                <path d="M261.102564,16.0205128 C262.45641,16.8102564 264.148718,16.3589744 264.825641,15.0051282 C265.615385,13.6512821 265.164103,11.9589744 263.810256,11.2820513 C262.45641,10.4923077 260.764103,10.9435897 260.087179,12.2974359 C259.297436,13.5384615 259.748718,15.2307692 261.102564,16.0205128 Z" id="Path" fill="#B78767" fill-rule="nonzero"></path>
                                <g id="Group" transform="translate(254.897436, 27.076923)" fill="#3E44C1" fill-rule="nonzero">
                                    <g id="Path">
                                        <path d="M2.14358974,18.1641026 C2.93333333,15.9076923 4.4,10.6051282 5.41538462,6.65641026 L4.06153846,2.70769231 C3.94871795,2.59487179 4.28717949,2.70769231 4.4,2.59487179 L5.97948718,0.78974359 C6.09230769,0.564102564 6.43076923,0.564102564 6.54358974,0.78974359 L8.01025641,2.93333333 C8.12307692,3.04615385 8.12307692,3.27179487 8.01025641,3.38461538 L6.31794872,6.43076923 C6.31794872,6.54358974 6.20512821,6.65641026 6.31794872,6.76923077 C6.65641026,7.67179487 6.88205128,8.68717949 7.10769231,9.58974359 C8.01025641,13.2 8.91282051,16.9230769 9.92820513,20.5333333 C10.0410256,21.0974359 10.2666667,21.6615385 10.1538462,22.3384615 C10.1538462,23.0153846 9.92820513,23.6923077 9.7025641,24.2564103 C8.46153846,27.9794872 7.22051282,31.8153846 5.97948718,35.5384615 C5.86666667,35.8769231 5.41538462,35.8769231 5.18974359,35.5384615 C4.06153846,32.4923077 2.93333333,29.4461538 1.80512821,26.5128205 C1.35384615,25.2717949 0.902564103,24.0307692 0.902564103,22.6769231 C1.01538462,21.0974359 1.69230769,19.6307692 2.14358974,18.1641026 Z"></path>
                                        <polygon points="6.54358974 6.43076923 8.57435897 2.70769231 6.43076923 0.78974359 6.09230769 3.38461538"></polygon>
                                    </g>
                                    <path d="M4.17435897,2.70769231 L6.31794872,0.78974359 L6.76923077,3.04615385 C6.76923077,3.04615385 6.09230769,3.94871795 6.09230769,3.94871795 C5.97948718,3.94871795 4.17435897,2.70769231 4.17435897,2.70769231 Z" id="Path"></path>
                                </g>
                                <path d="M267.194872,33.1692308 C267.758974,31.2512821 268.323077,29.2205128 268.774359,27.3025641 C268.661538,27.3025641 268.323077,27.4153846 268.210256,27.3025641 C267.758974,28.9948718 267.420513,30.6871795 266.969231,32.3794872 C265.051282,30.6871795 263.133333,29.1076923 261.215385,27.4153846 C259.635897,28.8820513 257.94359,30.4615385 256.364103,31.9282051 C255.912821,30.2358974 255.461538,28.6564103 255.123077,26.9641026 C254.897436,26.9641026 254.784615,26.9641026 254.558974,26.9641026 C255.123077,28.8820513 255.574359,30.8 256.138462,32.7179487 L261.215385,27.8666667 L267.194872,33.1692308 Z" id="Path" fill="#C4C5CC" fill-rule="nonzero"></path>
                                <polygon id="Path" fill="#17237A" fill-rule="nonzero" points="258.733333 39.9384615 258.507692 40.7282051 264.374359 45.3538462 264.035897 44.1128205"></polygon>
                                <polyline id="Path" fill="#17237A" fill-rule="nonzero" points="262.794872 39.2615385 263.133333 40.3897436 259.297436 37.7948718 259.523077 36.8923077"></polyline>
                                <polygon id="Path" fill="#17237A" fill-rule="nonzero" points="260.087179 34.974359 262.005128 36.2153846 261.892308 35.6512821 260.2 34.5230769"></polygon>
                                <polygon id="Path" fill="#17237A" fill-rule="nonzero" points="260.087179 34.974359 260.2 34.2974359 261.779487 35.3128205 262.005128 36.2153846"></polygon>
                                <path d="M257.830769,43.2102564 C257.830769,43.2102564 265.276923,49.5282051 265.276923,49.5282051 L265.164103,50.5435897 L257.605128,44.1128205 L257.830769,43.2102564 Z" id="Path" fill="#17237A" fill-rule="nonzero"></path>
                                <polygon id="Path" fill="#17237A" fill-rule="nonzero" points="256.589744 52.6871795 262.230769 59.1179487 262.45641 58.3282051 256.251282 51.4461538"></polygon>
                                <polyline id="Path" fill="#17237A" fill-rule="nonzero" points="256.138462 50.8820513 262.45641 58.1025641 262.230769 59.1179487 256.589744 52.6871795"></polyline>
                                <polygon id="Path" fill="#17237A" fill-rule="nonzero" points="258.958974 59.1179487 261.328205 61.825641 261.215385 62.3897436 259.748718 60.9230769"></polygon>
                                <polygon id="Path" fill="#17237A" fill-rule="nonzero" points="256.251282 47.4974359 263.697436 54.6051282 264.035897 53.4769231 256.589744 46.7076923"></polygon>
                                <polygon id="Path" fill="#17237A" fill-rule="nonzero" points="261.892308 32.6051282 259.523077 31.1384615 259.184615 30.3487179 262.117949 32.1538462"></polygon>
                                <polygon id="Path" fill="#17237A" fill-rule="nonzero" points="259.184615 30.1230769 262.230769 32.0410256 261.892308 32.6051282 259.523077 31.1384615"></polygon>
                                <polygon id="Path" fill="#17237A" fill-rule="nonzero" points="260.312821 28.6564103 263.020513 30.6871795 263.246154 30.2358974 260.651282 28.3179487"></polygon>
                                <polygon id="Path" fill="#17237A" fill-rule="nonzero" points="260.651282 28.3179487 260.312821 28.7692308 262.907692 30.6871795 263.246154 30.2358974"></polygon>
                                <polygon id="Path" fill="#17237A" fill-rule="nonzero" points="258.958974 59.1179487 261.328205 61.7128205 261.215385 62.3897436 259.748718 60.9230769"></polygon>
                            </g>
                            <path d="M137.630769,221.158974 L118.630769,221.158974 C118.630769,220.14359 118.630769,219.128205 118.630769,218 L134.464103,218 C136.102034,218 137.521574,219.353846 137.630769,221.158974 L137.630769,221.158974 Z" id="Path" fill="#15162A" fill-rule="nonzero"></path>
                            <path d="M96.1589744,221.158974 L76.8186035,221.158974 C76.8186035,220.14359 76.8186035,219.128205 76.8186035,218 L93.3711326,218 C95.0090636,218 95.8683825,219.353846 95.9775779,221.158974 L96.1589744,221.158974 Z" id="Path" fill="#15162A" fill-rule="nonzero" transform="translate(86.488789, 219.579487) scale(-1, 1) translate(-86.488789, -219.579487) "></path>
                            <path d="M85.9929414,211 C91.0685792,214.343675 94.4572569,215.169358 96.1589744,213.477051 L96.1589744,220 L77.2285156,219.887179 C77.480764,218.085686 78.160777,216.623293 79.2685547,215.5 C80.3763324,214.376707 82.6177947,212.876707 85.9929414,211 Z" id="Combined-Shape" fill="#B48E29"></path>
                            <path d="M127.281362,211.2 C132.287782,214.394066 135.63479,215.144944 137.322388,213.452637 L137.301875,220.067383 L118.610256,219.887179 C119.461489,217.385422 120.416486,215.604181 121.475247,214.543457 C122.534008,213.482733 124.46938,212.368248 127.281362,211.2 Z" id="Combined-Shape" fill="#B48E29" transform="translate(127.966322, 215.633691) scale(-1, 1) translate(-127.966322, -215.633691) "></path>
                            <path d="M27.9598389,209.234131 C26.7569266,213.019357 27.2639335,215.637928 29.4808594,217.089844 C31.8646484,218.651042 31.8646484,219.380794 36.2575684,220.162109 C37.2273639,220.334595 38.3432943,219.555404 38.8231771,218.580469 C39.4781439,216.443062 38.6875976,215.214986 36.4515381,214.89624 C34.2154786,214.577494 31.3849122,212.690125 27.9598389,209.234131 Z" id="Path-24" fill="#E75EA9"></path>
                            <path d="M55.6360263,211.986788 C54.4331141,215.772015 54.9401209,218.390586 57.1570468,219.842501 C59.5408359,221.403699 59.5408359,222.133452 63.9337558,222.914767 C64.9035514,223.087253 65.8852208,222.904193 66.7358953,221.323304 C67.233175,219.192446 66.363785,217.967644 64.1277255,217.648898 C61.8916661,217.330152 59.0610997,215.442782 55.6360263,211.986788 Z" id="Path-24" fill="#E75EA9" transform="translate(60.936475, 217.477109) rotate(-10.000000) translate(-60.936475, -217.477109) "></path>
                        </g>
                    </g>
                </g>
            </g>
        </g>
    </g>
</svg>
