<?xml version="1.0" encoding="UTF-8"?>
<svg width="40px" height="40px" viewBox="0 0 40 40" version="1.1" xmlns="http://www.w3.org/2000/svg" xmlns:xlink="http://www.w3.org/1999/xlink">
    <!-- Generator: Sketch 61 (89581) - https://sketch.com -->
    <title>icon-download</title>
    <desc>Created with Sketch.</desc>
    <g id="02-PAGES" stroke="none" stroke-width="1" fill="none" fill-rule="evenodd">
        <g id="15-ACS-PROD-Pages-Build-Complete" transform="translate(-751.000000, -1224.000000)" fill="#FFFFFF">
            <g id="Body">
                <g id="finish" transform="translate(45.000000, 1097.000000)">
                    <g id="download" transform="translate(588.000000, 102.000000)">
                        <path d="M154.666667,65 L121.333333,65 C119.495,65 118,63.505 118,61.6683333 L118,51.6716667 C118,50.7516667 118.745,50.0066667 119.666667,50.0066667 C120.588333,50.0066667 121.333333,50.7516667 121.333333,51.6716667 L121.333333,61.6683333 L154.666667,61.6683333 L154.666667,51.6716667 C154.666667,50.7516667 155.411667,50.0066667 156.333333,50.0066667 C157.255,50.0066667 158,50.7516667 158,51.6716667 L158,61.6683333 C158,63.505 156.503333,65 154.666667,65 Z M139.18,54.4983333 C139.026667,54.6533333 138.841667,54.775 138.636667,54.86 C138.433333,54.945 138.216667,54.9883333 138,54.9883333 C137.783333,54.9883333 137.566667,54.945 137.363333,54.86 C137.161667,54.7766667 136.98,54.6566667 136.826667,54.505 C136.826667,54.5033333 136.825,54.5033333 136.823333,54.5016667 L136.823333,54.5016667 C136.821667,54.5 136.821667,54.5 136.82,54.4983333 L128.49,46.1866667 C127.836667,45.5366667 127.836667,44.4833333 128.486667,43.8316667 C129.138333,43.1783333 130.191667,43.1816667 130.843333,43.8283333 L136.333333,49.305 L136.333333,26.665 C136.333333,25.745 137.078333,25 138,25 C138.921667,25 139.666667,25.745 139.666667,26.665 L139.666667,49.305 L145.156667,43.8283333 C145.808333,43.1816667 146.861667,43.1783333 147.513333,43.8316667 C148.163333,44.4833333 148.163333,45.5366667 147.51,46.1866667 L139.18,54.4983333 Z" id="icon-download"></path>
                    </g>
                </g>
            </g>
        </g>
    </g>
</svg>