<?xml version="1.0" encoding="UTF-8"?>
<svg width="90px" height="90px" viewBox="0 0 90 90" version="1.1" xmlns="http://www.w3.org/2000/svg" xmlns:xlink="http://www.w3.org/1999/xlink">
    <!-- Generator: Sketch 61 (89581) - https://sketch.com -->
    <title>icon-NavigatingImmigration</title>
    <desc>Created with Sketch.</desc>
    <g id="02-PAGES" stroke="none" stroke-width="1" fill="none" fill-rule="evenodd">
        <g id="03-ACS-PROD-Pages-TypesOfSupport-1" transform="translate(-728.000000, -1102.000000)">
            <g id="Body">
                <g id="9" transform="translate(638.000000, 1072.000000)">
                    <g id="icon-NavigatingImmigration" transform="translate(90.000000, 30.000000)">
                        <circle id="Oval-7" fill="#2296F5" cx="45" cy="45" r="45"></circle>
                        <g id="ill-NavigatingImmigaration" transform="translate(15.000000, 24.000000)" fill="#FFFFFF" stroke="#FFFFFF">
                            <path d="M13.8239469,1.59292035 C10.4650088,1.59292035 7.73155752,4.32584071 7.73155752,7.68530973 C7.73155752,11.0442478 10.4650088,13.7771681 13.8239469,13.7771681 C17.182885,13.7771681 19.9163363,11.0442478 19.9163363,7.68530973 C19.9163363,4.32584071 17.182885,1.59292035 13.8239469,1.59292035 M13.8239469,15.3700885 C9.58677876,15.3700885 6.13863717,11.9224779 6.13863717,7.68530973 C6.13863717,3.44761062 9.58677876,0 13.8239469,0 C18.061115,0 21.5092566,3.44761062 21.5092566,7.68530973 C21.5092566,11.9224779 18.061115,15.3700885 13.8239469,15.3700885" id="Fill-1"></path>
                            <path d="M46.6209027,1.59292035 C43.2619646,1.59292035 40.5285133,4.32584071 40.5285133,7.68530973 C40.5285133,11.0442478 43.2619646,13.7771681 46.6209027,13.7771681 C49.9798407,13.7771681 52.713292,11.0442478 52.713292,7.68530973 C52.713292,4.32584071 49.9798407,1.59292035 46.6209027,1.59292035 M46.6209027,15.3700885 C42.3837345,15.3700885 38.9355929,11.9224779 38.9355929,7.68530973 C38.9355929,3.44761062 42.3837345,0 46.6209027,0 C50.8580708,0 54.3062124,3.44761062 54.3062124,7.68530973 C54.3062124,11.9224779 50.8580708,15.3700885 46.6209027,15.3700885" id="Fill-3"></path>
                            <path d="M37.2915398,22.3371504 L37.2915398,22.3376814 L33.2970265,23.7293628 C32.5695929,23.1835221 31.6318938,22.965823 30.7260531,23.1553805 L30.0113628,21.1042301 C29.9651681,20.9720177 30.0023363,20.8610442 30.028354,20.806354 C30.0549027,20.7527257 30.1180885,20.6550265 30.2508319,20.6083009 L35.9917168,18.6086549 C36.0373805,18.5921947 36.0803894,18.586354 36.1191504,18.586354 C36.1940177,18.586354 36.2540177,18.6086549 36.2890619,18.625646 C36.3437522,18.6516637 36.4409204,18.7153805 36.487646,18.8486549 L37.5304779,21.8412212 C37.6010973,22.0440531 37.4943717,22.266531 37.2915398,22.3371504 M39.0347257,21.3171504 L37.9918938,18.3240531 C37.8177345,17.8244071 37.4593274,17.4219292 36.9825133,17.1914867 C36.5062301,16.9605133 35.967292,16.9286549 35.467646,17.1044071 L29.727292,19.1040531 C29.227115,19.2782124 28.8246372,19.6366195 28.5941947,20.1139646 C28.3642832,20.5907788 28.3329558,21.1286549 28.507115,21.6283009 L29.2441062,23.7421062 C25.8639292,25.0897168 21.0522478,24.5587434 18.7069381,23.0645841 C18.4738407,22.9164425 18.268354,22.7582124 18.1032212,22.5999823 C17.9699469,21.9001593 17.7543717,21.2274159 17.4602124,20.5976814 C17.3858761,20.4070619 17.287115,20.2190973 17.1607434,20.0247611 C15.7218053,17.4606903 13.1210973,15.8247611 10.1970265,15.646354 C7.90375221,15.5093628 5.69968142,16.266531 3.98145133,17.786708 C2.26322124,19.306885 1.24056637,21.4047611 1.10038938,23.6948496 L0.00180530973,41.6746726 C-0.0252743363,42.1137876 0.309238938,42.4913097 0.747823009,42.5183894 C0.764283186,42.5194513 0.780743363,42.5199823 0.79720354,42.5199823 C1.21507965,42.5199823 1.56552212,42.1939646 1.59153982,41.7723717 L2.69012389,23.7920177 C2.80428319,21.9272389 3.63738053,20.2180354 5.03702655,18.9798053 C6.43720354,17.7415752 8.23879646,17.1219292 10.0993274,17.2366195 C12.488708,17.3821062 14.6131327,18.7238761 15.7833982,20.825469 C15.7934867,20.8435221 15.8041062,20.8615752 15.8157876,20.8785664 C15.8911858,20.9927257 15.9464071,21.0957345 15.9830442,21.1929027 C15.9904779,21.2120177 15.9979115,21.2306018 16.0069381,21.2491858 C16.2787965,21.826354 16.4694159,22.4502478 16.5745487,23.1028142 C16.5984425,23.2520177 16.6637522,23.3900708 16.7635752,23.5031681 C17.047115,23.825469 17.4134867,24.1297168 17.8520708,24.4079469 C20.6046372,26.1628142 25.9111858,26.8212212 29.8770265,25.2075929 C30.2529558,25.6753805 30.8242832,25.9525487 31.4248142,25.9525487 C31.6403894,25.9525487 31.8602124,25.9169735 32.0747257,25.8421062 L32.8149027,25.5840531 C33.1855221,26.3598053 32.8759646,27.2959115 32.1060531,27.6888319 C30.0973805,28.7141416 27.4754336,29.2790973 24.7233982,29.2796283 C22.3186195,29.2796283 19.9218053,28.8383894 17.9741947,28.0376814 C17.667823,27.9107788 17.3131327,27.9893628 17.0864071,28.2330796 C16.8607434,28.4773274 16.8108319,28.8367965 16.9605664,29.1336106 C19.0499469,33.2624602 23.4241062,35.9884779 28.3759646,36.2475929 C29.2531327,36.2937876 29.9295929,37.045115 29.8833982,37.9228142 C29.8387965,38.7686549 29.1410973,39.4313097 28.2947257,39.4313097 L28.2092389,39.4291858 C24.1021593,39.2136106 20.2425133,37.5888319 17.3396814,34.8543186 C17.3359646,34.8511327 17.3317168,34.8495398 17.328,34.846885 C17.3258761,34.8447611 17.3248142,34.8415752 17.3232212,34.8394513 C17.288708,34.8086549 13.8644602,31.7417522 12.9092389,29.3337876 C12.7467611,28.9238761 12.2805664,28.725823 11.8754336,28.886708 C11.4660531,29.0491858 11.2658761,29.5121947 11.428354,29.9205133 C12.3570265,32.2621062 15.0819823,34.9302478 15.9750796,35.7638761 L15.6145487,41.6746726 C15.587469,42.1137876 15.9219823,42.4913097 16.3605664,42.5183894 C16.8124248,42.5497168 17.1772035,42.2114867 17.2042832,41.7723717 L17.4910088,37.0828142 C20.487292,39.4281239 24.2051681,40.8144956 28.128531,41.0205133 C29.9009204,41.1001593 31.3828673,39.7541416 31.4741947,38.005646 C31.5660531,36.2518407 30.2136637,34.7497168 28.4593274,34.6567965 C24.8598584,34.4683009 21.6129558,32.8222832 19.5517168,30.2348496 C21.1706549,30.6548496 22.9228673,30.8725487 24.7233982,30.8725487 C27.7228673,30.8720177 30.6012743,30.245469 32.8303009,29.1075929 C34.3164956,28.3488319 34.9504779,26.5753805 34.3249912,25.0578584 L37.8150796,23.8419292 C38.847292,23.4824602 39.3941947,22.3498938 39.0347257,21.3171504" id="Fill-5"></path>
                            <path d="M59.1324425,41.9666018 C58.6927965,41.9666018 58.3359823,41.6097876 58.3359823,41.1701416 C58.3359823,40.9975752 58.2972212,23.8258938 55.0481947,19.5738584 C53.1834159,17.1324425 50.1807611,17.4255398 48.9765133,17.6639469 C46.6078407,18.1343894 44.902354,19.4703186 44.6007611,20.5046549 C44.0310265,23.7866018 44.0262478,23.8030619 42.7720885,28.0545664 C42.7609381,28.0943894 42.7460708,28.1331504 42.7280177,28.1708496 C39.521469,34.9327965 32.7101416,35.7573982 32.421823,35.7892566 C31.982177,35.8343894 31.5913805,35.521646 31.5430619,35.0846549 C31.4947434,34.6476637 31.8101416,34.2542124 32.2476637,34.2058938 C32.4982832,34.1772212 38.4350973,33.4327965 41.262531,27.5437699 C42.4773982,23.4239469 42.4800531,23.4080177 43.0381062,20.1929735 C43.041823,20.1696106 43.0471327,20.1467788 43.0535044,20.1239469 C43.5356283,18.3159823 45.8437699,16.662 48.6664248,16.101823 C51.8320885,15.4731504 54.6175752,16.3864248 56.3135044,18.6064248 C59.8880177,23.2837699 59.9289027,40.442177 59.9289027,41.1701416 C59.9289027,41.6097876 59.5720885,41.9666018 59.1324425,41.9666018" id="Fill-8"></path>
                            <path d="M43.5350973,42.5198761 C43.0954513,42.5198761 42.7386372,42.1630619 42.7386372,41.7234159 L42.7386372,38.0634159 C41.0963363,39.6080177 37.9535044,41.5683717 32.5832389,41.5683717 C32.1435929,41.5683717 31.7867788,41.2115575 31.7867788,40.7719115 C31.7867788,40.3322655 32.1435929,39.9754513 32.5832389,39.9754513 C40.2547434,39.9754513 42.7343894,35.661823 42.8368673,35.4775752 C43.0126195,35.1605841 43.3795221,34.9996991 43.7336814,35.0915575 C44.0851858,35.182354 44.3315575,35.4972212 44.3315575,35.8604071 L44.3315575,41.7234159 C44.3315575,42.1630619 43.9747434,42.5198761 43.5350973,42.5198761" id="Fill-11"></path>
                        </g>
                    </g>
                </g>
            </g>
        </g>
    </g>
</svg>