<?xml version="1.0" encoding="UTF-8"?>
<svg width="90px" height="90px" viewBox="0 0 90 90" version="1.1" xmlns="http://www.w3.org/2000/svg" xmlns:xlink="http://www.w3.org/1999/xlink">
    <!-- Generator: Sketch 61 (89581) - https://sketch.com -->
    <title>icon-NavigatingACS</title>
    <desc>Created with Sketch.</desc>
    <g id="02-PAGES" stroke="none" stroke-width="1" fill="none" fill-rule="evenodd">
        <g id="03-ACS-PROD-Pages-TypesOfSupport-1" transform="translate(-726.000000, -777.000000)">
            <g id="Body">
                <g id="6" transform="translate(636.000000, 747.000000)">
                    <g id="icon-NavigatingACS" transform="translate(90.000000, 30.000000)">
                        <circle id="Oval-7" fill="#C41A3D" cx="45" cy="45" r="45"></circle>
                        <g id="ill-NavigatingACSSchoolsCourts" transform="translate(15.000000, 17.000000)" fill="#FFFFFF" stroke="#FFFFFF">
                            <path d="M16.1979459,1.62162162 C12.472,1.62162162 9.44118919,4.65243243 9.44118919,8.37837838 C9.44118919,12.1043243 12.472,15.1351351 16.1979459,15.1351351 C19.9238919,15.1351351 22.9547027,12.1043243 22.9547027,8.37837838 C22.9547027,4.65243243 19.9238919,1.62162162 16.1979459,1.62162162 M16.1979459,16.7567568 C11.5779459,16.7567568 7.81956757,12.9983784 7.81956757,8.37837838 C7.81956757,3.75837838 11.5779459,0 16.1979459,0 C20.8179459,0 24.5763243,3.75837838 24.5763243,8.37837838 C24.5763243,12.9983784 20.8179459,16.7567568 16.1979459,16.7567568" id="Fill-1"></path>
                            <path d="M40.5275676,11.1317838 C35.9724324,11.1317838 32.2664865,14.8377297 32.2664865,19.3934054 C32.2664865,23.9485405 35.9724324,27.6544865 40.5275676,27.6544865 C45.0832432,27.6544865 48.7891892,23.9485405 48.7891892,19.3934054 C48.7891892,14.8377297 45.0832432,11.1317838 40.5275676,11.1317838 M40.5275676,29.2761081 C35.0783784,29.2761081 30.6448649,24.8425946 30.6448649,19.3934054 C30.6448649,13.9436757 35.0783784,9.51016216 40.5275676,9.51016216 C45.9772973,9.51016216 50.4108108,13.9436757 50.4108108,19.3934054 C50.4108108,24.8425946 45.9772973,29.2761081 40.5275676,29.2761081" id="Fill-3"></path>
                            <path d="M4.75264865,32.8368108 L4.75264865,27.9719459 C4.75264865,23.8054595 7.86940541,20.4157297 11.6996757,20.4157297 L20.6953514,20.4157297 C24.5267027,20.4157297 27.6434595,23.8054595 27.6434595,27.9719459 L27.6434595,30.3978919 C25.2326486,29.9108649 22.5667027,29.6362703 19.736973,29.6362703 C13.6802162,29.6362703 8.34508108,30.8665405 4.75264865,32.8368108 M30.8558919,31.2162703 C30.3445405,31.0535676 29.8094054,30.9070811 29.2650811,30.7670811 L29.2650811,27.9719459 C29.2650811,22.8324865 25.4207568,18.6524865 20.6953514,18.6524865 L11.6996757,18.6524865 C6.97481081,18.6524865 3.13102703,22.8324865 3.13102703,27.9719459 L3.13102703,33.8632973 C1.1467027,35.3232973 0.000216216216,37.073027 0.000216216216,38.9735676 C0.000216216216,44.1124865 8.35427027,48.1541081 19.1283243,48.3016757 C19.1375135,48.3022162 19.1467027,48.3049189 19.1558919,48.3049189 C19.1623784,48.3049189 19.1683243,48.3027568 19.1748108,48.3027568 C19.2088649,48.3032973 19.2429189,48.3043784 19.2764324,48.3049189 L19.2764324,48.2908649 C19.6099459,48.2243784 19.8645405,47.8892432 19.8645405,47.4827568 C19.8645405,47.1049189 19.6445405,46.7903243 19.3461622,46.6941081 C19.3461622,46.6908649 19.3467027,46.6876216 19.3472432,46.6843784 C19.336973,46.6843784 19.3277838,46.6838378 19.3175135,46.6838378 C19.2656216,46.6697838 19.2121081,46.6600541 19.1558919,46.6600541 C19.1061622,46.6600541 19.0580541,46.6665405 19.011027,46.6773514 C8.44562162,46.5054595 1.39751351,42.6162703 1.39751351,38.9735676 C1.39751351,35.2470811 8.7667027,31.2578919 19.736973,31.2578919 C23.6948108,31.2578919 27.1802162,31.778973 30.024,32.6184324 C30.6256216,32.8222162 31.1980541,32.8000541 31.3931892,32.3865405 C31.5380541,31.9216757 31.4585946,31.4632973 30.8558919,31.2162703" id="Fill-8"></path>
                            <path d="M22.1042703,41.2304865 L21.5145405,41.2304865 L21.5145405,41.2283243 L11.1453514,41.2283243 C11.0961622,41.2283243 11.0545405,41.1964324 11.041027,41.1515676 L12.0194054,35.1975135 C12.0253514,35.1580541 12.0285946,35.116973 12.0285946,35.076973 C12.0285946,35.016973 12.0777838,34.9677838 12.1383243,34.9677838 L20.5323784,34.9677838 C20.5923784,34.9677838 20.641027,35.016973 20.641027,35.076973 C20.641027,35.116973 20.6448108,35.1580541 20.6512973,35.1975135 L21.1799459,38.4348108 L12.9534595,38.4348108 C12.5426486,38.4348108 12.2085946,38.7683243 12.2085946,39.1796757 C12.2085946,39.5904865 12.5426486,39.924 12.9534595,39.924 L21.4231892,39.924 L21.4231892,39.9245405 C21.4231892,39.9245405 22.7518378,40.0250811 22.7518378,38.8153514 C22.686973,38.4180541 22.1291351,35.0067027 22.1291351,35.0067027 C22.0923784,34.1580541 21.3902162,33.4785946 20.5323784,33.4785946 L12.1383243,33.4785946 C11.2804865,33.4785946 10.5783243,34.1580541 10.541027,35.0067027 L9.5567027,40.9991351 C9.55021622,41.0391351 9.54697297,41.0796757 9.54697297,41.1202162 C9.54697297,42.0007568 10.2642703,42.7175135 11.1453514,42.7175135 L20.0588649,42.7175135 C20.0653514,42.7180541 20.0712973,42.7196757 20.0777838,42.7196757 L22.1042703,42.7196757 C22.5156216,42.7196757 22.8491351,42.3861622 22.8491351,41.9753514 C22.8491351,41.564 22.5156216,41.2304865 22.1042703,41.2304865" id="Fill-10"></path>
                            <path d="M36.9227027,34.3005946 L43.1016216,34.3005946 C48.6702703,34.3005946 53.3913514,38.2503243 54.4340541,43.6265405 L25.9297297,43.6265405 C25.8145946,43.6265405 25.6994595,43.6314054 25.5854054,43.6411351 C26.6167568,38.2416757 31.3021622,34.3005946 36.9227027,34.3005946 M56.1172973,43.9292432 C55.1762162,37.4887027 49.6610811,32.678973 43.1016216,32.678973 L36.9227027,32.678973 C30.2281081,32.678973 24.7113514,37.5854595 23.8756757,44.166 C22.3583784,44.7303243 21.2718919,46.1892432 21.2718919,47.9011351 L21.2718919,54.6346486 C21.2718919,55.0822162 21.6351351,55.4454595 22.0827027,55.4454595 C22.5302703,55.4454595 22.8935135,55.0822162 22.8935135,54.6346486 L22.8935135,47.9011351 C22.8935135,46.5962703 23.9556757,45.5346486 25.2605405,45.5346486 L55.7951351,45.5346486 C57.1,45.5346486 58.1616216,46.5962703 58.1616216,47.9011351 L58.1616216,54.6346486 C58.1616216,55.0822162 58.5248649,55.4454595 58.9724324,55.4454595 C59.42,55.4454595 59.7832432,55.0822162 59.7832432,54.6346486 L59.7832432,47.9011351 C59.7832432,45.8108649 58.1659459,44.0941081 56.1172973,43.9292432" id="Fill-5"></path>
                        </g>
                    </g>
                </g>
            </g>
        </g>
    </g>
</svg>