<?xml version="1.0" encoding="UTF-8"?>
<svg width="90px" height="90px" viewBox="0 0 90 90" version="1.1" xmlns="http://www.w3.org/2000/svg" xmlns:xlink="http://www.w3.org/1999/xlink">
    <!-- Generator: Sketch 61 (89581) - https://sketch.com -->
    <title>icon-ParentingStrengths</title>
    <desc>Created with Sketch.</desc>
    <g id="02-PAGES" stroke="none" stroke-width="1" fill="none" fill-rule="evenodd">
        <g id="03-ACS-PROD-Pages-TypesOfSupport-1" transform="translate(-726.000000, -455.000000)">
            <g id="Body">
                <g id="3" transform="translate(636.000000, 421.000000)">
                    <g id="icon-ParentingStrengths" transform="translate(90.000000, 34.000000)">
                        <circle id="Oval-7" fill="#3E44C1" cx="45" cy="45" r="45"></circle>
                        <g id="ill-BuildingParentingStrengths" transform="translate(15.000000, 14.000000)" fill="#FFFFFF" stroke="#FFFFFF">
                            <path d="M40.1171243,1.66992579 C35.2581262,1.66992579 31.3046939,5.62335807 31.3046939,10.4823562 C31.3046939,15.3413544 35.2581262,19.2953432 40.1171243,19.2953432 C44.9761224,19.2953432 48.9301113,15.3413544 48.9301113,10.4823562 C48.9301113,5.62335807 44.9761224,1.66992579 40.1171243,1.66992579 M40.1171243,20.965102 C34.3369759,20.965102 29.6349351,16.2625046 29.6349351,10.4823562 C29.6349351,4.70220779 34.3369759,0.000166975881 40.1171243,0.000166975881 C45.8972727,0.000166975881 50.5998701,4.70220779 50.5998701,10.4823562 C50.5998701,16.2625046 45.8972727,20.965102 40.1171243,20.965102" id="Fill-1"></path>
                            <path d="M53.0148423,32.3123377 C53.0148423,46.3967532 42.9996289,57.8602041 30.664564,57.9358998 C29.0983302,57.9164193 27.8293135,56.640167 27.8293135,55.0694805 C27.8293135,53.4871058 29.1166976,52.1997217 30.6990724,52.1997217 C30.7408163,52.1997217 30.7808905,52.1935993 30.8209647,52.1874768 C38.0632653,51.9325603 43.8662338,46.7368275 43.8662338,40.3828386 C43.8662338,39.9214286 43.4922078,39.5479592 43.0313544,39.5479592 C42.5699443,39.5479592 42.196475,39.9214286 42.196475,40.3828386 C42.196475,45.9782004 36.8432282,50.5299629 30.2643785,50.5299629 C30.1458256,50.5299629 30.0333952,50.5555659 29.9309833,50.6000928 C29.7011132,50.6396104 29.4790353,50.6997217 29.2619666,50.7720779 L29.2552876,50.7720779 L29.2552876,32.7993506 C29.2552876,30.7383117 27.7085343,29.5149351 26.8970315,29.014564 C28.1432282,27.7733766 29.0460111,26.1937848 29.4756957,24.4305195 L44.506308,24.4305195 C49.2155844,24.4505566 53.0320965,27.8691095 53.0148423,32.0501855 C53.0148423,32.0963822 53.0209647,32.1403525 53.0276438,32.1848794 C53.0215213,32.2266234 53.0148423,32.2683673 53.0148423,32.3123377 M26.9393321,57.6025046 C11.409462,57.0804267 3.83988868,50.0217996 3.28330241,35.5416512 C4.1471243,36.004731 5.13896104,36.2657699 6.21317254,36.2657699 C9.80927644,36.2657699 12.7352505,33.3403525 12.7352505,29.743692 C12.7352505,29.2622449 12.6801484,28.7880334 12.5766234,28.3282931 C14.3593692,30.4761596 17.0471243,31.8470315 20.0499072,31.8470315 C22.0836735,31.8470315 23.9710575,31.2164193 25.5328386,30.1438776 C25.5912801,30.1939703 25.6552876,30.2390538 25.7293135,30.272449 C25.7476809,30.2813544 27.5855288,31.1312616 27.5855288,32.7993506 L27.5855288,50.7325603 C18.7051948,50.3279221 13.2651206,46.7256957 13.2651206,41.1247681 C13.2651206,40.6639147 12.8910946,40.2898887 12.4302412,40.2898887 C11.9693878,40.2898887 11.5953618,40.6639147 11.5953618,41.1247681 C11.5953618,46.2704082 15.7085343,51.7455473 27.0500928,52.3800557 C26.4918367,53.1325603 26.1595547,54.0620594 26.1595547,55.0694805 C26.1595547,56.0084416 26.4495362,56.8783859 26.9393321,57.6025046 M2.86085343,33.0776438 C2.11669759,32.2210575 1.66975881,31.0611317 1.66975881,29.743692 C1.66975881,29.1843228 2.54638219,28.0260668 4.22170686,26.8945269 C5.78181818,25.8409091 7.27513915,25.3099258 7.99257885,25.3099258 C8.11168831,25.3099258 8.2096475,25.324397 8.2825603,25.3538961 C9.9729128,26.1520408 11.0654917,27.8752319 11.0654917,29.743692 C11.0654917,32.4192022 8.88868275,34.5960111 6.21317254,34.5960111 C4.99925788,34.5960111 3.92949907,34.1334879 3.13079777,33.3620594 C3.06400742,33.2474026 2.97217069,33.1494434 2.86085343,33.0776438 M20.0499072,14.0963822 C24.4836735,14.0963822 28.0909091,17.7030612 28.0909091,22.1368275 C28.0909091,26.5705937 24.4836735,30.1772727 20.0499072,30.1772727 C15.6166976,30.1772727 12.009462,26.5705937 12.009462,22.1368275 C12.009462,17.7030612 15.6166976,14.0963822 20.0499072,14.0963822 M54.6846744,32.0574212 C54.7057514,26.9551948 50.1434137,22.7846939 44.5141002,22.7607607 L44.5102041,22.7607607 L29.7289425,22.7607607 C29.7423006,22.5537106 29.7606679,22.3477737 29.7606679,22.1368275 C29.7606679,16.7824675 25.4048237,12.4266234 20.0499072,12.4266234 C14.6955473,12.4266234 10.3397032,16.7824675 10.3397032,22.1368275 C10.3397032,23.1871058 10.5128015,24.1967532 10.8222635,25.1446197 C10.2896104,24.6097403 9.66011132,24.159462 8.95046382,23.824397 C7.4877551,23.2355288 5.06604824,24.3097403 3.28719852,25.5108534 C2.2987013,26.1782004 0,27.927551 0,29.743692 C0,31.48859 0.593320965,33.0264378 1.58348794,34.1730056 C1.63135436,40.0655844 2.74675325,44.9028757 4.94972171,48.7049165 C4.9458256,48.7366419 4.93970315,48.7683673 4.93970315,48.8012059 L4.93970315,58.3327458 C4.93970315,58.7941558 5.31372913,59.1676252 5.77458256,59.1676252 C6.23543599,59.1676252 6.60946197,58.7941558 6.60946197,58.3327458 L6.60946197,51.1277365 C11.0393321,56.6067718 18.4146568,59.3067718 28.8378479,59.3067718 C28.9046382,59.3067718 28.9680891,59.2967532 29.0298701,59.2828386 C29.4545455,59.4509276 29.9087199,59.5605751 30.3846011,59.5934137 C30.4358071,59.6034323 30.4881262,59.6089981 30.5426716,59.6089981 C30.5766234,59.6089981 30.6089054,59.6067718 30.6428571,59.6062152 C30.6617811,59.6067718 30.6801484,59.6089981 30.6990724,59.6089981 C30.7202226,59.6089981 30.7402597,59.6045455 30.7619666,59.6028757 C38.7267161,59.5221707 45.7792208,55.0555659 50.1278293,48.2435065 L50.1278293,58.2286642 C50.1278293,58.6895176 50.5012987,59.0635436 50.9621521,59.0635436 C51.4235622,59.0635436 51.7970315,58.6895176 51.7970315,58.2286642 L51.7970315,45.246846 C53.6387755,41.395269 54.6846744,36.9893321 54.6846744,32.3123377 C54.6846744,32.2678108 54.6779221,32.2249536 54.6717996,32.1820965 C54.6779221,32.1409091 54.6846744,32.1002783 54.6846744,32.0574212" id="Fill-3"></path>
                        </g>
                    </g>
                </g>
            </g>
        </g>
    </g>
</svg>