<?xml version="1.0" encoding="UTF-8"?>
<svg width="40px" height="27px" viewBox="0 0 40 27" version="1.1" xmlns="http://www.w3.org/2000/svg" xmlns:xlink="http://www.w3.org/1999/xlink">
    <!-- Generator: Sketch 61 (89581) - https://sketch.com -->
    <title>icon-email</title>
    <desc>Created with Sketch.</desc>
    <g id="02-PAGES" stroke="none" stroke-width="1" fill="none" fill-rule="evenodd">
        <g id="15-ACS-PROD-Pages-Build-Complete" transform="translate(-458.000000, -1230.000000)" fill="#FFFFFF">
            <g id="Body">
                <g id="finish" transform="translate(45.000000, 1097.000000)">
                    <g id="email" transform="translate(295.000000, 102.000000)">
                        <path d="M157.977474,35.4012971 L155.750936,53.5309665 C155.51041,55.7775489 153.564485,57.5564413 151.322914,57.5564413 L129.667196,57.5564413 C128.746848,57.5564413 128.000215,56.8131483 128.000215,55.8978121 C128.000215,54.9808056 128.780255,54.3895118 129.700602,54.3895118 L151.414781,54.3895118 C151.937592,54.3895118 152.378557,53.7213832 152.438688,53.1534739 L154.459777,36.7141698 L140.774833,48.8373632 C140.469165,49.1096256 140.074969,49.2582842 139.66741,49.2582842 C139.634004,49.2582842 139.602268,49.2566138 139.568861,49.2532732 C139.127896,49.2282184 138.715327,49.0294501 138.42135,48.7003968 L125.085504,33.7627117 C125.028713,33.6992395 125.006999,33.6190641 124.9619,33.5489106 C124.896757,33.4503616 124.826604,33.3584939 124.784846,33.2449121 C124.741418,33.1313302 124.731396,33.016078 124.713022,32.8974852 C124.70133,32.8156395 124.664583,32.7438156 124.664583,32.6586292 C124.664583,32.641926 124.674605,32.6285634 124.674605,32.6118602 C124.677945,32.4882564 124.716363,32.3746746 124.746428,32.2560818 C124.771483,32.1625438 124.778165,32.0673354 124.818252,31.982149 C124.85667,31.8969626 124.923483,31.8268091 124.976933,31.7466337 C125.045416,31.6464144 125.105548,31.5411842 125.194075,31.4576681 C125.207437,31.4459758 125.212448,31.4292726 125.22414,31.4192507 C125.287613,31.3624598 125.367788,31.3407456 125.436271,31.2956469 C125.536491,31.2305044 125.630029,31.1603509 125.74361,31.1185928 C125.857192,31.0751645 125.974115,31.0651425 126.094378,31.046769 C126.174553,31.0350768 126.248048,31 126.331564,31 L153.821715,31 C155.022676,31 156.175198,31.514459 156.985303,32.4114217 C157.743629,33.249923 158.096067,34.3122475 157.977474,35.4012971 Z M130.044688,34.3189288 L139.804377,45.2545236 L152.146382,34.3189288 L130.044688,34.3189288 Z M129.667196,40.9584567 C129.667196,41.8754632 128.920562,42.6187563 128.000215,42.6187563 L123.000943,42.6187563 C122.080595,42.6187563 121.333962,41.8754632 121.333962,40.9584567 C121.333962,40.0414502 122.080595,39.2981571 123.000943,39.2981571 L128.000215,39.2981571 C128.920562,39.2981571 129.667196,40.0414502 129.667196,40.9584567 Z M131.334176,45.9376851 C131.334176,46.8546915 130.587543,47.5979846 129.667196,47.5979846 L119.666981,47.5979846 C118.746634,47.5979846 118,46.8546915 118,45.9376851 C118,45.0206786 118.746634,44.2773855 119.666981,44.2773855 L129.667196,44.2773855 C130.587543,44.2773855 131.334176,45.0206786 131.334176,45.9376851 Z M124.666253,49.2582842 L133.001157,49.2582842 C133.921504,49.2582842 134.666468,49.9999069 134.666468,50.9169134 C134.666468,51.8339199 133.921504,52.577213 133.001157,52.577213 L124.666253,52.577213 C123.745906,52.577213 123.000943,51.8339199 123.000943,50.9169134 C123.000943,49.9999069 123.745906,49.2582842 124.666253,49.2582842 Z" id="icon-email"></path>
                    </g>
                </g>
            </g>
        </g>
    </g>
</svg>