<?xml version="1.0" encoding="UTF-8"?>
<svg width="90px" height="90px" viewBox="0 0 90 90" version="1.1" xmlns="http://www.w3.org/2000/svg" xmlns:xlink="http://www.w3.org/1999/xlink">
    <!-- Generator: Sketch 61 (89581) - https://sketch.com -->
    <title>icon-DrugsAlcohol</title>
    <desc>Created with Sketch.</desc>
    <g id="02-PAGES" stroke="none" stroke-width="1" fill="none" fill-rule="evenodd">
        <g id="03-ACS-PROD-Pages-TypesOfSupport-1" transform="translate(-433.000000, -1102.000000)">
            <g id="Body">
                <g id="8" transform="translate(342.000000, 1072.000000)">
                    <g id="icon-DrugsAlcohol" transform="translate(91.000000, 30.000000)">
                        <circle id="Oval-7" fill="#F46951" cx="45" cy="45" r="45"></circle>
                        <g id="ill-RecoveringDrugsAlcohol" transform="translate(15.000000, 22.000000)" fill="#FFFFFF" stroke="#FFFFFF">
                            <path d="M23.2858992,1.51255462 C21.3669076,1.51255462 19.8058992,3.07356303 19.8058992,4.99205042 C19.8058992,6.91104202 21.3669076,8.47255462 23.2858992,8.47255462 C25.2043866,8.47255462 26.7658992,6.91104202 26.7658992,4.99205042 C26.7658992,3.07356303 25.2043866,1.51255462 23.2858992,1.51255462 M23.2858992,9.98515966 C20.532958,9.98515966 18.2932941,7.7449916 18.2932941,4.99205042 C18.2932941,2.23910924 20.532958,-5.04201681e-05 23.2858992,-5.04201681e-05 C26.0383361,-5.04201681e-05 28.2785042,2.23910924 28.2785042,4.99205042 C28.2785042,7.7449916 26.0383361,9.98515966 23.2858992,9.98515966" id="Fill-1"></path>
                            <path d="M52.2516303,43.765563 L57.4222185,43.765563 L44.9250756,23.8622017 C34.4926387,29.9232101 17.026084,40.0788403 10.7306218,43.765563 L16.9781849,43.765563 L23.9548235,39.4420336 C24.2437311,39.2640504 24.6158319,39.2993445 24.8654118,39.5287563 C25.1154958,39.7586723 25.181042,40.1267395 25.0262521,40.4292605 L23.3200336,43.765563 L45.2775126,43.765563 L45.2775126,35.225395 C45.2775126,34.888084 45.5008739,34.5911092 45.8255798,34.4978319 C46.1502857,34.4045546 46.4966723,34.5381681 46.6751597,34.8250588 L52.2516303,43.765563 Z M58.7901176,45.2781681 L51.8321345,45.2781681 C51.570958,45.2781681 51.328437,45.1435462 51.1902857,44.9222017 L46.7901176,37.8669076 L46.7901176,44.5218655 C46.7901176,44.9393445 46.4512941,45.2781681 46.0338151,45.2781681 L22.0837311,45.2781681 C21.8205378,45.2781681 21.5765042,45.1415294 21.4388571,44.9166555 C21.3012101,44.6917815 21.2906218,44.4119496 21.4106218,44.1774958 L22.4432269,42.1581681 L17.5917983,45.1647227 C17.4723025,45.2388403 17.3341513,45.2781681 17.193479,45.2781681 L7.96608403,45.2781681 C7.66053782,45.2781681 7.3847395,45.0936303 7.2672605,44.8107731 C7.15028571,44.5284202 7.21532773,44.2027059 7.43213445,43.9864034 C7.52490756,43.8936303 7.65297479,43.7660672 44.7970084,22.1872437 C45.1494454,21.9815294 45.6007059,22.0944706 45.8170084,22.4388403 L59.4304538,44.1195126 C59.5766723,44.352958 59.5852437,44.6469076 59.4516303,44.887916 C59.3190252,45.1284202 59.0654118,45.2781681 58.7901176,45.2781681 L58.7901176,45.2781681 Z" id="Fill-4"></path>
                            <path d="M16.749479,13.6651261 C16.5014118,13.7326891 16.3072941,13.9192437 16.2286387,14.1637815 L14.7835966,18.6784034 C14.6827563,18.995042 14.8037647,19.3469748 15.0775462,19.5335294 L20.2072941,23.0432773 L20.2556975,23.0740336 C20.2788908,23.0901681 20.3030924,23.1057983 20.3277983,23.1189076 C20.3464538,23.1289916 20.3772101,23.1481513 20.4104874,23.1723529 C20.4362017,23.1910084 20.4629244,23.2147059 20.4886387,23.237395 C20.524437,23.2686555 20.5556975,23.297395 20.5854454,23.3296639 C20.6131765,23.3589076 20.6373782,23.3896639 20.6580504,23.4163866 C20.6857815,23.4526891 20.7104874,23.4864706 20.7331765,23.5237815 C20.7528403,23.5555462 20.7704874,23.5893277 20.7916639,23.6321849 C20.8083025,23.6654622 20.8254454,23.7017647 20.8415798,23.7446218 C20.8546891,23.7794118 20.8652773,23.8172269 20.8753613,23.8545378 C20.8859496,23.8933613 20.8965378,23.9326891 20.9041008,23.9785714 C20.9111597,24.0204202 20.9141849,24.0647899 20.9172101,24.1142017 C20.9192269,24.1469748 20.9242689,24.2009244 20.9242689,24.1837815 L20.9242689,33.2089916 C20.9242689,33.9042857 20.3590588,34.4694958 19.6637647,34.4694958 C18.9689748,34.4694958 18.4032605,33.9042857 18.4032605,33.2089916 L18.4032605,25.5920168 C18.4032605,25.2622689 18.1925042,24.9728571 17.8783866,24.872521 L13.2477983,23.382605 L8.96157983,21.9718487 C8.94443697,21.9461345 8.9232605,21.9189076 8.89704202,21.8921849 C8.47351261,21.4706723 8.27284034,20.4733613 8.97872269,18.9410924 L11.6328403,13.2209244 C11.7604034,12.9451261 11.7114958,12.6214286 11.5077983,12.395042 C11.3066218,12.1731933 10.9698151,12.0920168 10.6985546,12.1883193 L9.16628571,12.7202521 C9.06292437,12.7560504 8.96662185,12.8155462 8.88796639,12.8921849 L3.65082353,17.9790756 C3.42292437,18.2009244 3.08157983,18.3239496 2.75586555,18.319916 C2.41452101,18.3153782 2.09132773,18.1817647 1.86947899,17.9533613 C1.63452101,17.7113445 1.50796639,17.3931933 1.51286335,17.0563866 C1.51805042,16.7195798 1.65368067,16.404958 1.89519328,16.1705042 L7.43536134,10.7886555 C7.44544538,10.7785714 7.46510924,10.7629412 7.47670588,10.7548739 C7.49636975,10.7397479 7.51502521,10.7251261 7.53620168,10.7064706 C7.55082353,10.6923529 7.57956303,10.6706723 7.61233613,10.6479832 C7.64309244,10.6268067 7.67687395,10.6081513 7.7232605,10.5829412 C7.74594958,10.5703361 7.77821849,10.5516807 7.80393277,10.5355462 L14.406958,7.44529412 C14.4467899,7.42714286 14.484605,7.40495798 14.5188908,7.3807563 C15.0790588,6.99252101 15.8378824,7.11554622 16.2462857,7.66159664 L19.994521,12.6708403 C20.064605,12.7656303 20.1573782,12.8427731 20.2617479,12.8952101 L27.0871261,16.3096639 C27.3891429,16.4609244 27.6135126,16.7195798 27.719395,17.0387395 C27.8257815,17.3578992 27.8010756,17.6997479 27.6508235,18.0007563 C27.4355294,18.4303361 27.0029244,18.697563 26.5224202,18.697563 C26.3293109,18.697563 26.1351933,18.6516807 25.9597311,18.5639496 L18.6689748,14.9160504 C18.4965378,14.8303361 18.3427563,14.6987395 18.2237647,14.5363866 C18.1914958,14.4930252 18.1551933,14.4526891 18.1148571,14.4168908 L17.4508235,13.8284874 C17.2572101,13.6570588 16.9950252,13.5970588 16.749479,13.6651261 M7.54376471,35.9836134 C7.34460504,35.9836134 7.14494118,35.9347059 6.96645378,35.842437 C6.66746218,35.6886555 6.44611765,35.4269748 6.34426891,35.1057983 C6.24141176,34.7851261 6.27015126,34.4432773 6.42443697,34.1442857 L9.12342857,28.9147059 C9.18040336,28.8037815 9.20914286,28.6802521 9.20763025,28.5572269 L9.13653782,23.6215966 L12.061916,24.582605 L11.7508235,28.9968908 C11.7483025,29.0210924 11.7462857,29.0689916 11.7457815,29.0936975 C11.7452773,29.1113445 11.7417479,29.1410924 11.7387227,29.1683193 C11.7331765,29.2101681 11.7261176,29.2489916 11.7175462,29.2878151 C11.7079664,29.3286555 11.6973782,29.3679832 11.6862857,29.4022689 C11.6711597,29.4471429 11.654521,29.49 11.6343529,29.5328571 C11.6257815,29.5520168 11.6177143,29.5716807 11.6106555,29.5918487 L8.66510924,35.3004202 C8.44779832,35.7219328 8.01821849,35.9836134 7.54376471,35.9836134 M29.1543529,16.5602521 C28.9204034,15.8584034 28.4272941,15.2886555 27.7642689,14.9568908 L21.0987227,11.6221008 L17.4578824,6.75554622 C16.574521,5.57420168 14.9227563,5.29134454 13.7308235,6.09151261 L7.14746218,9.17319328 C7.07183193,9.20848739 7.0017479,9.24882353 6.96746218,9.27201681 C6.89233613,9.31336134 6.81922689,9.35722689 6.75418487,9.40260504 C6.66947899,9.46058824 6.59132773,9.52310924 6.552,9.55789916 C6.50157983,9.59672269 6.42746218,9.6597479 6.38763025,9.69756303 L0.841411765,15.084958 C0.309983193,15.6012605 0.0109915966,16.2935294 0.000403361345,17.0347059 C-0.0106890756,17.7743697 0.268134454,18.4752101 0.784436975,19.0076471 C1.31183193,19.5491597 2.01821849,19.8476471 2.7730084,19.8476471 C3.49905882,19.8476471 4.18527731,19.5693277 4.70510924,19.0636134 L9.34678992,14.5555462 L7.59216807,18.3380672 C6.78746218,20.0831092 6.79552941,21.6728571 7.61031933,22.7170588 L7.6925042,28.3893277 L5.08023529,33.45 C4.74090756,34.1089916 4.67788235,34.8602521 4.9027563,35.5661345 C5.12813445,36.2715126 5.61468908,36.8473109 6.27267227,37.1866387 C6.66393277,37.3893277 7.10359664,37.4962185 7.54376471,37.4962185 C8.58695798,37.4962185 9.53132773,36.9204202 10.0093109,35.9942017 L12.9483025,30.2972269 C12.9866218,30.2261345 13.0148571,30.1631092 13.0279664,30.1227731 C13.0617479,30.0446218 13.0925042,29.9654622 13.1212437,29.8792437 C13.1484706,29.797563 13.1711597,29.7143697 13.1918319,29.6266387 C13.2114958,29.5409244 13.2266218,29.4536975 13.2392269,29.3584034 C13.2498151,29.2721849 13.2558655,29.1864706 13.2563697,29.1421008 L13.5442689,25.0671429 L16.8906555,26.1431092 L16.8906555,33.2089916 C16.8906555,34.7377311 18.1350252,35.9821008 19.6637647,35.9821008 C21.1930084,35.9821008 22.4368739,34.7377311 22.4368739,33.2089916 L22.4368739,24.1837815 C22.4368739,24.1046218 22.4308235,24.027479 22.4247731,23.9876471 C22.4182185,23.8943697 22.4091429,23.8036134 22.394521,23.7214286 C22.3798992,23.6326891 22.3587227,23.5434454 22.334521,23.4567227 C22.3103193,23.3689916 22.2841008,23.2822689 22.2558655,23.2096639 C22.222084,23.1178992 22.1827563,23.0311765 22.146958,22.960084 C22.1061176,22.8768908 22.0627563,22.7962185 22.0173782,22.7246218 C21.9714958,22.6505042 21.9225882,22.5814286 21.8605714,22.4987395 C21.8076303,22.4296639 21.7526723,22.3631092 21.6946891,22.3010924 C21.6321681,22.2335294 21.5661176,22.1710084 21.4874622,22.1014286 C21.4234286,22.044958 21.3578824,21.9915126 21.3029244,21.9516807 C21.2197311,21.8901681 21.1330084,21.8357143 21.0624202,21.7953782 L16.3965378,18.6032773 L17.3015798,15.7747059 C17.5062857,15.9753782 17.7402353,16.1432773 17.9918319,16.2693277 L25.2830924,19.9167227 C25.6667899,20.1088235 26.0953613,20.2101681 26.5224202,20.2101681 C27.5797311,20.2101681 28.5306555,19.6227731 29.0035966,18.677395 C29.3348571,18.0153782 29.3888067,17.2636134 29.1543529,16.5602521" id="Fill-7"></path>
                        </g>
                    </g>
                </g>
            </g>
        </g>
    </g>
</svg>