<?xml version="1.0" encoding="UTF-8"?>
<svg width="90px" height="90px" viewBox="0 0 90 90" version="1.1" xmlns="http://www.w3.org/2000/svg" xmlns:xlink="http://www.w3.org/1999/xlink">
    <!-- Generator: Sketch 61 (89581) - https://sketch.com -->
    <title>icon-SupportingKids</title>
    <desc>Created with Sketch.</desc>
    <g id="02-PAGES" stroke="none" stroke-width="1" fill="none" fill-rule="evenodd">
        <g id="03-ACS-PROD-Pages-TypesOfSupport-1" transform="translate(-433.000000, -777.000000)">
            <g id="Body">
                <g id="5" transform="translate(343.000000, 747.000000)">
                    <g id="icon-SupportingKids" transform="translate(90.000000, 30.000000)">
                        <circle id="Oval-7" fill="#393294" cx="45" cy="45" r="45"></circle>
                        <g id="ill-SupportingKidsatSchool" transform="translate(15.000000, 17.000000)" fill="#FFFFFF" stroke="#FFFFFF">
                            <path d="M16.5624848,2.49163636 C12.6364242,2.49163636 9.44248485,5.68618182 9.44248485,9.61224242 C9.44248485,13.538303 12.6364242,16.7322424 16.5624848,16.7322424 C20.4891515,16.7322424 23.6830909,13.538303 23.6830909,9.61224242 C23.6830909,5.68618182 20.4891515,2.49163636 16.5624848,2.49163636 M16.5624848,18.5504242 C11.634,18.5504242 7.62430303,14.5407273 7.62430303,9.61224242 C7.62430303,4.68315152 11.634,0.673454545 16.5624848,0.673454545 C21.4915758,0.673454545 25.5012727,4.68315152 25.5012727,9.61224242 C25.5012727,14.5407273 21.4915758,18.5504242 16.5624848,18.5504242" id="Fill-1"></path>
                            <path d="M53.087697,29.2340606 C50.5428485,29.2340606 48.4719394,27.1631515 48.4719394,24.618303 C48.4719394,23.4940606 48.8828485,22.4292121 49.6022424,21.5995152 L49.6767879,21.5237576 C49.6870909,21.5140606 49.6901212,21.5001212 49.6992121,21.4898182 C49.9404242,21.2292121 50.2101212,20.9916364 50.5113333,20.788 C50.6028485,20.7255758 50.7755758,20.6843636 51.0258788,20.6843636 C51.5622424,20.6843636 52.4592121,20.8746667 53.6901212,21.4528485 C56.1022424,22.5861818 57.6592121,24.1498182 57.7034545,24.618303 C57.7034545,27.1631515 55.6325455,29.2340606 53.087697,29.2340606 M54.2222424,48.7116364 C54.2895152,48.6673939 54.3658788,48.6328485 54.4501212,48.608 C54.3689091,48.6322424 54.2919394,48.6667879 54.2222424,48.7116364 M27.1622424,48.6104242 C27.2470909,48.6364848 27.3252727,48.6728485 27.3931515,48.718303 C27.3228485,48.6716364 27.2446667,48.6358788 27.1622424,48.6104242 M10.0095152,23.1698182 C10.0095152,25.4286061 8.17254545,27.2655758 5.91375758,27.2655758 C3.65557576,27.2655758 1.818,25.4286061 1.81739394,23.1855758 C1.88890909,22.7225455 3.46284848,21.2158788 5.71375758,20.2401212 C6.66830303,19.8273939 7.3610303,19.6898182 7.78163636,19.6898182 C7.98890909,19.6898182 8.12951515,19.7231515 8.20345455,19.7734545 C8.22284848,19.7861818 8.23921212,19.8019394 8.258,19.8152727 C8.25921212,19.8164848 8.26042424,19.818303 8.26224242,19.8195152 L8.78769697,20.2619394 C9.55921212,21.0243636 10.0095152,22.0637576 10.0095152,23.1698182 M55.1052727,20.128 C53.6634545,19.3661818 51.0143636,18.2437576 49.4895152,19.2837576 C49.0258788,19.5970909 48.6137576,19.9667879 48.2537576,20.3770909 L41.0367879,27.678303 L35.8052727,21.2170909 C35.648303,21.0231515 35.4173939,20.9025455 35.168303,20.8831515 C35.0095152,20.8734545 31.7840606,20.6528485 29.1870909,22.188 C28.0313333,21.2861818 25.678,19.8649697 22.3222424,19.8649697 C22.0816364,19.8649697 21.8501212,19.9607273 21.6798182,20.1310303 L17.0064848,24.8043636 L9.98769697,18.8952727 C9.81557576,18.7316364 9.63254545,18.577697 9.43860606,18.4340606 C9.35921212,18.3740606 9.29618182,18.3164848 9.22466667,18.2686061 C7.80345455,17.2995152 5.37012121,18.328 4.04587879,19.0267879 C3.63193939,19.2455758 -0.000181818182,21.2195152 -0.000181818182,23.1698182 C-0.000181818182,24.5492121 0.478,25.8158788 1.27254545,26.8225455 C1.18951515,28.0298182 1.18224242,27.7107273 1.26224242,38.5295152 C1.28284848,41.4064848 1.30224242,43.9919394 1.30224242,45.558 C1.30224242,47.0646667 1.77436364,48.2252727 2.70466667,49.0070909 C3.62890909,49.7834545 4.79557576,49.9767879 5.62890909,50.0004242 L5.62890909,54.9519394 C5.62890909,55.4537576 6.03618182,55.8610303 6.538,55.8610303 C7.03981818,55.8610303 7.44709091,55.4537576 7.44709091,54.9519394 L7.44709091,49.0428485 C7.44709091,48.7761818 7.32769697,48.5228485 7.12406061,48.3501212 C6.91981818,48.1767879 6.64830303,48.1022424 6.38466667,48.1470909 C6.36951515,48.1495152 4.79921212,48.3998182 3.86769697,47.6101212 C3.37193939,47.1895152 3.1210303,46.4992121 3.1210303,45.558 C3.1210303,43.9889091 3.1010303,41.3992121 3.07981818,38.5161818 C3.04648485,33.948303 2.99921212,31.3128485 3.03860606,28.3334545 C3.89072727,28.8098182 4.87012121,29.0837576 5.91375758,29.0837576 C9.1749697,29.0837576 11.827697,26.4310303 11.827697,23.1698182 C11.827697,23.0461818 11.8125455,22.9249697 11.8052727,22.8025455 L16.4737576,26.7328485 C16.6434545,26.8758788 16.8513333,26.9467879 17.0592121,26.9467879 C17.2919394,26.9467879 17.5252727,26.8570909 17.7016364,26.6801212 L22.6925455,21.6904242 C25.0228485,21.7764848 26.7228485,22.6637576 27.7167879,23.3625455 C26.5725455,24.5819394 25.9858788,26.1813333 25.9858788,28.1322424 C25.7707273,43.9207273 25.8264848,44.4361818 26.0064848,45.7289091 C25.9858788,47.2004242 26.4501212,48.3367879 27.3646667,49.107697 C28.2919394,49.8901212 29.4725455,50.0840606 30.3131515,50.1070909 L30.3131515,54.9519394 C30.3131515,55.4537576 30.7204242,55.8610303 31.2222424,55.8610303 C31.7240606,55.8610303 32.1313333,55.4537576 32.1313333,54.9519394 L32.1313333,49.1507273 C32.1313333,48.8822424 32.0131515,48.628303 31.808303,48.4555758 C31.6040606,48.2828485 31.3331515,48.2095152 31.068303,48.2543636 C31.0531515,48.2573939 29.4670909,48.5016364 28.5361818,47.718 C28.0440606,47.3028485 27.8040606,46.6519394 27.8040606,45.7289091 C27.8040606,45.6234545 27.7864848,45.5222424 27.7531515,45.427697 C27.6004242,44.0337576 27.7016364,35.6589091 27.8040606,28.1867879 C27.8040606,26.517697 28.278,25.2916364 29.2537576,24.3849697 C30.9392121,22.817697 33.6822424,22.6922424 34.6543636,22.6849697 L40.2628485,29.6116364 C40.4252727,29.8122424 40.6664848,29.9346667 40.9246667,29.9473939 C41.2113333,29.9486061 41.4446667,29.8516364 41.6155758,29.678303 L46.6561818,24.5795152 C46.6537576,28.1655758 49.5398182,31.0522424 53.087697,31.0522424 C53.3331515,31.0522424 53.5743636,31.0358788 53.8125455,31.0086061 C53.9095152,37.7746667 53.9973939,44.138 53.8543636,45.4198182 C53.8192121,45.5161818 53.8004242,45.6210303 53.8004242,45.7289091 C53.8004242,46.6489091 53.5622424,47.2973939 53.0737576,47.7131515 C52.1410303,48.5058788 50.548303,48.2555758 50.5361818,48.2543636 C50.2719394,48.208303 50.0010303,48.2822424 49.7961818,48.4555758 C49.5913333,48.628303 49.4731515,48.8822424 49.4731515,49.1507273 L49.4731515,54.9519394 C49.4731515,55.4537576 49.8804242,55.8610303 50.3822424,55.8610303 C50.8840606,55.8610303 51.2913333,55.4537576 51.2913333,54.9519394 L51.2913333,50.1070909 C52.1319394,50.0840606 53.3125455,49.8901212 54.2398182,49.107697 C55.1543636,48.3367879 55.6186061,47.2004242 55.6186061,45.7289091 C55.778,44.508303 55.8301212,44.3698182 55.6246667,30.5292121 C57.9137576,29.5425455 59.5216364,27.2649697 59.5216364,24.618303 C59.5216364,22.5207273 55.5573939,20.3667879 55.1052727,20.128 Z" id="Fill-6"></path>
                            <path d="M50.6782424,6.18545455 C49.7982424,5.96060606 45.0558182,4.78787879 41.674,4.78787879 C39.5333939,4.78787879 36.4733939,5.26969697 33.0558182,6.14484848 L30.8424848,5.29454545 L41.6582424,1.6830303 L52.3800606,5.69030303 L50.6782424,6.18545455 Z M41.674,20.0090909 C38.1455152,20.0090909 35.2758182,17.1381818 35.2758182,13.6109091 C35.2758182,12.5745455 35.5152121,11.5854545 35.9776364,10.690303 C36.1091515,10.5260606 37.0291515,10.0624242 39.6715758,9.89151515 C40.3012727,9.85030303 40.9261212,9.83272727 41.5315758,9.83272727 C44.4455152,9.83272727 46.9109697,10.2539394 47.3285455,10.6157576 C47.8146061,11.5315152 48.0709697,12.5654545 48.0709697,13.6109091 C48.0709697,17.1381818 45.2012727,20.0090909 41.674,20.0090909 L41.674,20.0090909 Z M35.2346061,7.30545455 C37.7891515,6.73454545 40.0364242,6.42181818 41.674,6.42181818 C43.6794545,6.42181818 46.283697,6.88363636 48.1261212,7.27333333 C48.0921818,7.3630303 48.0709697,7.45818182 48.0709697,7.55818182 L48.0709697,9.18242424 C46.1721818,8.1230303 41.3503636,8.14606061 39.584303,8.26 C37.1600606,8.41515152 35.9249091,8.80969697 35.2758182,9.18727273 L35.2758182,7.55818182 C35.2758182,7.47030303 35.2606667,7.38545455 35.2346061,7.30545455 L35.2346061,7.30545455 Z M55.2570303,5.02121212 L41.9594545,0.0521212121 C41.784303,-0.0139393939 41.5921818,-0.016969697 41.4146061,0.0418181818 L28.164303,4.46666667 C27.8370303,4.57636364 27.6133939,4.87939394 27.6065127,5.22363636 C27.5988485,5.56787879 27.8085455,5.88121212 28.1303636,6.00424242 L33.6418788,8.11939394 C33.6418788,8.11939394 33.6600606,14.0969697 33.6655152,14.0733333 C33.9067273,18.2860606 37.4012727,21.6424242 41.674,21.6424242 C46.1018788,21.6424242 49.7055152,17.9824242 49.7055152,13.6109091 L49.7055152,8.17030303 L50.8012727,7.85151515 L50.8012727,11.7084848 C50.8012727,12.1593939 51.1673333,12.5254545 51.6182424,12.5254545 C52.0697576,12.5254545 52.4346061,12.1593939 52.4346061,11.7084848 L52.4346061,7.37575758 L55.1994545,6.57090909 C55.5376364,6.47272727 55.774,6.16848485 55.7873333,5.8169697 C55.8000606,5.46545455 55.5867273,5.14424242 55.2570303,5.02121212 L55.2570303,5.02121212 Z" id="Fill-3"></path>
                        </g>
                    </g>
                </g>
            </g>
        </g>
    </g>
</svg>