<?xml version="1.0" encoding="UTF-8"?>
<svg width="39px" height="40px" viewBox="0 0 39 40" version="1.1" xmlns="http://www.w3.org/2000/svg" xmlns:xlink="http://www.w3.org/1999/xlink">
    <!-- Generator: Sketch 61 (89581) - https://sketch.com -->
    <title>icon-text</title>
    <desc>Created with Sketch.</desc>
    <g id="02-PAGES" stroke="none" stroke-width="1" fill="none" fill-rule="evenodd">
        <g id="15-ACS-PROD-Pages-Build-Complete" transform="translate(-168.000000, -1224.000000)" fill="#FFFFFF">
            <g id="Body">
                <g id="finish" transform="translate(45.000000, 1097.000000)">
                    <g id="text" transform="translate(0.000000, 102.000000)">
                        <path d="M158.555,51.6666667 L150.356667,51.6666667 L145.845,56.1783333 C145.526667,56.4966667 145.1,56.6666667 144.666667,56.6666667 C144.451667,56.6666667 144.235,56.625 144.028333,56.54 C143.406667,56.2816667 143,55.6733333 143,55 L143,51.6666667 L140.776667,51.6666667 C139.246667,51.6666667 138,50.385 138,48.8083333 L138,37.8566667 C138,36.2816667 139.246667,35 140.776667,35 L158.555,35 C160.086667,35 161.333333,36.2816667 161.333333,37.8566667 L161.333333,48.8083333 C161.333333,50.385 160.086667,51.6666667 158.555,51.6666667 Z M158,38.3333333 L141.333333,38.3333333 L141.333333,48.3333333 L144.666667,48.3333333 C145.586667,48.3333333 146.333333,49.08 146.333333,50 L146.333333,50.9766667 L148.488333,48.8216667 C148.496667,48.8133333 148.506667,48.8116667 148.513333,48.805 C148.663333,48.6616667 148.835,48.5433333 149.03,48.4616667 C149.233333,48.3783333 149.45,48.3333333 149.668333,48.3333333 L158,48.3333333 L158,38.3333333 Z M136.333333,60 L133,60 L133,56.6633333 L136.333333,56.6633333 L136.333333,60 Z M131.333333,31.6666667 C131.333333,30.7466667 132.08,30 133,30 L136.333333,30 C137.253333,30 138,30.7466667 138,31.6666667 C138,32.5866667 137.253333,33.3333333 136.333333,33.3333333 L133,33.3333333 C132.08,33.3333333 131.333333,32.5866667 131.333333,31.6666667 Z M144.666667,33.3333333 C143.746667,33.3333333 143,32.5866667 143,31.6666667 L143,29.1116667 C143,28.69 142.643333,28.3333333 142.221667,28.3333333 L127.111667,28.3333333 C126.69,28.3333333 126.333333,28.69 126.333333,29.1116667 L126.333333,60.8883333 C126.333333,61.31 126.69,61.6666667 127.111667,61.6666667 L142.221667,61.6666667 C142.643333,61.6666667 143,61.31 143,60.8883333 L143,60 C143,59.08 143.746667,58.3333333 144.666667,58.3333333 C145.586667,58.3333333 146.333333,59.08 146.333333,60 L146.333333,60.8883333 C146.333333,63.1566667 144.49,65 142.221667,65 L127.111667,65 C124.843333,65 123,63.1566667 123,60.8883333 L123,29.1116667 C123,26.845 124.843333,25 127.111667,25 L142.221667,25 C144.49,25 146.333333,26.845 146.333333,29.1116667 L146.333333,31.6666667 C146.333333,32.5866667 145.586667,33.3333333 144.666667,33.3333333 Z" id="icon-text"></path>
                    </g>
                </g>
            </g>
        </g>
    </g>
</svg>