<?xml version="1.0" encoding="UTF-8"?>
<svg width="14px" height="14px" viewBox="0 0 14 14" version="1.1" xmlns="http://www.w3.org/2000/svg" xmlns:xlink="http://www.w3.org/1999/xlink">
    <!-- Generator: Sketch 61 (89581) - https://sketch.com -->
    <title>icon-arrow-circle-right</title>
    <desc>Created with Sketch.</desc>
    <g id="02-PAGES" stroke="none" stroke-width="1" fill="none" fill-rule="evenodd">
        <g id="01-ACS-PROD-Pages-Home" transform="translate(-371.000000, -1118.000000)" fill="#15152A">
            <g id="Body" transform="translate(0.000000, 1.000000)">
                <g id="support-workers" transform="translate(100.000000, 831.000000)">
                    <g id="left" transform="translate(0.000000, 170.000000)">
                        <path d="M277.781234,116 C281.527319,116 284.562468,119.035149 284.562468,122.781234 C284.562468,126.527319 281.527319,129.562468 277.781234,129.562468 C274.035149,129.562468 271,126.527319 271,122.781234 C271,119.035149 274.035149,116 277.781234,116 Z M276.990991,119.926542 L279.055439,121.906236 L274.062493,121.906236 C273.698827,121.906236 273.406244,122.198819 273.406244,122.562484 L273.406244,122.999983 C273.406244,123.363649 273.698827,123.656232 274.062493,123.656232 L279.055439,123.656232 L276.990991,125.635925 C276.725778,125.890216 276.720304,126.314043 276.980069,126.573808 L277.28085,126.871838 C277.537864,127.12888 277.953494,127.12888 278.207785,126.871838 L281.836297,123.246076 C282.093338,122.989035 282.093338,122.573433 281.836297,122.319115 L278.207785,118.687879 C277.95077,118.430864 277.535141,118.430864 277.28085,118.687879 L276.980069,118.985936 C276.720304,119.248424 276.725778,119.672252 276.990991,119.926542 Z" id="icon-arrow-circle-right"></path>
                    </g>
                </g>
            </g>
        </g>
    </g>
</svg>