<?xml version="1.0" encoding="UTF-8"?>
<svg width="14px" height="14px" viewBox="0 0 14 14" version="1.1" xmlns="http://www.w3.org/2000/svg" xmlns:xlink="http://www.w3.org/1999/xlink">
    <!-- Generator: Sketch 61 (89581) - https://sketch.com -->
    <title>icon-chevron-circle-up</title>
    <desc>Created with Sketch.</desc>
    <g id="02-PAGES" stroke="none" stroke-width="1" fill="none" fill-rule="evenodd">
        <g id="22-ACS-PROD-Pages-Providers-C" transform="translate(-747.000000, -271.000000)" fill="#15152A">
            <g id="Modal" transform="translate(0.000000, -201.000000)">
                <g id="location" transform="translate(200.000000, 462.000000)">
                    <path d="M547,16.7812338 C547,13.035149 550.035149,10 553.781234,10 C557.527319,10 560.562468,13.035149 560.562468,16.7812338 C560.562468,20.5273187 557.527319,23.5624677 553.781234,23.5624677 C550.035149,23.5624677 547,20.5273187 547,16.7812338 Z M553.316391,13.6667775 L549.611322,17.3718467 C549.354281,17.6288881 549.354281,18.0445174 549.611322,18.2988083 L550.076165,18.763651 C550.333206,19.0206923 550.748809,19.0206923 551.003126,18.763651 L553.781234,15.9855433 L556.559342,18.763651 C556.816383,19.0206923 557.232012,19.0206923 557.486303,18.763651 L557.951146,18.2988083 C558.208187,18.041767 558.208187,17.6261644 557.951146,17.3718467 L554.246076,13.6667775 C553.989035,13.4097628 553.573433,13.4097628 553.316391,13.6667775 Z" id="icon-chevron-circle-up"></path>
                </g>
            </g>
        </g>
    </g>
</svg>