<?xml version="1.0" encoding="UTF-8"?>
<svg width="30px" height="30px" viewBox="0 0 30 30" version="1.1" xmlns="http://www.w3.org/2000/svg" xmlns:xlink="http://www.w3.org/1999/xlink">
    <!-- Generator: Sketch 61 (89581) - https://sketch.com -->
    <title>icon-5</title>
    <desc>Created with Sketch.</desc>
    <g id="02-PAGES" stroke="none" stroke-width="1" fill="none" fill-rule="evenodd">
        <g id="16-ACS-PROD-Pages-ProgramInformation-A" transform="translate(-360.000000, -1520.000000)" fill="#15152A">
            <g id="Body">
                <path d="M375,1520 C383.284271,1520 390,1526.71573 390,1535 C390,1543.28427 383.284271,1550 375,1550 C366.715729,1550 360,1543.28427 360,1535 C360,1526.71573 366.715729,1520 375,1520 Z M378.2976,1529.72 L371.7024,1529.72 L371.4576,1535.1344 L373.0128,1535.5952 C373.300801,1535.4416 373.583999,1535.324 373.8624,1535.2424 C374.140801,1535.1608 374.419199,1535.12 374.6976,1535.12 C375.225603,1535.12 375.667198,1535.2592 376.0224,1535.5376 C376.377602,1535.816 376.5552,1536.1664 376.5552,1536.5888 C376.5552,1537.0304 376.392002,1537.3832 376.0656,1537.6472 C375.739198,1537.9112 375.316803,1538.0432 374.7984,1538.0432 C374.356798,1538.0432 373.939202,1537.9664 373.5456,1537.8128 C373.151998,1537.6592 372.744002,1537.4096 372.3216,1537.064 L372.3216,1537.064 L370.9968,1538.6048 C371.515203,1539.0464 372.086397,1539.3824 372.7104,1539.6128 C373.334403,1539.8432 373.991997,1539.9584 374.6832,1539.9584 C375.297603,1539.9584 375.861597,1539.8744 376.3752,1539.7064 C376.888803,1539.5384 377.325598,1539.3032 377.6856,1539.0008 C378.045602,1538.6984 378.326399,1538.3312 378.528,1537.8992 C378.729601,1537.4672 378.8304,1536.992 378.8304,1536.4736 C378.8304,1535.552 378.518403,1534.8104 377.8944,1534.2488 C377.270397,1533.6872 376.449605,1533.4064 375.432,1533.4064 C375.076798,1533.4064 374.733602,1533.4448 374.4024,1533.5216 C374.071198,1533.5984 373.756801,1533.7136 373.4592,1533.8672 L373.4592,1533.8672 L373.56,1531.6064 L378.2976,1531.6064 L378.2976,1529.72 Z" id="icon-5"></path>
            </g>
        </g>
    </g>
</svg>