<?xml version="1.0" encoding="UTF-8"?>
<svg width="16px" height="16px" viewBox="0 0 16 16" version="1.1" xmlns="http://www.w3.org/2000/svg" xmlns:xlink="http://www.w3.org/1999/xlink">
    <!-- Generator: Sketch 61 (89581) - https://sketch.com -->
    <title>icon-close-circle</title>
    <desc>Created with Sketch.</desc>
    <g id="02-PAGES" stroke="none" stroke-width="1" fill="none" fill-rule="evenodd">
        <g id="04-ACS-PROD-Pages-TypesOfSupport-2" transform="translate(-548.000000, -533.000000)" fill="#15152A">
            <g id="Modal" transform="translate(0.000000, -195.000000)">
                <path d="M556,728 C560.418278,728 564,731.581722 564,736 C564,740.418278 560.418278,744 556,744 C551.581722,744 548,740.418278 548,736 C548,731.581722 551.581722,728 556,728 Z M558.144878,733.925139 C557.962666,733.742928 557.667124,733.742928 557.484913,733.925139 L557.484913,733.925139 L555.999992,735.41006 L554.515072,733.925139 C554.33286,733.742928 554.037318,733.742928 553.855107,733.925139 L553.855107,733.925139 L553.525118,734.255127 C553.342913,734.437333 553.342913,734.732875 553.525124,734.915086 L553.525124,734.915086 L555.010045,736.400007 L553.525124,737.884927 C553.342913,738.067139 553.342913,738.362681 553.525124,738.544892 L553.525124,738.544892 L553.855113,738.87488 C554.037318,739.057086 554.33286,739.057086 554.515072,738.874875 L554.515072,738.874875 L555.999992,737.389954 L557.484913,738.874875 C557.667124,739.057086 557.962666,739.057086 558.144872,738.87488 L558.144872,738.87488 L558.47486,738.544892 C558.657071,738.362681 558.657071,738.067139 558.47486,737.884927 L558.47486,737.884927 L556.989939,736.400007 L558.47486,734.915086 C558.657071,734.732875 558.657071,734.437333 558.474866,734.255127 L558.474866,734.255127 Z" id="icon-close-circle"></path>
            </g>
        </g>
    </g>
</svg>