<?xml version="1.0" encoding="UTF-8"?>
<svg width="30px" height="30px" viewBox="0 0 30 30" version="1.1" xmlns="http://www.w3.org/2000/svg" xmlns:xlink="http://www.w3.org/1999/xlink">
    <!-- Generator: Sketch 61 (89581) - https://sketch.com -->
    <title>icon-6</title>
    <desc>Created with Sketch.</desc>
    <g id="02-PAGES" stroke="none" stroke-width="1" fill="none" fill-rule="evenodd">
        <g id="16-ACS-PROD-Pages-ProgramInformation-A" transform="translate(-360.000000, -1700.000000)" fill="#15152A">
            <g id="Body">
                <path d="M375,1700 C383.284271,1700 390,1706.71573 390,1715 C390,1723.28427 383.284271,1730 375,1730 C366.715729,1730 360,1723.28427 360,1715 C360,1706.71573 366.715729,1700 375,1700 Z M375.8136,1709.5472 C375.083996,1709.5472 374.416803,1709.6768 373.812,1709.936 C373.207197,1710.1952 372.691202,1710.5576 372.264,1711.0232 C371.836798,1711.4888 371.505601,1712.0528 371.2704,1712.7152 C371.035199,1713.3776 370.9176,1714.112 370.9176,1714.9184 C370.9176,1715.6672 371.025599,1716.3536 371.2416,1716.9776 C371.457601,1717.6016 371.757598,1718.132 372.1416,1718.5688 C372.525602,1719.0056 372.991197,1719.3464 373.5384,1719.5912 C374.085603,1719.836 374.690397,1719.9584 375.3528,1719.9584 C375.890403,1719.9584 376.387198,1719.8744 376.8432,1719.7064 C377.299202,1719.5384 377.692798,1719.3056 378.024,1719.008 C378.355202,1718.7104 378.614399,1718.3576 378.8016,1717.9496 C378.988801,1717.5416 379.0824,1717.0976 379.0824,1716.6176 C379.0824,1716.176 378.998401,1715.7656 378.8304,1715.3864 C378.662399,1715.0072 378.429601,1714.6856 378.132,1714.4216 C377.834399,1714.1576 377.476802,1713.9488 377.0592,1713.7952 C376.641598,1713.6416 376.188002,1713.5648 375.6984,1713.5648 C375.199198,1713.5648 374.724002,1713.6896 374.2728,1713.9392 C373.821598,1714.1888 373.437602,1714.5392 373.1208,1714.9904 C373.1208,1713.88639 373.336798,1713.0344 373.7688,1712.4344 C374.200802,1711.8344 374.824796,1711.5344 375.6408,1711.5344 C376.044002,1711.5344 376.401598,1711.5896 376.7136,1711.7 C377.025602,1711.8104 377.320799,1711.9856 377.5992,1712.2256 L377.5992,1712.2256 L378.8808,1710.6416 C378.525598,1710.3152 378.064803,1710.0512 377.4984,1709.8496 C376.931997,1709.648 376.370403,1709.5472 375.8136,1709.5472 Z M375.324,1715.2928 C375.794402,1715.2928 376.175999,1715.42 376.4688,1715.6744 C376.761601,1715.9288 376.908,1716.2576 376.908,1716.6608 C376.908,1717.064 376.747202,1717.3976 376.4256,1717.6616 C376.103998,1717.9256 375.708002,1718.0576 375.2376,1718.0576 C374.757598,1718.0576 374.342402,1717.8872 373.992,1717.5464 C373.641598,1717.2056 373.394401,1716.7472 373.2504,1716.1712 C373.519201,1715.8928 373.828798,1715.6768 374.1792,1715.5232 C374.529602,1715.3696 374.911198,1715.2928 375.324,1715.2928 Z" id="icon-6"></path>
            </g>
        </g>
    </g>
</svg>