<?xml version="1.0" encoding="UTF-8"?>
<svg width="30px" height="30px" viewBox="0 0 30 30" version="1.1" xmlns="http://www.w3.org/2000/svg" xmlns:xlink="http://www.w3.org/1999/xlink">
    <!-- Generator: Sketch 61 (89581) - https://sketch.com -->
    <title>icon-2</title>
    <desc>Created with Sketch.</desc>
    <g id="02-PAGES" stroke="none" stroke-width="1" fill="none" fill-rule="evenodd">
        <g id="16-ACS-PROD-Pages-ProgramInformation-A" transform="translate(-360.000000, -950.000000)" fill="#15152A">
            <g id="Body">
                <path d="M375,950 C383.284271,950 390,956.715729 390,965 C390,973.284271 383.284271,980 375,980 C366.715729,980 360,973.284271 360,965 C360,956.715729 366.715729,950 375,950 Z M374.964,959.5904 C374.272797,959.5904 373.600803,959.729599 372.948,960.008 C372.295197,960.286401 371.680803,960.699197 371.1048,961.2464 L371.1048,961.2464 L372.3432,962.7584 C372.804002,962.316798 373.231198,962.000001 373.6248,961.808 C374.018402,961.615999 374.440798,961.52 374.892,961.52 C375.314402,961.52 375.667199,961.627999 375.9504,961.844 C376.233601,962.060001 376.3752,962.331198 376.3752,962.6576 C376.3752,962.888001 376.320001,963.111199 376.2096,963.3272 C376.099199,963.543201 375.928801,963.766399 375.6984,963.9968 L375.6984,963.9968 L371.436,968.216 L371.436,969.8 L378.6792,969.8 L378.6792,967.9136 L374.316,967.928 L377.2248,965.12 C377.676002,964.678398 378.007199,964.251202 378.2184,963.8384 C378.429601,963.425598 378.5352,962.984002 378.5352,962.5136 C378.5352,961.639996 378.206403,960.934403 377.5488,960.3968 C376.891197,959.859197 376.029605,959.5904 374.964,959.5904 Z" id="icon-2"></path>
            </g>
        </g>
    </g>
</svg>