<?xml version="1.0" encoding="UTF-8"?>
<svg width="94px" height="94px" viewBox="0 0 94 94" version="1.1" xmlns="http://www.w3.org/2000/svg" xmlns:xlink="http://www.w3.org/1999/xlink">
    <!-- Generator: Sketch 61 (89581) - https://sketch.com -->
    <title>icon-FamilyConflict</title>
    <desc>Created with Sketch.</desc>
    <g id="02-PAGES" stroke="none" stroke-width="1" fill="none" fill-rule="evenodd">
        <g id="03-ACS-PROD-Pages-TypesOfSupport-1" transform="translate(-431.000000, -450.000000)">
            <g id="Body">
                <g id="2" transform="translate(343.000000, 421.000000)">
                    <g id="icon-FamilyConflict" transform="translate(90.000000, 31.000000)">
                        <circle id="Oval-7" stroke="#EBB41C" stroke-width="3" fill="#EBB41C" cx="45" cy="45" r="45"></circle>
                        <g id="ill-OvercomingFamilyConflict" transform="translate(17.000000, 15.000000)" fill="#FFFFFF" stroke="#FFFFFF">
                            <path d="M23.6953688,1.54373928 C20.715952,1.54373928 18.2922813,3.96792453 18.2922813,6.94734134 C18.2922813,9.92624357 20.715952,12.3504288 23.6953688,12.3504288 C26.6747856,12.3504288 29.0984563,9.92624357 29.0984563,6.94734134 C29.0984563,3.96792453 26.6747856,1.54373928 23.6953688,1.54373928 M23.6953688,13.8941681 C19.864837,13.8941681 16.748542,10.7773585 16.748542,6.94734134 C16.748542,3.11680961 19.864837,0 23.6953688,0 C27.5259005,0 30.6421955,3.11680961 30.6421955,6.94734134 C30.6421955,10.7773585 27.5259005,13.8941681 23.6953688,13.8941681" id="Fill-1"></path>
                            <path d="M38.875729,5.29003431 C36.0517153,5.29003431 33.7546312,7.58711835 33.7546312,10.4111321 C33.7546312,13.2351458 36.0517153,15.5322298 38.875729,15.5322298 C41.6997427,15.5322298 43.9968268,13.2351458 43.9968268,10.4111321 C43.9968268,7.58711835 41.6997427,5.29003431 38.875729,5.29003431 M38.875729,17.0759691 C35.2006003,17.0759691 32.2108919,14.0862607 32.2108919,10.4111321 C32.2108919,6.73651801 35.2006003,3.74629503 38.875729,3.74629503 C42.5508576,3.74629503 45.540566,6.73651801 45.540566,10.4111321 C45.540566,14.0862607 42.5508576,17.0759691 38.875729,17.0759691" id="Fill-3"></path>
                            <path d="M48.9052487,20.9374786 C46.7306346,20.9374786 44.9615094,22.7066038 44.9615094,24.8812178 C44.9615094,27.0558319 46.7306346,28.8249571 48.9052487,28.8249571 C51.0798628,28.8249571 52.848988,27.0558319 52.848988,24.8812178 C52.848988,22.7066038 51.0798628,20.9374786 48.9052487,20.9374786 M48.9052487,30.3686964 C45.8795197,30.3686964 43.4177702,27.9069468 43.4177702,24.8812178 C43.4177702,21.8554889 45.8795197,19.3937393 48.9052487,19.3937393 C51.9309777,19.3937393 54.3927273,21.8554889 54.3927273,24.8812178 C54.3927273,27.9069468 51.9309777,30.3686964 48.9052487,30.3686964" id="Fill-5"></path>
                            <path d="M10.95,16.0349228 C8.61740995,16.0349228 6.72015437,17.932693 6.72015437,20.2647684 C6.72015437,22.5973585 8.61740995,24.4946141 10.95,24.4946141 C13.2825901,24.4946141 15.1798456,22.5973585 15.1798456,20.2647684 C15.1798456,17.932693 13.2825901,16.0349228 10.95,16.0349228 M10.95,26.0383533 C7.76629503,26.0383533 5.17641509,23.4484734 5.17641509,20.2647684 C5.17641509,17.0810635 7.76629503,14.4911835 10.95,14.4911835 C14.133705,14.4911835 16.7235849,17.0810635 16.7235849,20.2647684 C16.7235849,23.4484734 14.133705,26.0383533 10.95,26.0383533" id="Fill-7"></path>
                            <path d="M19.0073928,17.7530017 C18.6610806,17.7530017 18.356964,17.4823328 18.3008748,17.1015437 C18.2391252,16.6806175 18.5056775,16.2849057 18.8967581,16.2190395 C19.037753,16.1948542 22.3768611,15.6303602 24.467084,15.6303602 C26.5578216,15.6303602 29.8969297,16.1948542 30.0379245,16.2190395 C30.4284906,16.2849057 30.6950429,16.6806175 30.6332933,17.1015437 C30.5715437,17.5229846 30.2031046,17.8096055 29.8145969,17.7432247 C29.7811492,17.7380789 26.4451286,17.1740995 24.467084,17.1740995 C22.4880103,17.1740995 19.1535334,17.7380789 19.1200858,17.7432247 C19.0820069,17.7499142 19.0444425,17.7530017 19.0073928,17.7530017" id="Fill-9"></path>
                            <path d="M17.2455746,41.3867238 C17.2455746,42.1174271 17.1755918,42.1575643 16.6301372,42.4693997 C16.4057804,42.5980446 16.1263636,42.7580789 15.8191595,42.9901544 C15.6267067,43.1357804 15.5129846,43.3637393 15.5129846,43.6055918 L15.5129846,55.926175 C15.5129846,57.1452144 14.748319,58.1373242 13.8086964,58.1373242 L12.9755918,58.1373242 C12.5104117,58.1373242 12.0575815,57.8784906 11.7328816,57.4266895 C11.5877702,57.2254889 11.3551801,57.1055918 11.1061235,57.1055918 C10.8580961,57.1055918 10.6249914,57.2249743 10.4803945,57.4266895 C10.1500343,57.8851801 9.70852487,58.1373242 9.23665523,58.1373242 L8.40303602,58.1373242 C7.46392796,58.1373242 6.69977702,57.1452144 6.69977702,55.926175 L6.69977702,43.817084 C6.69977702,43.5459005 6.557753,43.2947856 6.32567753,43.1553345 C6.054494,42.9927273 5.80132075,42.8645969 5.57027444,42.7483019 C4.81229846,42.368542 4.65432247,42.2892967 4.65432247,41.3867238 L4.65432247,34.6956432 C6.90766724,34.5371527 8.69222985,32.6532762 8.69222985,30.3603087 C8.69222985,29.7479588 8.56409949,29.1520755 8.32121784,28.6045626 L14.3294511,28.6045626 C15.9375129,28.6045626 17.2455746,30.2512178 17.2455746,32.2760892 L17.2455746,41.3867238 Z M1.56066895,30.6639108 L4.64969125,27.5743739 C5.30732419,27.6448714 5.9119554,27.9438422 6.37713551,28.4342367 L6.37713551,28.4342367 C6.87473413,28.9591081 7.14849057,29.6429846 7.14849057,30.3603087 C7.14849057,31.9055918 5.89188679,33.1627101 4.34660377,33.1627101 C4.22259005,33.1627101 4.10166381,33.1513894 3.98279588,33.135952 L3.98176672,33.135952 C2.69377358,32.9687136 1.69857633,31.9313208 1.56066895,30.6639108 L1.56066895,30.6639108 Z M14.3294511,27.0608233 L7.57044597,27.0608233 C7.44643225,27.0608233 7.32087479,27.0680274 7.19274443,27.0814065 C6.40286449,26.3913551 5.40663808,26.0141681 4.34660377,26.0141681 C4.14180103,26.0141681 3.94523156,26.0959863 3.80063465,26.2405832 L0.226363636,29.8148542 C0.0817667238,29.9594511 -5.1457976e-05,30.155506 -5.1457976e-05,30.3603087 C-5.1457976e-05,32.3023328 1.2977187,33.9829503 3.11058319,34.5206861 L3.11058319,41.3867238 C3.11058319,43.2417839 4.00852487,43.6925557 4.87765009,44.1284048 C4.96667238,44.1731732 5.05929674,44.2194854 5.15603774,44.2699142 L5.15603774,55.926175 C5.15603774,57.9963293 6.61281304,59.6810635 8.40303602,59.6810635 L9.23665523,59.6810635 C9.91487136,59.6810635 10.5653002,59.4386964 11.1061235,58.9977015 C11.6469468,59.4386964 12.2973756,59.6810635 12.9755918,59.6810635 L13.8086964,59.6810635 C15.5999485,59.6810635 17.0567238,57.9963293 17.0567238,55.926175 L17.0567238,44.0110806 C17.1725043,43.9380103 17.2857118,43.8731732 17.3968611,43.8093654 C18.2119554,43.3431561 18.7893139,42.8965009 18.7893139,41.3867238 L18.7893139,32.2760892 C18.7893139,29.4006175 16.7886278,27.0608233 14.3294511,27.0608233 L14.3294511,27.0608233 Z" id="Fill-14"></path>
                            <path d="M48.6452316,56.7022642 C48.8942882,56.7022642 49.128422,56.8226758 49.2735334,57.0259348 C49.6532933,57.5574957 50.2167581,57.8626415 50.8198456,57.8626415 C51.9107547,57.8626415 52.7989194,56.8710463 52.7989194,55.6520069 L52.7989194,47.7099828 C52.7989194,47.3765352 53.0134991,47.0806518 53.3309949,46.9767067 C53.341801,46.9731046 54.7419726,46.4888851 54.7419726,45.4797942 L54.7419726,36.3691595 C54.7419726,34.3448027 53.2496913,32.6976329 51.415729,32.6976329 L45.8309949,32.6976329 C43.9970326,32.6976329 42.5047513,34.3448027 42.5047513,36.3691595 L42.5047513,45.4797942 C42.5047513,46.6103259 43.8529503,46.9761921 43.9105832,46.9911149 C44.2502058,47.0801372 44.4915437,47.3878559 44.4915437,47.7393139 L44.4915437,55.6520069 C44.4915437,56.8710463 45.3797084,57.8626415 46.4706175,57.8626415 C47.073705,57.8626415 47.6376844,57.5574957 48.0169297,57.0259348 C48.1620412,56.8226758 48.3956604,56.7022642 48.6452316,56.7022642 M50.8198456,59.4063808 C50.016072,59.4063808 49.2580961,59.1218182 48.6452316,58.6056947 C48.0328816,59.1218182 47.2743911,59.4063808 46.4706175,59.4063808 C44.5285935,59.4063808 42.9478045,57.7221612 42.9478045,55.6520069 L42.9478045,48.2811664 C42.0570669,47.8792796 40.961012,46.9921441 40.961012,45.4797942 L40.961012,36.3691595 C40.961012,33.4931732 43.1459177,31.1538937 45.8309949,31.1538937 L51.415729,31.1538937 C54.1008062,31.1538937 56.2857118,33.4931732 56.2857118,36.3691595 L56.2857118,45.4797942 C56.2857118,47.0034648 55.0713036,47.8473756 54.3426587,48.2163293 L54.3426587,55.6520069 C54.3426587,57.7221612 52.7618696,59.4063808 50.8198456,59.4063808" id="Fill-11"></path>
                            <path d="M27.2454545,58.9088336 L26.2415094,58.9088336 C25.3271012,58.9088336 24.5727273,58.3150086 23.9881647,57.7134648 C23.3958834,58.3222127 22.6451115,58.9088336 21.7363636,58.9088336 L20.7324185,58.9088336 C19.9801029,58.9088336 19.2540309,58.6870497 18.6324185,58.2676672 C18.2794168,58.0289022 18.1867925,57.5487993 18.4250429,57.1957976 C18.6638079,56.8422813 19.1428816,56.7491424 19.4963979,56.988422 C19.8617496,57.2349057 20.2893654,57.3650943 20.7324185,57.3650943 L21.7363636,57.3650943 C22.271012,57.3650943 22.9656947,56.5633791 23.380446,56.0848199 C23.5271012,55.9155232 23.7524871,55.8038593 23.9763293,55.8038593 C24.2001715,55.8038593 24.4255575,55.8861921 24.5722127,56.0554889 C25.012693,56.5638937 25.7073756,57.3650943 26.2415094,57.3650943 L27.2454545,57.3650943 C27.919554,57.3650943 28.5483705,57.063036 28.9708405,56.5371355 C29.238422,56.204717 29.7241852,56.1517153 30.0560892,56.417753 C30.3885077,56.6848199 30.4415094,57.1705832 30.1749571,57.5035163 C29.4576329,58.3968268 28.3898799,58.9088336 27.2454545,58.9088336" id="Fill-17"></path>
                            <path d="M44.3672727,18.4605489 L34.7590395,18.4605489 C32.5062093,18.4605489 30.7684734,19.5833619 30.2245626,21.3900515 C30.1108405,21.767753 29.8473756,22.6193825 29.5067238,23.7205832 C28.3720755,27.3890223 26.4732762,33.5279588 26.2221612,34.6975986 C25.7955746,36.6391081 26.3358834,38.52247 27.4520069,38.9850772 L29.6163293,39.8825043 C29.2278216,41.3042882 28.9092967,42.461578 28.7919726,42.864494 C28.4878559,43.9121784 28.6725901,45.0982847 29.2638422,45.8850772 C29.624048,46.3651801 30.0959177,46.6291595 30.591458,46.6291595 L31.3942024,46.6291595 L31.3942024,55.4464837 C31.3942024,57.5166381 33.078422,59.2013722 35.1485763,59.2013722 L36.1525214,59.2013722 C36.9717324,59.2013722 37.7605832,58.9327616 38.4053516,58.4480274 C39.0501201,58.9327616 39.8389708,59.2013722 40.6581818,59.2013722 L41.6616123,59.2013722 C42.088199,59.2013722 42.433482,58.8560892 42.433482,58.4295026 C42.433482,58.0034305 42.088199,57.6576329 41.6616123,57.6576329 L40.6581818,57.6576329 C40.0185592,57.6576329 39.4103259,57.3787307 38.9883705,56.8924528 C38.6945455,56.5538593 38.1146141,56.5543739 37.8218182,56.8929674 C37.4003774,57.3787307 36.7916295,57.6576329 36.1525214,57.6576329 L35.1485763,57.6576329 C33.9295369,57.6576329 32.9379417,56.6655232 32.9379417,55.4464837 L32.9379417,46.3049743 C32.9379417,46.3049743 32.9158148,46.0245283 32.9158148,45.8572899 C32.9158148,45.4307033 32.7372556,45.0854202 32.310669,45.0854202 L32.1712178,45.0859348 C32.1691595,45.0859348 32.1676158,45.0854202 32.166072,45.0854202 C32.1634991,45.0854202 32.1619554,45.0859348 32.1598971,45.0859348 L30.6357118,45.0921098 C30.4463465,45.0113208 30.0053516,44.2219554 30.2744768,43.2951973 C30.6686449,41.9372213 33.2153002,32.5271012 33.3233619,32.1272727 C33.4350257,31.7161235 33.1916295,31.2921098 32.7799657,31.1809605 C32.3713894,31.0703259 31.9448027,31.312693 31.8336535,31.7238422 C31.817187,31.7830189 30.8683019,35.2903945 30.0259348,38.3809605 L28.0489194,37.5617496 C27.8235334,37.4310463 27.4324528,36.3818182 27.7303945,35.0248714 C27.9681304,33.9190395 29.9281647,27.5819897 30.9815094,24.1765009 C31.323705,23.0701544 31.5887136,22.2144082 31.7029503,21.835163 C32.0482333,20.6886792 33.1906003,20.0042882 34.7590395,20.0042882 L44.3672727,20.0042882 C44.7933448,20.0042882 45.1391424,19.6590051 45.1391424,19.2324185 C45.1391424,18.8063465 44.7933448,18.4605489 44.3672727,18.4605489" id="Fill-19"></path>
                        </g>
                    </g>
                </g>
            </g>
        </g>
    </g>
</svg>