<?xml version="1.0" encoding="UTF-8"?>
<svg width="90px" height="90px" viewBox="0 0 90 90" version="1.1" xmlns="http://www.w3.org/2000/svg" xmlns:xlink="http://www.w3.org/1999/xlink">
    <!-- Generator: Sketch 61 (89581) - https://sketch.com -->
    <title>icon-BasicNeeds</title>
    <desc>Created with Sketch.</desc>
    <g id="02-PAGES" stroke="none" stroke-width="1" fill="none" fill-rule="evenodd">
        <g id="03-ACS-PROD-Pages-TypesOfSupport-1" transform="translate(-138.000000, -777.000000)">
            <g id="Body">
                <g id="4" transform="translate(48.000000, 747.000000)">
                    <g id="icon-BasicNeeds" transform="translate(90.000000, 30.000000)">
                        <circle id="Oval-7" fill="#5AD2EA" cx="45" cy="45" r="45"></circle>
                        <g id="ill-MeetingBasicNeeds" transform="translate(19.000000, 11.000000)" fill="#FFFFFF" stroke="#FFFFFF">
                            <path d="M15.0820793,16.5345139 C10.1124927,16.5345139 6.06934969,20.577767 6.06934969,25.5469023 C6.06934969,30.517211 10.1124927,34.5598773 15.0820793,34.5598773 C20.051666,34.5598773 24.094809,30.517211 24.094809,25.5469023 C24.094809,20.577767 20.051666,16.5345139 15.0820793,16.5345139 M15.0820793,36.3201094 C9.14204452,36.3201094 4.30916553,31.4870988 4.30916553,25.5469023 C4.30916553,19.6067057 9.14204452,14.7742818 15.0820793,14.7742818 C21.0221142,14.7742818 25.8549932,19.6067057 25.8549932,25.5469023 C25.8549932,31.4870988 21.0221142,36.3201094 15.0820793,36.3201094" id="Fill-1"></path>
                            <path d="M43.0378035,34.8182827 C42.566556,34.7021144 42.0876698,34.9881568 41.9701517,35.4574997 C40.9101387,39.7049365 34.3690825,45.4818242 27.5242421,46.5635312 C27.260414,46.6049782 27.029491,46.7637609 26.8972832,46.994346 C26.7644877,47.2255149 26.7450972,47.5033846 26.8432248,47.7503151 C28.4861276,51.8704922 28.9091926,56.132523 29.0173093,57.9264171 C24.0410063,57.9392598 18.0493471,57.950935 13.0436646,57.9550213 C13.0812704,56.6777547 12.9173327,54.3859135 11.5999551,52.0783107 C11.3596306,51.6580036 10.8231606,51.5097286 10.3983327,51.7484864 C9.97526764,51.9872442 9.82660728,52.5219682 10.0669317,52.9422753 C11.1962805,54.9200538 11.3114482,56.9194313 11.2773679,57.9561889 C7.51150116,57.9579401 4.52066609,57.9538538 3.31963135,57.9404273 C2.87071229,56.6182112 1.80482333,53.2884449 1.80482333,51.5027235 C1.80482333,51.1378736 1.7942467,50.7642673 1.78367008,50.3854071 C1.72608622,48.3486689 1.66673959,46.2430471 3.33373351,44.3183908 C3.55760545,44.0983133 3.78794088,43.8601393 4.02709017,43.6126251 C5.5283836,42.0592401 7.22475705,40.3032904 10.1092383,40.2198127 L18.1345477,44.4911837 C18.5364596,44.7054236 19.0353238,44.5799152 19.2862249,44.2022226 L23.1978141,38.327847 C31.9846407,39.1999842 37.4222021,32.4890808 37.6543003,32.1972008 C37.9557342,31.8177569 37.8899241,31.2684389 37.5085779,30.9689701 C37.1272318,30.6689175 36.573134,30.7325473 36.2711126,31.1114075 C36.2194046,31.1773724 30.9822115,37.6115736 22.8793401,36.5275316 C22.5455888,36.4808308 22.2136002,36.6314408 22.0267465,36.9122293 L18.2591169,42.5706137 L10.7408979,38.5689398 C10.6128032,38.5012237 10.4700187,38.4656143 10.3248839,38.4656143 C6.55725437,38.4656143 4.35966633,40.739359 2.75554457,42.3995721 C2.51874565,42.6441675 2.29252335,42.8794227 2.07158937,43.0948301 C2.05513684,43.1111754 2.03927189,43.1275206 2.02458214,43.1450334 C-0.115422049,45.5921548 -0.0396228895,48.2768665 0.0214865106,50.4344429 C0.0314755472,50.7969578 0.0420521741,51.1536351 0.0420521741,51.5027235 C0.0420521741,54.0584242 1.7824949,58.8919559 1.85711888,59.0962719 C1.93350563,59.3081767 2.08921708,59.4821371 2.29193576,59.5831276 C2.46116179,59.667189 2.55165071,59.7127223 10.4429896,59.7127223 C14.5102902,59.7127223 20.6494346,59.7004633 29.9380634,59.6753617 C30.1719244,59.6747779 30.3963839,59.5813763 30.5614968,59.4161723 C30.7266097,59.2509682 30.8182738,59.0268045 30.8170986,58.794468 C30.8153359,58.5662179 30.7601024,53.4472276 28.8545467,48.0935659 C36.0572297,46.505739 42.5224867,40.5210328 43.6812149,35.8789743 C43.7981454,35.4096314 43.5102261,34.9350346 43.0378035,34.8182827" id="Fill-3"></path>
                            <path d="M46.5870115,54.8494071 L50.0614153,54.8494071 L49.2382013,49.8849723 C49.1762965,49.5118363 49.3566536,49.1398905 49.6876059,48.9571907 C50.5929628,48.4584858 51.1554627,47.50809 51.1554627,46.4767587 C51.1554627,44.9157766 49.8858201,43.6458049 48.3239158,43.6458049 C46.7626067,43.6458049 45.4929642,44.9157766 45.4929642,46.4767587 C45.4929642,47.50809 46.0548688,48.4584858 46.9602257,48.9571907 C47.2917732,49.1398905 47.4721303,49.5118363 47.4102256,49.8849723 L46.5870115,54.8494071 Z M51.1143912,56.6347469 L45.5340356,56.6347469 C45.2715356,56.6347469 45.0227262,56.5192949 44.8530834,56.3193369 C44.6834406,56.1193788 44.6102263,55.8545534 44.6530834,55.5962743 L45.5530832,50.1682462 C44.4012978,49.3035467 43.7072503,47.9401422 43.7072503,46.4767587 C43.7072503,43.9308641 45.7780831,41.8604651 48.3239158,41.8604651 C50.8703437,41.8604651 52.9411765,43.9308641 52.9411765,46.4767587 C52.9411765,47.9401422 52.247129,49.3035467 51.0953436,50.1682462 L51.9953434,55.5962743 C52.0382005,55.8545534 51.9649863,56.1193788 51.7953434,56.3193369 C51.6257006,56.5192949 51.3768912,56.6347469 51.1143912,56.6347469 L51.1143912,56.6347469 Z" id="Fill-6"></path>
                            <path d="M44.2767199,20.2448963 C41.5112365,20.4278965 39.3165018,22.7357001 39.3165018,25.5471956 C39.3165018,28.477553 41.7007015,30.8612634 44.6309372,30.8612634 C47.4417274,30.8612634 49.7500235,28.6670259 49.9330161,25.9014276 L44.2767199,20.2448963 Z M44.6309372,32.626539 C40.7268983,32.626539 37.5512996,29.4513967 37.5512996,25.5471956 C37.5512996,21.643583 40.7268983,18.4678523 44.6309372,18.4678523 C44.8651206,18.4678523 45.0893013,18.5608234 45.2546419,18.7261709 L51.45109,24.9234649 C51.617019,25.0888124 51.7099863,25.3130024 51.7099863,25.5471956 C51.7099863,29.4513967 48.5343876,32.626539 44.6309372,32.626539 L44.6309372,32.626539 Z" id="Fill-8"></path>
                            <path d="M34.4927499,3.06910293 L37.1000326,9.26906327 L33.404324,10.8233168 L30.961687,4.55396491 L34.4927499,3.06910293 Z M39.1351714,17.6436848 L39.1175308,17.6436848 C38.3013584,17.6436848 37.3816944,17.8783224 36.336194,18.3470096 L34.0452663,12.4675442 L38.5965447,10.5533954 C39.0457923,10.3646268 39.2568916,9.84713033 39.0681371,9.39843738 L35.7769866,1.5718916 C35.6864314,1.35607205 35.5135534,1.18553345 35.2971619,1.09732383 C35.0801823,1.00852614 34.8373299,1.00970227 34.6221144,1.10085221 L30.3207447,2.90973754 L29.4057849,0.562185451 C29.2287907,0.107611862 28.7172129,-0.116440579 28.2638491,0.0605667301 C27.8098973,0.23757404 27.5852735,0.748601787 27.7622677,1.20258731 L34.7085534,19.0279879 C34.72737,19.0773852 34.7585351,19.1167855 34.784996,19.1603023 C29.5051603,22.3023291 31.1698463,25.1950166 32.6451896,27.7507434 C33.1902846,28.6939983 33.9705877,29.4855327 34.9020121,30.0400772 C35.0437251,30.1241703 35.1989625,30.1641587 35.3518478,30.1641587 C35.6529142,30.1641587 35.9463365,30.0100859 36.1109822,29.7331077 C36.3603029,29.3138179 36.2227061,28.7727989 35.8040355,28.5240478 C35.1313401,28.1235761 34.5674285,27.5513897 34.1728667,26.8680591 C32.6387214,24.2111853 31.8690026,22.8768677 35.8598974,20.5728324 C37.19882,19.799528 38.2943022,19.4078773 39.1175308,19.4078773 C39.122235,19.4078773 39.1269391,19.4084654 39.1316433,19.4078773 C39.6167602,19.4078773 40.0113219,19.0156385 40.0136799,18.5293095 C40.015438,18.0423923 39.6220524,17.6460371 39.1351714,17.6436848 L39.1351714,17.6436848 Z" id="Fill-10"></path>
                        </g>
                    </g>
                </g>
            </g>
        </g>
    </g>
</svg>