<?xml version="1.0" encoding="UTF-8"?>
<svg width="30px" height="30px" viewBox="0 0 30 30" version="1.1" xmlns="http://www.w3.org/2000/svg" xmlns:xlink="http://www.w3.org/1999/xlink">
    <!-- Generator: Sketch 61 (89581) - https://sketch.com -->
    <title>icon-3</title>
    <desc>Created with Sketch.</desc>
    <g id="02-PAGES" stroke="none" stroke-width="1" fill="none" fill-rule="evenodd">
        <g id="16-ACS-PROD-Pages-ProgramInformation-A" transform="translate(-360.000000, -1131.000000)" fill="#15152A">
            <g id="Body">
                <path d="M375,1131 C383.284271,1131 390,1137.71573 390,1146 C390,1154.28427 383.284271,1161 375,1161 C366.715729,1161 360,1154.28427 360,1146 C360,1137.71573 366.715729,1131 375,1131 Z M374.892,1140.5616 C374.143196,1140.5616 373.416004,1140.7176 372.7104,1141.0296 C372.004796,1141.3416 371.416802,1141.7712 370.9464,1142.3184 L370.9464,1142.3184 L372.4584,1143.6864 C372.852002,1143.2544 373.219198,1142.9544 373.56,1142.7864 C373.900802,1142.6184 374.315998,1142.5344 374.8056,1142.5344 C375.256802,1142.5344 375.633598,1142.652 375.936,1142.8872 C376.238402,1143.1224 376.3896,1143.4176 376.3896,1143.7728 C376.3896,1144.128 376.274401,1144.404 376.044,1144.6008 C375.813599,1144.7976 375.492002,1144.896 375.0792,1144.896 L375.0792,1144.896 L374.0136,1144.896 L374.0136,1146.7248 L375.3096,1146.7248 C375.712802,1146.7248 376.034399,1146.8184 376.2744,1147.0056 C376.514401,1147.1928 376.6344,1147.4448 376.6344,1147.7616 C376.6344,1148.136 376.468802,1148.436 376.1376,1148.6616 C375.806398,1148.8872 375.367203,1149 374.82,1149 C374.272797,1149 373.821602,1148.9232 373.4664,1148.7696 C373.111198,1148.616 372.746402,1148.3376 372.372,1147.9344 L372.372,1147.9344 L370.8744,1149.3168 C371.316002,1149.8256 371.887196,1150.224 372.588,1150.512 C373.288804,1150.8 374.042396,1150.944 374.8488,1150.944 C375.434403,1150.944 375.974398,1150.8696 376.4688,1150.7208 C376.963202,1150.572 377.387998,1150.3656 377.7432,1150.1016 C378.098402,1149.8376 378.376799,1149.5208 378.5784,1149.1512 C378.780001,1148.7816 378.8808,1148.3808 378.8808,1147.9488 C378.8808,1147.4016 378.684002,1146.9336 378.2904,1146.5448 C377.896798,1146.156 377.373603,1145.8992 376.7208,1145.7744 C377.287203,1145.6112 377.745598,1145.3232 378.096,1144.9104 C378.446402,1144.4976 378.6216,1144.0176 378.6216,1143.4704 C378.6216,1143.048 378.530401,1142.6568 378.348,1142.2968 C378.165599,1141.9368 377.911202,1141.6296 377.5848,1141.3752 C377.258398,1141.1208 376.864802,1140.9216 376.404,1140.7776 C375.943198,1140.6336 375.439203,1140.5616 374.892,1140.5616 Z" id="icon-3"></path>
            </g>
        </g>
    </g>
</svg>