<?xml version="1.0" encoding="UTF-8"?>
<svg width="15px" height="15px" viewBox="0 0 15 15" version="1.1" xmlns="http://www.w3.org/2000/svg" xmlns:xlink="http://www.w3.org/1999/xlink">
    <!-- Generator: Sketch 61 (89581) - https://sketch.com -->
    <title>icon-check-circle</title>
    <desc>Created with Sketch.</desc>
    <g id="02-PAGES" stroke="none" stroke-width="1" fill="none" fill-rule="evenodd">
        <g id="05-ACS-PROD-Pages-TypesOfSupport-3" transform="translate(-271.000000, -676.000000)" fill="#53B948">
            <g id="Body">
                <g id="1-in-profile" transform="translate(48.000000, 421.000000)">
                    <path d="M230.5,255 C234.642136,255 238,258.357864 238,262.5 C238,266.642136 234.642136,270 230.5,270 C226.357864,270 223,266.642136 223,262.5 C223,258.357864 226.357864,255 230.5,255 Z M234.146465,259.146442 C233.95121,258.951186 233.634609,258.951186 233.439353,259.146442 L233.439353,259.146442 L228.749999,263.835796 L226.560647,261.646444 C226.365391,261.451169 226.04879,261.451169 225.853535,261.646444 L225.853535,261.646444 L225.146442,262.353556 C224.951186,262.548831 224.951186,262.865413 225.146442,263.060668 L225.146442,263.060668 L228.396452,266.310679 C228.591689,266.505953 228.908271,266.505953 229.103545,266.310698 L229.103545,266.310698 L234.853558,260.560666 C235.048814,260.365391 235.048814,260.048809 234.853558,259.853554 L234.853558,259.853554 Z" id="icon-check-circle"></path>
                </g>
            </g>
        </g>
    </g>
</svg>