<?xml version="1.0" encoding="UTF-8"?>
<svg width="14px" height="15px" viewBox="0 0 14 15" version="1.1" xmlns="http://www.w3.org/2000/svg" xmlns:xlink="http://www.w3.org/1999/xlink">
    <!-- Generator: Sketch 61 (89581) - https://sketch.com -->
    <title>icon-plus-circle</title>
    <desc>Created with Sketch.</desc>
    <g id="Symbols" stroke="none" stroke-width="1" fill="none" fill-rule="evenodd">
        <g id="Header" transform="translate(-746.000000, -137.000000)" fill="#FFFFFF" fill-rule="nonzero">
            <g id="main-nav">
                <g transform="translate(49.000000, 109.000000)">
                    <g id="Build-Your-Profile" transform="translate(697.000000, 26.000000)">
                        <path d="M6.99998331,16.5312463 C10.7460681,16.5312463 13.7812171,13.4960973 13.7812171,9.75001252 C13.7812171,6.0039277 10.7460681,2.96877868 6.99998331,2.96877868 C3.25389849,2.96877868 0.218749478,6.0039277 0.218749478,9.75001252 C0.218749478,13.4960973 3.25389849,16.5312463 6.99998331,16.5312463 Z M7.76560649,13.6875031 L6.23436014,13.6875031 C6.0539025,13.6875031 5.90623592,13.5398366 5.90623592,13.3593789 L5.90623592,10.8437599 L3.39061692,10.8437599 C3.21015928,10.8437599 3.0624927,10.6960933 3.0624927,10.5156357 L3.0624927,8.98438934 C3.0624927,8.8039317 3.21015928,8.65626512 3.39061692,8.65626512 L5.90623592,8.65626512 L5.90623592,6.14064612 C5.90623592,5.96018848 6.0539025,5.8125219 6.23436014,5.8125219 L7.76560649,5.8125219 C7.94606412,5.8125219 8.0937307,5.96018848 8.0937307,6.14064612 L8.0937307,8.65626512 L10.6093497,8.65626512 C10.7898073,8.65626512 10.9374739,8.8039317 10.9374739,8.98438934 L10.9374739,10.5156357 C10.9374739,10.6960933 10.7898073,10.8437599 10.6093497,10.8437599 L8.0937307,10.8437599 L8.0937307,13.3593789 C8.0937307,13.5398366 7.94606412,13.6875031 7.76560649,13.6875031 Z" id="icon-plus-circle"></path>
                    </g>
                </g>
            </g>
        </g>
    </g>
</svg>
