<?xml version="1.0" encoding="UTF-8"?>
<svg width="25px" height="25px" viewBox="0 0 25 25" version="1.1" xmlns="http://www.w3.org/2000/svg" xmlns:xlink="http://www.w3.org/1999/xlink">
    <!-- Generator: Sketch 61 (89581) - https://sketch.com -->
    <title>icon-close</title>
    <desc>Created with Sketch.</desc>
    <g id="02-PAGES" stroke="none" stroke-width="1" fill="none" fill-rule="evenodd">
        <g id="04-ACS-PROD-Pages-TypesOfSupport-2" transform="translate(-885.000000, -43.000000)" fill="#FFFFFF">
            <g id="Modal" transform="translate(0.000000, -195.000000)">
                <path d="M910.732143,247.410741 C911.915397,247.410741 912.875,248.370345 912.875,249.553599 L912.875,251.696456 C912.875,252.879709 911.915397,253.839313 910.732143,253.839313 L901.089286,253.839313 L901.089286,263.48217 C901.089286,264.665424 900.129682,265.625027 898.946429,265.625027 L896.803571,265.625027 C895.620318,265.625027 894.660714,264.665424 894.660714,263.48217 L894.660714,253.839313 L885.017857,253.839313 C883.834603,253.839313 882.875,252.879709 882.875,251.696456 L882.875,249.553599 C882.875,248.370345 883.834603,247.410741 885.017857,247.410741 L894.660714,247.410741 L894.660714,237.767884 C894.660714,236.584631 895.620318,235.625027 896.803571,235.625027 L898.946429,235.625027 C900.129682,235.625027 901.089286,236.584631 901.089286,237.767884 L901.089286,247.410741 L910.732143,247.410741 Z" id="icon-close" transform="translate(897.875000, 250.625027) rotate(45.000000) translate(-897.875000, -250.625027) "></path>
            </g>
        </g>
    </g>
</svg>