<?xml version="1.0" encoding="UTF-8"?>
<svg width="20px" height="20px" viewBox="0 0 20 20" version="1.1" xmlns="http://www.w3.org/2000/svg" xmlns:xlink="http://www.w3.org/1999/xlink">
    <!-- Generator: Sketch 61 (89581) - https://sketch.com -->
    <title>icon-search-circle</title>
    <desc>Created with Sketch.</desc>
    <g id="02-PAGES" stroke="none" stroke-width="1" fill="none" fill-rule="evenodd">
        <g id="20-ACS-PROD-Pages-Providers-A" transform="translate(-259.000000, -514.000000)" fill="#15152A">
            <g id="Body" transform="translate(0.000000, 156.000000)">
                <g id="location" transform="translate(50.000000, 348.000000)">
                    <path d="M219,10 C224.522847,10 229,14.4771525 229,20 C229,25.5228475 224.522847,30 219,30 C213.477153,30 209,25.5228475 209,20 C209,14.4771525 213.477153,10 219,10 Z M217.469078,14.7500292 C215.000334,14.7500292 213,16.7503628 213,19.2191069 C213,21.6878511 215.000334,23.6881847 217.469078,23.6881847 C218.506845,23.6881847 219.46083,23.3358067 220.219279,22.7428029 L220.219279,22.7428029 L220.219279,23.0930197 C220.219279,23.2305381 220.272994,23.361594 220.369681,23.4582808 L220.369681,23.4582808 L222.511835,25.6004343 C222.71379,25.8024106 223.040381,25.8024106 223.240196,25.6004343 L223.240196,25.6004343 L223.848265,24.9923861 C224.05022,24.7904098 224.05022,24.4638191 223.850405,24.2618638 L223.850405,24.2618638 L221.708252,22.1197103 C221.611565,22.0230235 221.480509,21.9693086 221.34299,21.9693086 L221.34299,21.9693086 L220.992774,21.9693086 C221.585778,21.2108588 221.938155,20.2568742 221.938155,19.2191069 C221.938155,16.7503628 219.937822,14.7500292 217.469078,14.7500292 Z M217.469078,16.4689053 C218.988139,16.4689053 220.219279,17.6979058 220.219279,19.2191069 C220.219279,20.7381679 218.990279,21.9693086 217.469078,21.9693086 C215.950017,21.9693086 214.718876,20.7403081 214.718876,19.2191069 C214.718876,17.700046 215.947877,16.4689053 217.469078,16.4689053 Z" id="icon-search-circle"></path>
                </g>
            </g>
        </g>
    </g>
</svg>