<?xml version="1.0" encoding="UTF-8"?>
<svg width="14px" height="14px" viewBox="0 0 14 14" version="1.1" xmlns="http://www.w3.org/2000/svg" xmlns:xlink="http://www.w3.org/1999/xlink">
    <!-- Generator: Sketch 61 (89581) - https://sketch.com -->
    <title>icon-chevron-circle-down</title>
    <desc>Created with Sketch.</desc>
    <g id="02-PAGES" stroke="none" stroke-width="1" fill="none" fill-rule="evenodd">
        <g id="22-ACS-PROD-Pages-Providers-C" transform="translate(-747.000000, -413.000000)" fill="#15152A">
            <g id="Modal" transform="translate(0.000000, -201.000000)">
                <g id="language" transform="translate(200.000000, 604.000000)">
                    <path d="M560.562468,16.7812338 C560.562468,20.5273187 557.527319,23.5624677 553.781234,23.5624677 C550.035149,23.5624677 547,20.5273187 547,16.7812338 C547,13.035149 550.035149,10 553.781234,10 C557.527319,10 560.562468,13.035149 560.562468,16.7812338 Z M554.246076,19.8956902 L557.951146,16.1906209 C558.208187,15.9335796 558.208187,15.5179503 557.951146,15.2636593 L557.486303,14.7988167 C557.229262,14.5417754 556.813659,14.5417754 556.559342,14.7988167 L553.781234,17.5769244 L551.003126,14.7988167 C550.746085,14.5417754 550.330455,14.5417754 550.076165,14.7988167 L549.611322,15.2636593 C549.354281,15.5207006 549.354281,15.9363033 549.611322,16.1906209 L553.316391,19.8956902 C553.573433,20.1527048 553.989035,20.1527048 554.246076,19.8956902 Z" id="icon-chevron-circle-down"></path>
                </g>
            </g>
        </g>
    </g>
</svg>