<?xml version="1.0" encoding="UTF-8"?>
<svg width="48px" height="56px" viewBox="0 0 48 56" version="1.1" xmlns="http://www.w3.org/2000/svg" xmlns:xlink="http://www.w3.org/1999/xlink">
    <!-- Generator: Sketch 61 (89581) - https://sketch.com -->
    <title>icon-map-pin-cluster</title>
    <desc>Created with Sketch.</desc>
    <defs>
        <path d="M20,0 C31.045695,0 40,8.954305 40,20 C40,25.9212041 37.4268455,31.2414159 33.3377425,34.9034292 L33.9350288,35.5 L20.5,48.9350288 L7.06497116,35.5 L7.19801227,35.3664931 C2.79917618,31.6977889 0,26.1757858 0,20 C0,8.954305 8.954305,0 20,0 Z" id="path-1"></path>
        <filter x="-17.5%" y="-10.2%" width="135.0%" height="128.6%" filterUnits="objectBoundingBox" id="filter-2">
            <feOffset dx="0" dy="2" in="SourceAlpha" result="shadowOffsetOuter1"></feOffset>
            <feGaussianBlur stdDeviation="2" in="shadowOffsetOuter1" result="shadowBlurOuter1"></feGaussianBlur>
            <feColorMatrix values="0 0 0 0 0   0 0 0 0 0   0 0 0 0 0  0 0 0 0.5 0" type="matrix" in="shadowBlurOuter1"></feColorMatrix>
        </filter>
    </defs>
    <g id="02-PAGES" stroke="none" stroke-width="1" fill="none" fill-rule="evenodd">
        <g id="21-ACS-PROD-Pages-Providers-B" transform="translate(-579.000000, -985.000000)">
            <g id="Body">
                <g id="icon-map-pin-cluster" transform="translate(583.000000, 987.000000)">
                    <g id="Combined-Shape">
                        <use fill="black" fill-opacity="1" filter="url(#filter-2)" xlink:href="#path-1"></use>
                        <use fill="#237B49" fill-rule="evenodd" xlink:href="#path-1"></use>
                    </g>
                    <path d="M19.811,28.18 C20.543,28.18 21.218,28.087 21.836,27.901 C22.454,27.715 22.985,27.457 23.429,27.127 C23.873,26.797 24.221,26.401 24.473,25.939 C24.725,25.477 24.851,24.976 24.851,24.436 C24.851,23.752 24.605,23.167 24.113,22.681 C23.621,22.195 22.967,21.874 22.151,21.718 C22.859,21.514 23.432,21.154 23.87,20.638 C24.308,20.122 24.527,19.522 24.527,18.838 C24.527,18.31 24.413,17.821 24.185,17.371 C23.957,16.921 23.639,16.537 23.231,16.219 C22.823,15.901 22.331,15.652 21.755,15.472 C21.179,15.292 20.549,15.202 19.865,15.202 C18.929,15.202 18.02,15.397 17.138,15.787 C16.256,16.177 15.521,16.714 14.933,17.398 L14.933,17.398 L16.823,19.108 C17.315,18.568 17.774,18.193 18.2,17.983 C18.626,17.773 19.145,17.668 19.757,17.668 C20.321,17.668 20.792,17.815 21.17,18.109 C21.548,18.403 21.737,18.772 21.737,19.216 C21.737,19.66 21.593,20.005 21.305,20.251 C21.017,20.497 20.615,20.62 20.099,20.62 L20.099,20.62 L18.767,20.62 L18.767,22.906 L20.387,22.906 C20.891,22.906 21.293,23.023 21.593,23.257 C21.893,23.491 22.043,23.806 22.043,24.202 C22.043,24.67 21.836,25.045 21.422,25.327 C21.008,25.609 20.459,25.75 19.775,25.75 C19.091,25.75 18.527,25.654 18.083,25.462 C17.639,25.27 17.183,24.922 16.715,24.418 L16.715,24.418 L14.843,26.146 C15.395,26.782 16.109,27.28 16.985,27.64 C17.861,28 18.803,28.18 19.811,28.18 Z" id="3" fill="#FFFFFF" fill-rule="nonzero"></path>
                </g>
            </g>
        </g>
    </g>
</svg>