<?xml version="1.0" encoding="UTF-8"?>
<svg width="90px" height="90px" viewBox="0 0 90 90" version="1.1" xmlns="http://www.w3.org/2000/svg" xmlns:xlink="http://www.w3.org/1999/xlink">
    <!-- Generator: Sketch 61 (89581) - https://sketch.com -->
    <title>icon-PartnerViolence</title>
    <desc>Created with Sketch.</desc>
    <g id="02-PAGES" stroke="none" stroke-width="1" fill="none" fill-rule="evenodd">
        <g id="03-ACS-PROD-Pages-TypesOfSupport-1" transform="translate(-138.000000, -1102.000000)">
            <g id="Body">
                <g id="7" transform="translate(48.000000, 1072.000000)">
                    <g id="icon-PartnerViolence" transform="translate(90.000000, 30.000000)">
                        <circle id="Oval-7" fill="#8239A7" cx="45" cy="45" r="45"></circle>
                        <g id="ill-HealingPartnerViolence" transform="translate(24.000000, 15.000000)" fill="#FEFDFF" stroke="#FFFFFF">
                            <path d="M21.3473571,1.60725 C16.7686071,1.60725 13.0437857,5.33207143 13.0437857,9.91082143 C13.0437857,14.4895714 16.7686071,18.2143929 21.3473571,18.2143929 C25.9261071,18.2143929 29.6509286,14.4895714 29.6509286,9.91082143 C29.6509286,5.33207143 25.9261071,1.60725 21.3473571,1.60725 M21.3473571,19.8215357 C15.8825357,19.8215357 11.4366429,15.3756429 11.4366429,9.91082143 C11.4366429,4.446 15.8825357,0.000107142857 21.3473571,0.000107142857 C26.8121786,0.000107142857 31.2580714,4.446 31.2580714,9.91082143 C31.2580714,15.3756429 26.8121786,19.8215357 21.3473571,19.8215357" id="Fill-1"></path>
                            <path d="M20.5437857,22.2819643 C11.1280714,22.2819643 3.46789286,27.4189286 3.46789286,33.7328571 C3.46789286,34.1764286 3.82735714,34.5364286 4.27146429,34.5364286 C4.71557143,34.5364286 5.07503571,34.1764286 5.07503571,33.7328571 C5.07503571,28.305 12.0141429,23.8891071 20.5437857,23.8891071 C29.0734286,23.8891071 36.0125357,28.305 36.0125357,33.7328571 C36.0125357,34.1764286 36.372,34.5364286 36.8161071,34.5364286 C37.2602143,34.5364286 37.6196786,34.1764286 37.6196786,33.7328571 C37.6196786,27.4189286 29.9595,22.2819643 20.5437857,22.2819643" id="Fill-3"></path>
                            <path d="M40.2043929,47.7320357 C39.3424286,48.5082857 38.2367143,48.9336429 37.0704643,48.9336429 C34.4856429,48.9336429 32.3829643,46.8309643 32.3829643,44.2461429 C32.3829643,41.6613214 34.4856429,39.5586429 37.0704643,39.5586429 C37.96725,39.5586429 38.8313571,39.81525 39.5824286,40.2936429 C39.7988571,40.7522143 39.9140357,41.0747143 39.9204643,41.0934643 C39.9236786,41.1041786 39.9311786,41.1116786 39.9349286,41.1213214 C40.32975,42.8806071 40.4304643,46.7425714 40.2043929,47.7320357 L40.2043929,47.7320357 Z M20.9567143,58.2786429 L9.22082143,48.7595357 C10.4004643,47.6147143 11.1376071,46.0161429 11.1376071,44.2461429 C11.1376071,41.4234643 9.2685,39.0282857 6.7035,38.23275 C6.756,37.5615 6.91189286,36.9266786 7.15885714,36.3395357 C7.21778571,36.2575714 7.26064286,36.1638214 7.28475,36.0625714 C7.96832143,34.6531071 9.20742857,33.5495357 10.8761786,32.9361429 C13.6152857,31.9284643 17.6020714,32.3516786 20.3331429,35.5654286 C20.4949286,35.7556071 20.7258214,35.84775 20.9567143,35.8456071 C21.1876071,35.84775 21.4185,35.7556071 21.57975,35.5654286 C24.3113571,32.3516786 28.2976071,31.9295357 31.0367143,32.9361429 C32.7054643,33.5495357 33.9451071,34.6531071 34.6286786,36.0625714 C34.6527857,36.1638214 34.6956429,36.2575714 34.7540357,36.3395357 C35.0015357,36.9266786 35.1574286,37.5615 35.2099286,38.23275 C32.6443929,39.0282857 30.7758214,41.4234643 30.7758214,44.2461429 C30.7758214,46.0161429 31.5124286,47.6147143 32.6926071,48.7595357 L20.9567143,58.2786429 Z M1.71225,47.7357857 C1.48457143,46.71525 1.58528571,42.8747143 1.9785,41.1213214 C1.98225,41.1116786 1.98975,41.1036429 1.99296429,41.0929286 C1.99725,41.0816786 2.11135714,40.7575714 2.32778571,40.29525 C3.07939286,39.8157857 3.94457143,39.5586429 4.84296429,39.5586429 C7.42725,39.5586429 9.53046429,41.6613214 9.53046429,44.2461429 C9.53046429,46.8309643 7.42725,48.9336429 4.84296429,48.9336429 C3.67778571,48.9336429 2.57421429,48.5098929 1.71225,47.7357857 L1.71225,47.7357857 Z M5.27314286,36.9497143 C5.19867857,37.2791786 5.14832143,37.6188214 5.11617857,37.9654286 C5.02510714,37.9616786 4.93510714,37.9515 4.84296429,37.9515 C4.48778571,37.9515 4.13742857,37.9841786 3.79135714,38.0425714 C4.21135714,37.5872143 4.70742857,37.1966786 5.27314286,36.9497143 L5.27314286,36.9497143 Z M38.1145714,38.0409643 C37.7711786,37.9836429 37.4229643,37.9515 37.0704643,37.9515 C36.9783214,37.9515 36.8883214,37.9616786 36.79725,37.9654286 C36.7645714,37.6198929 36.7142143,37.2807857 36.6402857,36.9523929 C37.20225,37.1988214 37.6956429,37.58775 38.1145714,38.0409643 L38.1145714,38.0409643 Z M41.4820714,40.8716786 C41.4868929,40.7747143 41.4756429,40.6756071 41.4424286,40.5781071 C41.4295714,40.5395357 41.3626071,40.34775 41.2420714,40.0611429 C41.1692143,39.8634643 41.0893929,39.6845357 41.0026071,39.5291786 C40.2826071,38.0281071 38.6588571,35.4245357 35.9556429,35.1079286 C35.0781429,33.4525714 33.5792143,32.1582857 31.5911786,31.4270357 C28.52475,30.3009643 24.1554643,30.669 20.9567143,33.8731071 C17.7579643,30.6684643 13.3881429,30.2998929 10.3217143,31.4270357 C8.33367857,32.1582857 6.83475,33.4525714 5.95778571,35.1079286 C3.30760714,35.4186429 1.69403571,37.9268571 0.953678571,39.44025 C0.813857143,39.6625714 0.691178571,39.9422143 0.585642857,40.2695357 C0.518678571,40.4398929 0.480642857,40.5497143 0.471,40.5781071 C0.442607143,40.6611429 0.432964286,40.74525 0.431892857,40.82775 C-0.187392857,43.4232857 -0.0491785714,47.7941786 0.277607143,48.5104286 C0.318857143,48.6009643 0.376714286,48.6829286 0.447964286,48.7525714 C1.63028571,49.9059643 3.19082143,50.5407857 4.84296429,50.5407857 C5.95242857,50.5407857 6.99492857,50.2493571 7.90135714,49.7431071 C7.92760714,49.7720357 7.95278571,49.8004286 7.98385714,49.8256071 L20.0374286,59.6023929 C20.1863571,59.7234643 20.3652857,59.7818571 20.5431429,59.7818571 C20.6883214,59.7818571 20.82975,59.7384643 20.9567143,59.6623929 C21.0831429,59.7384643 21.2251071,59.7818571 21.36975,59.7818571 C21.5476071,59.7818571 21.7265357,59.7234643 21.8754643,59.6023929 L33.9290357,49.8256071 C33.9601071,49.8004286 33.9858214,49.7720357 34.0120714,49.7431071 C34.9185,50.2493571 35.9604643,50.5407857 37.0704643,50.5407857 C38.7220714,50.5407857 40.2831429,49.9059643 41.4654643,48.7525714 C41.5367143,48.6829286 41.5940357,48.6009643 41.6352857,48.5104286 C41.9599286,47.7995357 42.09975,43.4811429 41.4820714,40.8716786 L41.4820714,40.8716786 Z" id="Fill-5"></path>
                        </g>
                    </g>
                </g>
            </g>
        </g>
    </g>
</svg>