<?xml version="1.0" encoding="UTF-8"?>
<svg width="30px" height="30px" viewBox="0 0 30 30" version="1.1" xmlns="http://www.w3.org/2000/svg" xmlns:xlink="http://www.w3.org/1999/xlink">
    <!-- Generator: Sketch 61 (89581) - https://sketch.com -->
    <title>icon-4</title>
    <desc>Created with Sketch.</desc>
    <g id="02-PAGES" stroke="none" stroke-width="1" fill="none" fill-rule="evenodd">
        <g id="16-ACS-PROD-Pages-ProgramInformation-A" transform="translate(-360.000000, -1372.000000)" fill="#15152A">
            <g id="Body">
                <path d="M375,1372 C383.284271,1372 390,1378.71573 390,1387 C390,1395.28427 383.284271,1402 375,1402 C366.715729,1402 360,1395.28427 360,1387 C360,1378.71573 366.715729,1372 375,1372 Z M378.2256,1381.72 L375.6336,1381.72 L370.6224,1387.7104 L370.6224,1389.5392 L376.008,1389.5392 L376.008,1391.8 L378.2256,1391.8 L378.2256,1389.5392 L379.4208,1389.5392 L379.4208,1387.6528 L378.2256,1387.6528 L378.2256,1381.72 Z M376.008,1383.9376 L376.008,1387.6528 L372.9264,1387.6528 L376.008,1383.9376 Z" id="icon-4"></path>
            </g>
        </g>
    </g>
</svg>